<svg width="36" height="36" viewBox="0 0 36 36" fill="none" xmlns="http://www.w3.org/2000/svg">
<path d="M18 2.47244C26.5669 2.47244 33.5433 9.44882 33.5433 18.0157C33.5433 26.5827 26.5669 33.5591 18 33.5591C9.43307 33.5591 2.45669 26.5827 2.45669 18.0157C2.45669 9.43307 9.43307 2.47244 18 2.47244ZM18 0C8.06299 0 0 8.06299 0 18C0 27.937 8.06299 36 18 36C27.937 36 36 27.937 36 18C36 8.06299 27.937 0 18 0Z" fill="white"/>
<path fill-rule="evenodd" clip-rule="evenodd" d="M20.3146 11.3222C20.976 11.3064 21.6217 11.3222 22.2831 11.3222H22.5508V7.90483C22.2044 7.87334 21.8422 7.82609 21.4642 7.7946C20.7871 7.7631 20.1256 7.7316 19.4485 7.74735C18.4249 7.7631 17.4485 8.01507 16.5981 8.62924C15.6375 9.3379 15.102 10.3143 14.8973 11.4796C14.8186 11.9521 14.7871 12.456 14.7713 12.9442C14.7556 13.7159 14.7713 14.4718 14.7713 15.2434V15.5269H11.5115V19.3379H14.7556V28.897H18.7083V19.3537H21.9367C22.1099 18.0938 22.2674 16.834 22.4406 15.5269C22.1886 15.5269 21.9524 15.5269 21.7162 15.5269C20.8028 15.5269 18.6926 15.5269 18.6926 15.5269C18.6926 15.5269 18.7083 13.6371 18.7241 12.8182C18.7556 11.6844 19.417 11.3537 20.3146 11.3222Z" fill="white"/>
</svg>
