<svg width="36" height="36" viewBox="0 0 36 36" fill="none" xmlns="http://www.w3.org/2000/svg">
<path d="M18 2.47244C26.5669 2.47244 33.5433 9.44882 33.5433 18.0157C33.5433 26.5827 26.5669 33.5591 18 33.5591C9.43307 33.5591 2.45669 26.5827 2.45669 18.0157C2.45669 9.43307 9.43307 2.47244 18 2.47244ZM18 0C8.06299 0 0 8.06299 0 18C0 27.937 8.06299 36 18 36C27.937 36 36 27.937 36 18C36 8.06299 27.937 0 18 0Z" fill="white"/>
<path d="M27.575 13.2915C27.4491 12.0317 26.9609 10.9293 26.0317 10.0317C25.0554 9.10254 23.8428 8.67734 22.5357 8.61435C20.2994 8.48837 14.9766 8.40963 13.1026 8.72459C10.9609 9.07105 9.55929 10.3151 8.97661 12.4254C8.51992 14.0474 8.61441 21.5277 8.88212 23.134C9.24433 25.323 10.5357 26.7403 12.7089 27.2915C14.205 27.6852 21.6065 27.638 23.2601 27.3545C25.4491 27.0081 26.8664 25.7167 27.4333 23.5435C27.8743 21.8742 27.7168 14.7876 27.575 13.2915ZM25.8113 22.8191C25.5593 24.4884 24.4569 25.512 22.7719 25.701C21.2286 25.8742 14.3624 25.9687 12.9451 25.5592C11.575 25.1813 10.8034 24.2364 10.5672 22.8663C10.3467 21.5592 10.2994 14.9923 10.5672 13.2443C10.8191 11.5907 11.9215 10.5671 13.5908 10.3781C15.2758 10.1892 21.3546 10.1734 22.9766 10.4096C24.6459 10.6616 25.6695 11.7797 25.8585 13.449C26.0317 15.0238 26.079 21.134 25.8113 22.8191ZM18.1892 13.1498C15.4805 13.1498 13.2916 15.3388 13.2916 18.0317C13.2916 20.7246 15.4805 22.9293 18.1735 22.9293C20.8664 22.9293 23.0711 20.7403 23.0711 18.0474C23.0868 15.3388 20.8979 13.1498 18.1892 13.1498ZM18.1577 21.197C16.4097 21.1813 15.0081 19.7482 15.0239 18.0002C15.0396 16.2522 16.4727 14.8506 18.2207 14.8663C19.9687 14.8821 21.3703 16.3151 21.3546 18.0632C21.3388 19.8112 19.9057 21.2128 18.1577 21.197ZM24.4254 12.9608C24.4254 13.5907 23.9057 14.1104 23.2758 14.1104C22.6459 14.1104 22.1262 13.5907 22.1262 12.9608C22.1262 12.3309 22.6459 11.8112 23.2758 11.827C23.9057 11.827 24.4254 12.3309 24.4254 12.9608Z" fill="white"/>
<path d="M27.575 13.2915C27.4491 12.0317 26.9609 10.9293 26.0317 10.0317C25.0554 9.10254 23.8428 8.67734 22.5357 8.61435C20.2994 8.48837 14.9766 8.40963 13.1026 8.72459C10.9609 9.07105 9.55929 10.3151 8.97661 12.4254C8.51992 14.0474 8.61441 21.5277 8.88212 23.134C9.24433 25.323 10.5357 26.7403 12.7089 27.2915C14.205 27.6852 21.6065 27.638 23.2601 27.3545C25.4491 27.0081 26.8664 25.7167 27.4333 23.5435C27.8743 21.8742 27.7168 14.7876 27.575 13.2915ZM25.8113 22.8191C25.5593 24.4884 24.4569 25.512 22.7719 25.701C21.2286 25.8742 14.3624 25.9687 12.9451 25.5592C11.575 25.1813 10.8034 24.2364 10.5672 22.8663C10.3467 21.5592 10.2994 14.9923 10.5672 13.2443C10.8191 11.5907 11.9215 10.5671 13.5908 10.3781C15.2758 10.1892 21.3546 10.1734 22.9766 10.4096C24.6459 10.6616 25.6695 11.7797 25.8585 13.449C26.0317 15.0238 26.079 21.134 25.8113 22.8191ZM18.1892 13.1498C15.4805 13.1498 13.2916 15.3388 13.2916 18.0317C13.2916 20.7246 15.4805 22.9293 18.1735 22.9293C20.8664 22.9293 23.0711 20.7403 23.0711 18.0474C23.0868 15.3388 20.8979 13.1498 18.1892 13.1498ZM18.1577 21.197C16.4097 21.1813 15.0081 19.7482 15.0239 18.0002C15.0396 16.2522 16.4727 14.8506 18.2207 14.8663C19.9687 14.8821 21.3703 16.3151 21.3546 18.0632C21.3388 19.8112 19.9057 21.2128 18.1577 21.197ZM24.4254 12.9608C24.4254 13.5907 23.9057 14.1104 23.2758 14.1104C22.6459 14.1104 22.1262 13.5907 22.1262 12.9608C22.1262 12.3309 22.6459 11.8112 23.2758 11.827C23.9057 11.827 24.4254 12.3309 24.4254 12.9608Z" fill="white"/>
</svg>
