<svg width="36" height="36" viewBox="0 0 36 36" fill="none" xmlns="http://www.w3.org/2000/svg">
<path d="M18 2.47244C26.5669 2.47244 33.5433 9.44881 33.5433 18.0157C33.5433 26.5827 26.5669 33.5591 18 33.5591C9.43307 33.5591 2.45669 26.5827 2.45669 18.0157C2.45669 9.43306 9.43307 2.47244 18 2.47244ZM18 0C8.06299 0 0 8.06299 0 18C0 27.937 8.06299 36 18 36C27.937 36 36 27.937 36 18C36 8.06299 27.937 0 18 0Z" fill="white"/>
<path d="M10.2992 14.2369H13.9528V25.9692H10.2992V14.2369ZM12.126 8.41016C13.2913 8.41016 14.2362 9.35504 14.2362 10.5204C14.2362 11.6857 13.2913 12.6464 12.126 12.6464C10.9606 12.6464 10 11.7015 10 10.5204C10.0157 9.35504 10.9606 8.41016 12.126 8.41016Z" fill="white"/>
<path d="M16.2517 14.2366H19.7478V15.8429H19.795C20.2832 14.9138 21.4801 13.9531 23.2438 13.9531C26.9446 13.9531 27.6218 16.3783 27.6218 19.5437V25.9846H23.9682V20.2838C23.9682 18.9295 23.9367 17.1657 22.0785 17.1657C20.173 17.1657 19.8895 18.646 19.8895 20.1736V25.9846H16.2517V14.2366Z" fill="white"/>
</svg>
