<svg width="150" height="52" viewBox="0 0 150 52" fill="none" xmlns="http://www.w3.org/2000/svg">
<path d="M18.4032 11.9938C18.4232 12.5638 18.3631 13.1138 18.2831 13.6338L18.2631 13.8738C18.2231 14.1338 18.1632 14.4038 18.1231 14.6838L18.1031 14.8038L18.0831 14.8638C18.0231 15.1838 17.9032 15.8538 17.1332 16.3238C16.5032 16.7538 15.6531 16.6838 15.0231 16.1838C15.0031 16.1638 14.9831 16.1438 14.9831 16.1238C14.3331 15.5738 14.2931 14.9438 14.2731 14.6038C14.2531 14.4638 14.2531 14.3638 14.2531 14.2638C14.2531 14.1238 14.2331 13.9638 14.2131 13.7938V13.7638L14.0531 11.5738C13.9931 10.6638 13.9331 9.81379 13.8131 8.97379C13.6531 7.86379 13.4231 7.02379 13.0631 6.35379C13.0031 6.21379 12.9631 6.11379 12.9231 6.01379C12.6131 5.32379 12.5631 5.18379 11.9731 5.14379C11.2031 5.22379 10.4731 5.77379 9.66315 6.88379C8.99315 7.87379 8.40315 9.07379 7.94315 10.3938C7.03315 12.7238 6.40315 15.3238 5.94315 18.5838C5.78315 19.9238 5.66315 21.3038 5.60315 22.7838C5.58315 23.5338 5.56315 24.1438 5.62315 24.7338C5.64315 25.3038 5.72315 25.8738 5.84315 26.6038C6.33315 28.9338 7.91315 31.2838 9.08315 31.4238C10.0331 31.4238 10.7831 31.2638 11.1931 30.9538C11.7431 30.5138 12.2831 29.8838 12.7731 29.0938C13.1831 28.3838 13.5031 27.5938 13.7431 26.7238L14.0531 25.3638L14.2131 24.4138C14.2531 23.8038 14.6431 23.4038 15.3931 23.1738L15.5131 23.1338C15.9631 23.0138 16.4231 23.0138 16.8731 23.1338C17.9431 23.4738 18.0732 24.2038 18.0532 24.5938L18.0732 24.9538C18.0732 25.3238 18.0532 25.6438 18.0331 25.9238C18.0331 25.9638 18.0331 25.9838 18.0131 26.0038C17.9331 26.6138 17.8132 27.2238 17.6131 27.8338C17.2232 29.0338 16.6431 30.1438 15.9131 31.1538C15.0831 32.2638 14.1331 33.1438 13.0331 33.7238C12.8531 33.8238 12.7131 33.8838 12.5731 33.9438C12.4531 34.0038 12.3331 34.0638 12.2031 34.1238C12.1631 34.1438 12.1431 34.1638 12.1031 34.1638C11.9431 34.2238 11.7531 34.2838 11.5931 34.3238C11.4731 34.3638 11.3731 34.4038 11.2531 34.4438C11.2131 34.4438 11.1731 34.4638 11.1331 34.4638C10.5231 34.5838 9.73315 34.7038 9.18315 34.7238C9.00315 34.7238 8.84315 34.7438 8.65315 34.7438C6.83315 34.7438 5.00315 34.0138 3.64315 32.7338C2.30315 31.5138 1.27315 29.8338 0.683149 27.8638C0.423149 27.1138 0.233149 26.2638 0.113149 25.1838C0.0331492 24.3538 0.0331492 23.4838 0.0731492 22.5438C0.133149 20.8238 0.293149 19.2238 0.583149 17.7038C1.17315 14.3738 2.18315 11.2538 3.64315 8.43379C4.59315 6.65379 5.55315 5.31379 6.64315 4.23379C7.43315 3.48379 8.20315 2.93379 9.01315 2.57379C10.1431 2.02379 13.9832 1.15379 16.2931 4.29379C17.0632 5.34379 17.6131 6.56379 17.9931 8.10379C18.3231 9.56379 18.4632 10.8238 18.4032 11.9938Z" fill="white"/>
<path d="M34.4454 10.7693C34.4454 10.7693 29.4954 5.74926 24.4054 4.94926C19.3154 4.14926 16.7054 10.9093 19.6554 16.3993C22.6054 21.8893 24.8754 24.8993 28.3554 28.1793C31.8354 31.4593 33.4454 32.7293 35.0454 32.1993C36.6554 31.6593 44.3454 25.6893 47.9654 18.5993C51.5754 11.5093 50.4454 7.55926 47.9654 5.68926C45.4954 3.80926 41.4754 3.13926 34.4454 10.7693Z" fill="white"/>
<path d="M69.5825 18.0833C69.5125 20.7633 69.4125 23.4033 69.2825 26.1433L68.8925 33.5533C68.8925 34.0033 68.7225 34.6133 67.9025 35.0433L67.8825 35.0633C67.3025 35.3833 66.6025 35.4133 66.0025 35.1733C65.1825 34.8433 64.9425 34.2433 64.8825 33.7933L64.7325 32.2333L64.5625 30.2033C64.4725 29.3833 64.4325 28.5833 64.3725 27.7633C64.3525 27.2233 64.3025 26.7033 64.2825 26.1633C64.1125 23.2233 64.0225 20.5933 63.9825 18.0833C63.9625 16.4833 63.9425 15.0333 63.9225 13.6533L60.8125 23.7633C60.7925 24.0233 60.6825 24.2833 60.5125 24.4733C60.0125 25.0733 59.0025 25.1833 58.4825 25.0733C58.0025 24.9833 57.6625 24.6833 57.4925 24.2733L57.3825 24.0333C57.3825 24.0133 57.3825 23.9933 57.3625 23.9733L57.1725 23.4133L55.8725 20.0633C55.7225 19.6733 55.5525 19.2233 55.3725 18.7633V18.8933L55.2225 27.6833L55.1325 31.3833L54.9425 34.6233C54.9625 35.3333 54.5325 35.8333 53.6925 36.0933C53.4325 36.1833 53.1725 36.2233 52.8925 36.2233C52.6325 36.2233 52.3725 36.1833 52.1125 36.1133C51.0325 35.8133 50.7925 35.1433 50.7925 34.6233L50.7725 34.2133L50.6225 31.4033L50.5125 27.7133L50.3825 20.3433C50.3125 17.8833 50.2525 15.3933 50.2725 12.9533C50.2725 11.7433 50.2725 10.4633 50.3125 9.23329C50.3325 8.63329 50.4025 8.00329 50.4825 7.31329C50.5725 6.34329 51.2825 5.56329 52.2925 5.32329C53.3525 5.06329 54.4325 5.45329 54.9325 6.27329C54.9525 6.29329 54.9525 6.31329 54.9725 6.33329L55.1025 6.57329C55.2125 6.79329 55.3625 7.02329 55.4725 7.28329C55.7525 7.84329 55.9925 8.40329 56.2125 8.94329C56.3025 9.13329 56.3825 9.35329 56.4725 9.54329C57.1625 11.2533 57.7024 12.7033 58.1824 14.1933C58.5324 15.2333 58.8525 16.2933 59.1325 17.2833C59.5225 15.7933 59.9525 14.3033 60.3825 12.8533L60.6225 12.0533C61.1625 10.1933 61.8125 8.35329 62.4625 6.50329C62.8325 5.55329 63.1925 4.64329 63.5625 3.73329C63.8225 3.17329 64.0625 2.69329 64.3225 2.26329L64.3625 2.20329C64.4725 1.98329 64.6025 1.75329 64.7725 1.51329L64.8625 1.40329C64.9525 1.29329 65.0525 1.16329 65.1625 1.03329C65.2025 0.993289 65.2425 0.943289 65.3125 0.923289C65.7425 0.603289 66.5225 0.363289 67.3025 0.753289C68.4925 1.31329 69.1425 2.93329 69.3325 5.89329C69.3525 6.47329 69.4025 7.06329 69.4425 7.62329C69.5125 8.38329 69.5724 9.18329 69.6124 9.95329C69.6924 12.8133 69.6225 15.6433 69.5825 18.0833Z" fill="white"/>
<path d="M83.9666 12.0724V12.2324C83.9466 12.3124 83.9466 12.3924 83.9466 12.4724C83.9466 12.5724 83.9466 12.6524 83.9266 12.7524C83.9266 12.9924 83.9066 13.2224 83.8866 13.4624C83.8666 13.6024 83.8666 13.7424 83.8466 13.8924V13.9524C83.4966 17.2624 82.3266 20.3424 80.4566 22.8924C79.5066 24.2324 78.3466 25.4024 77.0266 26.3424C76.3366 26.8524 75.5866 27.2524 74.7966 27.5624C74.7166 27.6024 74.6366 27.6424 74.5366 27.6624C74.4966 28.4924 74.4566 29.3224 74.4366 30.1324V30.7224C74.4166 31.1024 74.4166 31.4924 74.4366 31.8724C74.4366 32.1724 74.4566 32.4624 74.4766 32.6824V32.7624V32.8224C74.4966 32.9424 74.5166 33.0424 74.5166 33.1624C74.5166 33.6524 74.2966 33.9324 74.1266 34.1524L73.9066 34.4524C73.6266 34.8424 73.1366 35.0824 72.6266 35.0824C72.4666 35.0824 72.2766 35.0624 72.0966 34.9824C71.0866 34.6824 70.8766 33.8024 70.7966 33.4824C70.7766 33.4424 70.7766 33.4224 70.7766 33.3824C70.6566 32.9624 70.5966 32.6124 70.5366 32.2824C70.4366 31.7924 70.3766 31.2924 70.2966 30.8024L70.2366 30.3324C70.1166 29.3224 70.0366 28.3424 69.9566 27.4124L69.8766 26.5224C69.7966 25.2224 69.7366 23.9924 69.6966 22.7124L69.6566 18.9424C69.6366 16.5724 69.6566 14.1124 69.7366 11.4424L69.7566 11.3024C69.8166 10.1024 69.8966 8.87238 69.9966 7.65238C70.0566 7.00238 70.1366 6.37238 70.2166 5.74238L70.2766 5.23238C70.1166 5.01238 70.0366 4.72238 69.9766 4.52238L69.9566 4.50238C69.9566 4.48238 69.9566 4.46238 69.9366 4.44238C69.8366 4.06238 69.8166 3.67238 69.8366 3.26238C69.8766 2.86238 69.9566 2.34238 70.4066 2.01238C70.5866 1.85238 70.8366 1.77238 71.0766 1.77238L71.2966 1.75238H71.3566L71.9466 1.71238C72.2266 1.69238 72.5166 1.69238 72.7966 1.69238C72.9166 1.71238 73.0366 1.71238 73.1366 1.71238C74.1666 1.75238 74.9566 1.85238 75.6866 2.01238C77.5966 2.43238 79.2166 3.19238 80.4866 4.22238C81.8866 5.42238 82.9566 7.06238 83.4866 8.86238C83.7666 9.77238 83.8466 10.6924 83.9166 11.4824L83.9666 12.0724ZM74.7466 23.9324C74.8266 23.8524 74.9266 23.7724 75.0266 23.7124C75.9566 22.9224 76.7866 21.9424 77.4566 20.8724C78.7766 18.7824 79.5466 16.2924 79.6466 13.6524C79.6666 12.4524 79.6266 11.1824 79.3266 10.1024C79.0166 9.09238 78.4566 8.21238 77.7066 7.61238C77.0566 7.06238 76.2666 6.64238 75.3566 6.35238V7.91238C75.3766 9.00238 75.3566 10.2424 75.3166 11.6424L74.7466 23.9324Z" fill="white"/>
<path d="M102.542 26.5872C102.542 26.6072 102.542 26.6072 102.522 26.6372C102.242 27.8172 101.582 28.0472 101.092 28.0672L101.602 31.8472C101.712 32.2872 101.672 33.0272 100.492 33.5272C100.442 33.5472 100.402 33.5672 100.332 33.5972C99.9422 33.7572 99.5222 33.8472 99.1122 33.8772C98.6722 33.8972 98.1422 33.8772 97.7322 33.4872C97.5522 33.3072 97.4122 33.0472 97.3622 32.7772L96.9522 31.1872L96.5022 29.2872C96.3822 28.8472 96.2922 28.4072 96.2022 27.9772L92.0322 27.8172C91.7522 28.8572 91.4522 29.8672 91.1522 30.8872L91.0322 31.2572L89.9022 34.6672C89.7922 35.2472 89.3022 35.8672 87.8522 35.8672H87.7122C87.2722 35.8672 86.8322 35.7772 86.3722 35.5872C84.9622 34.9372 84.8022 34.1572 84.9622 33.5572L85.4022 30.0272C85.5422 29.1472 85.6522 28.3172 85.7922 27.4872L85.4022 27.4472C85.1022 27.4472 84.2222 27.3572 84.0222 26.1372C83.9322 25.6072 83.9522 25.0772 84.0722 24.5972C84.3322 23.4472 85.2022 23.3772 85.5222 23.3972H86.5622C86.8822 21.7172 87.3022 19.6872 87.7822 17.6372C88.3622 14.9172 89.0722 12.1772 89.7622 9.51718L90.8222 5.48718C90.8922 5.13718 90.9622 4.79718 91.0322 4.42718C91.0822 4.10718 91.1522 3.77718 91.2122 3.47718C91.3322 2.96718 91.4622 2.57718 91.6522 2.23718L91.7022 2.14718C91.7722 1.98718 91.8622 1.79718 92.0022 1.61718C92.0522 1.54718 92.0722 1.49718 92.1222 1.45718C92.2122 1.38718 92.3722 1.20718 92.6722 1.08718C92.7922 1.03718 92.9222 0.99718 93.1122 0.96718C94.8622 0.64718 96.2922 1.70718 96.4522 1.81718C96.6622 1.95718 96.8222 2.11718 96.9122 2.30718C97.0022 2.44718 97.1422 2.67718 97.1922 2.99718C97.1922 3.08718 97.1922 3.20718 97.2122 3.29718V3.47718C97.2122 3.54718 97.2322 3.59718 97.2322 3.63718C97.2322 3.81718 97.2122 3.98718 97.1822 4.14718C97.3022 4.58718 97.4122 4.99718 97.5322 5.43718L97.6022 5.68718C97.8822 6.97718 98.1122 8.24718 98.3622 9.48718C98.8222 12.0272 99.1922 14.5872 99.5622 17.0472L100.482 23.5972L100.942 23.6172H100.962C101.452 23.5672 102.282 23.7072 102.552 25.0972C102.672 25.6872 102.612 26.2172 102.542 26.5872ZM93.1522 23.3572H93.3122C93.3122 23.3572 93.3322 23.3572 93.3322 23.3772L95.3122 23.4272L95.2622 23.1972C94.9622 21.5172 94.6622 19.8072 94.3822 18.0772C94.3122 18.4272 94.2222 18.7672 94.1522 19.1372C93.8422 20.5472 93.5022 21.9772 93.1522 23.3572Z" fill="white"/>
<path d="M110.631 26.6172C110.651 26.6572 110.651 26.6772 110.671 26.6972C111.301 27.7072 111.891 28.6872 112.541 29.4372C113.051 30.0272 113.391 30.2472 113.611 30.3072C113.671 30.3272 113.811 30.3872 114.061 30.3672C114.221 30.3672 114.471 30.2872 114.731 30.1872L114.911 30.1272C114.991 30.1072 115.071 30.0872 115.151 30.0872C115.901 29.9472 116.611 30.3872 116.831 31.1172C116.851 31.1372 116.851 31.1572 116.851 31.1772C116.951 31.6072 116.871 32.0472 116.631 32.4172C116.611 32.4372 116.611 32.4772 116.591 32.4972C116.141 33.0472 115.641 33.4472 115.051 33.7572C114.361 34.1072 113.551 34.2472 112.781 34.1472C111.161 33.9472 110.021 32.9272 109.351 32.1172C108.661 31.2472 108.151 30.3372 107.791 29.3372C107.651 28.9472 107.531 28.5672 107.431 28.1972C107.391 28.1972 107.351 28.2172 107.331 28.2172C107.331 28.8272 107.331 29.4572 107.351 30.0372C107.371 30.2372 107.371 30.4272 107.371 30.6072C107.371 31.0372 107.371 31.4572 107.431 31.8272L107.491 32.7372L107.651 33.5472C107.671 33.5872 107.671 33.6272 107.671 33.6672C107.811 34.4372 107.311 35.1872 106.531 35.3672C106.431 35.3872 106.331 35.3872 106.231 35.3872C105.581 35.3872 105.031 34.9972 104.831 34.4172L104.441 33.4672C104.441 33.4272 104.421 33.3872 104.421 33.3472L104.181 32.3972C104.061 31.9772 104.001 31.5472 103.941 31.1572C103.901 30.9172 103.861 30.6672 103.801 30.4272V30.3672C103.641 29.2072 103.481 27.9572 103.331 26.4972C103.091 24.0672 102.941 21.6572 102.821 18.7972C102.721 16.3872 102.661 13.8672 102.641 11.1172C102.641 9.94721 102.661 8.68721 102.741 7.24721L102.841 5.29721C102.841 5.27721 102.841 5.23721 102.861 5.21721C102.881 5.07721 102.881 4.95721 102.881 4.83721V4.73721C102.861 4.65721 102.841 4.55721 102.821 4.45721V4.37721C102.741 4.09721 102.701 3.82721 102.681 3.58721L102.661 3.54721C102.601 2.93721 102.541 2.38721 103.031 1.98721C103.171 1.86721 103.351 1.78721 103.561 1.76721L103.971 1.68721L104.601 1.58721C105.031 1.50721 105.451 1.46721 105.861 1.44721C106.671 1.36721 107.521 1.36721 108.391 1.44721C110.381 1.64721 112.181 2.31721 113.601 3.37721C115.141 4.53721 116.301 6.21721 116.881 8.16721C117.371 9.78721 117.551 11.4672 117.451 13.3172C117.311 16.5972 116.231 19.8272 114.371 22.6272C113.421 24.0672 112.321 25.3072 111.111 26.2972C110.931 26.3872 110.791 26.5172 110.631 26.6172ZM107.361 24.5472C107.701 24.2672 108.071 23.9172 108.451 23.4972C109.221 22.6272 109.931 21.5672 110.561 20.3572C111.741 18.0272 112.361 15.5272 112.381 13.1372C112.421 11.2272 112.101 8.65721 110.481 7.27721C109.791 6.66721 108.841 6.24721 107.701 6.01721H107.641L107.661 7.31721C107.701 8.45721 107.701 9.70721 107.681 11.1272L107.461 18.7472L107.361 24.5472Z" fill="white"/>
<path d="M134.991 4.52493C134.971 4.54493 134.971 4.56493 134.951 4.58493C134.791 4.80493 134.561 4.97493 134.321 5.07493H134.301C133.851 5.30493 133.471 5.27493 133.231 5.27493H133.071H132.951C132.671 5.27493 132.361 5.29493 132.081 5.31493C131.491 5.37493 130.881 5.41493 130.251 5.49493L128.471 5.71493C128.491 6.10493 128.511 6.46493 128.511 6.85493C128.511 7.05493 128.531 7.26493 128.531 7.46493C128.571 8.66493 128.531 9.91493 128.451 11.3349C128.391 12.5949 128.311 13.8449 128.231 15.1049C128.171 16.3649 128.091 17.6149 128.031 18.8749C127.911 21.3649 127.811 23.9249 127.641 26.4149C127.561 27.8349 127.461 29.0949 127.341 30.2449L127.021 33.4649C127.041 34.1749 126.491 34.6649 125.441 34.9049C125.221 34.9649 124.991 35.0049 124.771 35.0049C124.531 35.0049 124.281 34.9649 124.061 34.9049C122.721 34.6049 122.521 33.8749 122.541 33.4049L122.361 30.1849C122.301 28.8849 122.301 27.6049 122.281 26.3749C122.261 23.8049 122.261 21.3049 122.281 18.7549C122.281 16.8849 122.261 14.9649 122.261 13.1149L122.241 11.1849C122.241 9.90493 122.281 8.61493 122.341 7.33493C122.361 7.11493 122.381 6.90493 122.401 6.70493C122.401 6.58493 122.421 6.46493 122.421 6.33493C122.261 6.35493 122.081 6.37493 121.911 6.39493C121.541 6.41493 121.221 6.43493 120.901 6.49493H120.801L120.251 6.55493C120.171 6.57493 120.091 6.59493 120.011 6.59493L119.651 6.67493C119.371 6.79493 118.921 6.85493 118.411 6.49493L118.191 6.35493C118.171 6.33493 118.151 6.31493 118.131 6.29493C117.681 5.97493 117.441 5.42493 117.481 4.87493C117.481 4.53493 117.621 4.08493 118.171 3.75493C118.311 3.67493 118.451 3.59493 118.641 3.53493L119.111 3.35493C119.131 3.33493 119.171 3.33493 119.211 3.31493C119.351 3.27493 119.511 3.23493 119.661 3.17493C119.821 3.11493 120.001 3.07493 120.171 3.01493C120.701 2.87493 121.411 2.67493 122.161 2.50493C123.441 2.21493 124.731 2.03493 126.111 1.91493C127.391 1.79493 128.711 1.75493 130.101 1.77493C130.771 1.77493 131.461 1.81493 132.111 1.85493C132.461 1.87493 132.821 1.91493 133.161 1.95493C133.261 1.95493 133.321 1.97493 133.381 1.97493C133.701 2.01493 134.171 2.07493 134.641 2.41493C135.291 2.92493 135.451 3.83493 134.991 4.52493Z" fill="white"/>
<path d="M148.756 32.9595L148.716 32.9995C147.856 33.7695 146.886 34.0895 145.986 34.3295C145.086 34.5495 144.226 34.6495 143.346 34.6795C143.086 34.6995 142.826 34.6995 142.596 34.6995C141.956 34.6995 141.346 34.6595 140.786 34.5695L140.506 34.5295C140.186 34.4895 139.836 34.4395 139.496 34.3595L138.826 34.1695C138.806 34.1695 138.786 34.1495 138.766 34.1495C138.506 34.0395 138.226 33.9395 137.846 33.6795C137.436 33.4395 137.156 33.0595 137.076 32.6095L137.056 32.4395C136.626 30.2895 136.306 27.9895 136.066 25.3695C135.826 23.2195 135.676 20.8995 135.596 18.3195C135.486 15.7395 135.426 13.5495 135.466 11.3395L135.616 5.85949C135.506 5.70949 135.406 5.55949 135.356 5.40949C135.336 5.38949 135.336 5.34949 135.316 5.31949C135.126 4.64949 135.386 3.93949 135.956 3.55949C136.756 3.01949 137.676 2.63949 138.876 2.39949C139.796 2.20949 140.746 2.09949 141.686 2.07949C143.686 2.03949 145.466 2.24949 147.126 2.74949C147.986 3.00949 148.456 3.88949 148.206 4.72949C148.016 5.34949 147.496 5.77949 146.826 5.84949H146.736C145.556 5.93949 144.376 5.93949 143.236 5.93949C142.746 5.93949 142.246 5.91949 141.756 5.93949C141.756 8.16949 141.716 14.1095 141.496 18.2995C141.436 19.5295 141.406 20.8595 141.406 22.1495C141.386 22.5595 141.386 22.9695 141.386 23.3695C141.706 23.3695 142.056 23.3895 142.376 23.3895C142.826 23.4095 143.256 23.4495 143.706 23.4795C143.896 23.4995 144.116 23.4995 144.326 23.5195C144.976 23.5595 145.616 23.6295 146.236 23.6895C146.276 23.6895 146.326 23.7095 146.366 23.7095C146.776 23.7695 147.156 24.0095 147.416 24.3495C147.676 24.6695 147.756 25.0795 147.696 25.5095C147.656 25.9795 147.356 26.4095 146.926 26.6695C146.256 27.0395 145.546 27.3095 144.646 27.5295C143.806 27.6995 143.056 27.7895 142.366 27.8095C141.936 27.8295 141.506 27.8295 141.056 27.8095C140.946 28.9095 140.866 29.8495 140.756 30.7595C140.886 30.7595 141.016 30.7795 141.146 30.7795C141.876 30.8195 142.566 30.8395 143.276 30.8395C144.116 30.8395 144.736 30.7995 145.316 30.7295C145.856 30.6895 146.476 30.6195 146.996 30.4295C147.016 30.4095 147.036 30.4095 147.056 30.3895C147.846 30.0695 148.776 30.4495 149.096 31.2495C149.356 31.8395 149.206 32.5095 148.756 32.9595Z" fill="white"/>
<path d="M18.2195 51.4488C17.8395 51.4488 17.6495 51.3088 17.4995 51.0788C17.3795 50.8888 17.3495 50.6788 17.4095 50.4788C17.5295 50.0888 17.9795 49.7588 18.8495 49.3988C19.9495 48.9588 20.4995 48.6788 20.7895 48.5188C20.5595 48.5088 20.1895 48.5288 19.5795 48.6788C18.9195 48.8388 18.2895 49.0588 17.7795 49.2288C17.2295 49.4188 16.9395 49.5188 16.7395 49.5288C16.4295 49.5288 16.1295 49.3388 16.0095 49.0188C15.8595 48.6388 15.9895 48.2288 16.3495 47.9188C16.6595 47.6588 17.3495 47.4288 18.4595 47.0788C18.8795 46.9488 19.3695 46.7988 19.7595 46.6488C19.5895 46.6588 19.4195 46.6788 19.3095 46.6888C19.1495 46.7088 19.0095 46.7188 18.9195 46.7188L18.7495 46.7288C18.1795 46.7588 16.8495 46.8388 16.4095 46.8988C16.0595 46.9488 15.7995 46.9288 15.5895 46.8388C15.3895 46.7488 15.1295 46.5588 15.0695 46.1088C15.0295 45.8088 15.0995 45.5288 15.2795 45.2988C15.4895 45.0188 15.8495 44.8488 16.2995 44.7988C16.5395 44.7688 17.0395 44.7488 17.5895 44.7188C18.0895 44.6988 18.8295 44.6588 19.2895 44.6188C18.3895 44.4788 16.9195 44.0988 16.5095 43.8688C16.2595 43.7288 15.8195 43.4288 15.6995 42.9888C15.6395 42.7588 15.6895 42.5288 15.8195 42.3188C16.2995 41.5988 17.0595 41.8588 17.7295 42.1688C18.4695 42.4988 21.0395 42.7288 22.4895 42.1688C22.8895 42.0088 24.1195 41.5288 23.4195 39.2288C23.2395 38.6288 22.6895 36.8188 23.8695 36.2988C24.1295 36.1888 24.3995 36.1988 24.6695 36.3288C25.3195 36.6588 25.7395 37.6588 25.9095 38.4788C26.0495 39.1288 26.3395 39.8688 26.5995 40.5288C26.8295 41.1088 27.0195 41.6088 27.1095 41.9988C27.2595 42.6988 27.5295 43.5088 28.8495 44.3688C30.1695 45.2188 31.5095 45.4288 32.6495 45.5188C32.8395 45.5288 32.9795 45.6988 32.9595 45.8788C32.9395 46.0688 32.7795 46.1988 32.5895 46.1888C31.4395 46.0988 29.9295 45.8688 28.4795 44.9288C27.0095 43.9788 26.6295 43.0188 26.4395 42.1288C26.3695 41.7888 26.1695 41.2888 25.9595 40.7588C25.6895 40.0788 25.3895 39.3088 25.2395 38.6088C25.0395 37.6588 24.6395 37.0688 24.3495 36.9188C24.2495 36.8688 24.1795 36.8788 24.1295 36.8988C23.6095 37.1288 23.8095 38.1688 24.0595 39.0088C24.7795 41.4088 23.7295 42.3788 22.7295 42.7788C21.0695 43.4288 18.3095 43.1588 17.4395 42.7688C16.5695 42.3788 16.4595 42.5388 16.3695 42.6788C16.3295 42.7388 16.3295 42.7788 16.3395 42.8088C16.3695 42.9488 16.5595 43.1188 16.8095 43.2588C17.2295 43.4888 19.1695 43.9588 19.7795 43.9788C20.3395 43.9988 20.4595 44.2688 20.4895 44.4288C20.5495 44.7588 20.2395 45.0588 19.8995 45.1788C19.6795 45.2588 19.0395 45.3088 17.5995 45.3788C17.0695 45.4088 16.5895 45.4288 16.3495 45.4488C16.0895 45.4788 15.8895 45.5588 15.7895 45.6888C15.7295 45.7688 15.7095 45.8688 15.7195 45.9888C15.7395 46.1288 15.7595 46.2788 16.2895 46.1988C16.7495 46.1388 18.0595 46.0588 18.6795 46.0288L18.8495 46.0188C18.9295 46.0088 19.0595 45.9988 19.2095 45.9888C20.4095 45.8688 20.9095 45.8588 21.0695 46.2288C21.1295 46.3688 21.1395 46.5788 20.8495 46.8188C20.4795 47.1188 19.5895 47.3988 18.6295 47.6988C17.8895 47.9288 16.9795 48.2088 16.7595 48.3988C16.6295 48.5088 16.5695 48.6188 16.5995 48.7188C16.6195 48.7788 16.6695 48.8188 16.6795 48.8188C16.7895 48.8088 17.1795 48.6788 17.5295 48.5588C18.0495 48.3788 18.6895 48.1588 19.3895 47.9888C20.0595 47.8188 20.9595 47.6888 21.4195 47.9688C21.5995 48.0788 21.6595 48.2188 21.6895 48.3188C21.7695 48.6688 21.6295 48.9588 19.0795 49.9888C18.0795 50.3988 18.0295 50.6488 18.0295 50.6488C18.1695 50.8688 19.2095 50.5788 21.1495 49.8088C24.0795 48.6488 25.4195 47.3388 25.4295 47.3288L25.5995 47.1588L30.8295 49.5288C30.9995 49.6088 31.0795 49.8088 30.9995 49.9788C30.9195 50.1488 30.7195 50.2288 30.5495 50.1488L25.7395 47.9588C25.2795 48.3588 23.8895 49.4488 21.3995 50.4288C19.6895 51.1688 18.7595 51.4488 18.2195 51.4488Z" fill="white"/>
<path d="M34.8914 40.8413C34.8714 40.8313 34.8414 40.8213 34.8114 40.8113C34.7814 40.8013 34.7514 40.7913 34.7314 40.7813C34.3514 40.6813 34.1614 40.6313 33.7914 40.5313C33.7214 40.5113 33.6414 40.4913 33.5714 40.4813C33.4914 40.4713 33.4214 40.4413 33.3414 40.4213C33.3014 40.4113 33.2614 40.3913 33.2314 40.3813C33.1914 40.3613 33.1614 40.3413 33.1214 40.3213C33.0914 40.3013 33.0614 40.2813 33.0414 40.2513C33.0114 40.2213 32.9914 40.2013 32.9614 40.1713C33.0014 40.0813 33.0714 40.0513 33.1714 40.0613C33.2914 40.0813 33.4014 40.1013 33.5214 40.1213C33.6414 40.1413 33.7514 40.1613 33.8614 40.1813C34.0414 40.2113 34.2314 40.2513 34.4114 40.2913C34.5914 40.3313 34.7714 40.3813 34.9414 40.4313C34.9514 40.4313 34.9714 40.4413 34.9914 40.4413C35.0214 40.4413 35.0314 40.4513 35.0414 40.4413C35.0614 40.3813 35.0914 40.3313 35.1114 40.2713C35.1314 40.2213 35.1614 40.1613 35.1814 40.1013C35.2314 39.9913 35.2814 39.8813 35.3314 39.7913C35.3814 39.6913 35.4314 39.5913 35.4814 39.4813C35.5014 39.4213 35.5314 39.3613 35.5614 39.3013C35.5914 39.2413 35.6214 39.1813 35.6414 39.1213C35.6514 39.1013 35.6514 39.0913 35.6514 39.0613C35.6814 38.9013 35.7714 38.8213 35.9314 38.8213C36.0114 38.8213 36.0814 38.8213 36.1514 38.8413C36.2214 38.8613 36.2814 38.9013 36.3214 38.9713C36.3614 39.0213 36.3914 39.0813 36.4114 39.1413C36.4314 39.2013 36.4214 39.2613 36.3914 39.3313C36.3714 39.3813 36.3514 39.4413 36.3314 39.5113C36.3214 39.5713 36.3014 39.6313 36.2914 39.6913C36.2614 39.8113 36.2214 39.9313 36.1814 40.0313C36.1414 40.1313 36.1014 40.2513 36.0714 40.3713C36.0414 40.4913 36.0314 40.5413 36.0014 40.6613C36.0514 40.6713 36.1014 40.6813 36.1514 40.7013C36.2014 40.7113 36.2514 40.7313 36.3014 40.7413C36.4814 40.7913 36.6814 40.8413 36.8614 40.9013C37.0414 40.9613 37.2214 41.0413 37.3914 41.1313C37.4314 41.1513 37.4714 41.1713 37.5014 41.2013C37.5414 41.2313 37.5714 41.2513 37.6114 41.2813C37.6214 41.2913 37.6314 41.3013 37.6414 41.3213C37.6514 41.3313 37.6614 41.3413 37.6714 41.3613C37.6214 41.3913 37.5714 41.4113 37.5214 41.4113C37.4714 41.4113 37.4314 41.4013 37.3814 41.3913C37.2814 41.3713 37.1914 41.3513 37.1014 41.3213C37.0114 41.2913 36.9114 41.2813 36.8214 41.2613C36.6814 41.2313 36.5414 41.2113 36.4014 41.1813C36.2614 41.1613 36.1214 41.1313 35.9814 41.1013C35.9714 41.1013 35.9514 41.1013 35.9414 41.1013C35.9314 41.1013 35.9114 41.1013 35.8914 41.1013C35.8814 41.1213 35.8714 41.1713 35.8514 41.2413C35.8314 41.3113 35.8114 41.3913 35.7814 41.4813C35.7514 41.5713 35.7314 41.6713 35.7014 41.7813C35.6714 41.8913 35.6514 41.9813 35.6214 42.0813C35.5914 42.1713 35.5714 42.2513 35.5514 42.3213C35.5314 42.3913 35.5214 42.4313 35.5114 42.4613C35.4214 42.8113 35.3814 42.9813 35.2914 43.3213C35.2614 43.4213 35.2314 43.5613 35.1914 43.7513C35.1514 43.9413 35.1014 44.1613 35.0414 44.4013C34.9814 44.6413 34.9314 44.8913 34.8714 45.1513C34.8114 45.4113 34.7614 45.6613 34.7214 45.9013C34.6814 46.1413 34.6414 46.3613 34.6014 46.5513C34.5714 46.7413 34.5514 46.8913 34.5514 46.9913C34.5514 47.1413 34.5414 47.3013 34.5414 47.4613C34.5414 47.6213 34.5514 47.7713 34.5714 47.9313C34.5714 47.9613 34.5714 47.9813 34.5714 48.0113C34.5714 48.0413 34.5714 48.0713 34.5714 48.0913C34.5714 48.1313 34.5814 48.1613 34.5914 48.1913C34.6014 48.2213 34.6014 48.2613 34.6114 48.2913C34.6314 48.3613 34.6514 48.4213 34.6714 48.4813C34.6914 48.5413 34.7114 48.6113 34.7314 48.6713C34.7514 48.7313 34.7414 48.7713 34.7214 48.8013C34.6914 48.8313 34.6414 48.8513 34.5814 48.8513C34.4714 48.8513 34.3614 48.8213 34.2614 48.7813C34.1614 48.7413 34.0714 48.6913 33.9814 48.6313C33.8414 48.5513 33.7214 48.4413 33.6514 48.3213C33.5714 48.2013 33.5114 48.0713 33.4614 47.9213C33.3914 47.6913 33.3614 47.4613 33.3514 47.2313C33.3414 47.0013 33.3414 46.7713 33.3514 46.5413C33.3514 46.4813 33.3714 46.3713 33.4014 46.2213C33.4314 46.0713 33.4714 45.8913 33.5114 45.6913C33.5514 45.4913 33.6114 45.2813 33.6614 45.0613C33.7114 44.8413 33.7614 44.6313 33.8114 44.4313C33.8614 44.2313 33.9014 44.0613 33.9414 43.9113C33.9814 43.7613 34.0114 43.6613 34.0214 43.6013C34.0614 43.4513 34.1114 43.2913 34.1514 43.1413C34.1914 42.9913 34.2314 42.8413 34.2814 42.6913C34.3014 42.6413 34.3214 42.5713 34.3514 42.4813C34.3814 42.3913 34.4214 42.2813 34.4614 42.1613C34.5014 42.0413 34.5414 41.9213 34.5914 41.7913C34.6414 41.6613 34.6714 41.5413 34.7114 41.4213C34.7514 41.3013 34.7914 41.2013 34.8214 41.1013C34.8514 41.0013 34.8814 40.9313 34.8914 40.8913C34.8814 40.8813 34.8914 40.8713 34.8914 40.8413Z" fill="white"/>
<path d="M42.224 45.0063C42.104 45.1563 41.984 45.3163 41.854 45.4663C41.734 45.6163 41.604 45.7663 41.464 45.9163C41.344 46.0563 41.204 46.1863 41.064 46.3163C40.924 46.4363 40.764 46.5563 40.614 46.6563C40.374 46.8263 40.114 46.9363 39.844 46.9963C39.574 47.0463 39.284 47.0163 38.974 46.9163C38.654 46.8063 38.394 46.6463 38.194 46.4263C38.004 46.2063 37.854 45.9463 37.774 45.6363C37.714 45.4163 37.684 45.1963 37.674 44.9763C37.664 44.7563 37.684 44.5363 37.704 44.3163C37.724 44.1463 37.754 43.9763 37.794 43.8063C37.834 43.6463 37.884 43.4763 37.934 43.3063C37.984 43.1363 38.044 42.9663 38.114 42.8063C38.184 42.6463 38.264 42.4863 38.364 42.3263C38.494 42.0963 38.644 41.8763 38.804 41.6763C38.964 41.4663 39.154 41.2863 39.374 41.1263C39.504 41.0263 39.644 40.9463 39.794 40.8763C39.944 40.8063 40.094 40.7563 40.254 40.7163C40.394 40.6863 40.534 40.6663 40.674 40.6563C40.814 40.6463 40.954 40.6563 41.094 40.6763C41.244 40.7063 41.394 40.7463 41.544 40.8063C41.684 40.8663 41.814 40.9563 41.934 41.0863C41.964 41.1163 41.994 41.1463 42.024 41.1863C42.054 41.2163 42.084 41.2463 42.124 41.2763C42.244 41.3863 42.334 41.5163 42.404 41.6563C42.474 41.7963 42.534 41.9363 42.584 42.0863C42.634 42.2363 42.654 42.3863 42.644 42.5463C42.634 42.6963 42.594 42.8563 42.534 43.0063C42.314 43.4963 41.964 43.8763 41.484 44.1563C41.344 44.2363 41.194 44.3163 41.054 44.3863C40.914 44.4563 40.764 44.5263 40.604 44.5763C40.384 44.6563 40.164 44.7063 39.944 44.7263C39.724 44.7463 39.484 44.7463 39.254 44.6963C39.254 44.6963 39.224 44.6963 39.194 44.6963C39.184 44.8763 39.184 45.0563 39.214 45.2263C39.244 45.3963 39.294 45.5663 39.384 45.7263C39.454 45.8563 39.554 45.9663 39.664 46.0463C39.774 46.1263 39.904 46.1963 40.054 46.2363C40.114 46.2563 40.174 46.2563 40.224 46.2363C40.274 46.2163 40.334 46.2063 40.384 46.1763C40.504 46.1163 40.614 46.0463 40.724 45.9663C40.824 45.8863 40.924 45.7963 41.024 45.7163C41.154 45.5963 41.284 45.4663 41.394 45.3363C41.514 45.2063 41.614 45.0663 41.724 44.9263C41.774 44.8563 41.834 44.8063 41.884 44.7663C41.944 44.7263 42.024 44.6963 42.104 44.7163C42.154 44.7263 42.204 44.7563 42.234 44.7863C42.264 44.8063 42.274 44.8463 42.284 44.8863C42.284 44.9063 42.264 44.9563 42.224 45.0063ZM39.214 44.3063C39.274 44.3163 39.324 44.3163 39.374 44.3263C39.424 44.3363 39.464 44.3363 39.514 44.3363C39.674 44.3363 39.834 44.3263 39.984 44.2963C40.134 44.2663 40.284 44.2163 40.424 44.1563C40.534 44.1063 40.654 44.0563 40.754 44.0063C40.864 43.9563 40.964 43.8963 41.074 43.8363C41.294 43.7263 41.474 43.5763 41.624 43.3963C41.774 43.2263 41.884 43.0163 41.984 42.8063C42.024 42.7063 42.054 42.6063 42.054 42.5163C42.054 42.4163 42.024 42.3163 41.974 42.2163C41.874 42.0263 41.734 41.8863 41.554 41.7963C41.374 41.7063 41.184 41.6863 40.974 41.7263C40.794 41.7663 40.624 41.8363 40.474 41.9363C40.324 42.0363 40.184 42.1463 40.064 42.2863C39.864 42.5163 39.704 42.7763 39.564 43.0663C39.494 43.2163 39.424 43.3763 39.374 43.5263C39.324 43.6863 39.274 43.8463 39.244 44.0163C39.234 44.0563 39.234 44.1063 39.234 44.1563C39.214 44.2063 39.214 44.2563 39.214 44.3063Z" fill="white"/>
<path d="M43.8865 44.716C43.9265 44.636 43.9765 44.556 44.0165 44.486C44.0565 44.406 44.1065 44.326 44.1465 44.246C44.2065 44.116 44.2765 43.986 44.3465 43.856C44.4165 43.726 44.4965 43.606 44.5865 43.486C44.6765 43.356 44.7665 43.226 44.8665 43.086C44.9665 42.956 45.0665 42.816 45.1665 42.686C45.2565 42.566 45.3565 42.456 45.4465 42.346C45.5465 42.236 45.6365 42.126 45.7365 42.026C45.8165 41.936 45.8965 41.856 45.9765 41.766C46.0565 41.686 46.1365 41.596 46.2265 41.516C46.2865 41.466 46.3365 41.416 46.4065 41.366C46.4665 41.316 46.5365 41.276 46.5965 41.226C46.6365 41.196 46.6665 41.176 46.6965 41.156C46.7265 41.136 46.7665 41.106 46.7965 41.086C46.8665 41.026 46.9565 41.006 47.0465 41.026C47.0865 41.036 47.1365 41.056 47.1765 41.066C47.2165 41.076 47.2565 41.086 47.2965 41.096C47.3465 41.106 47.3865 41.136 47.4065 41.176C47.4265 41.216 47.4565 41.256 47.4765 41.286C47.4965 41.336 47.5165 41.386 47.5365 41.436C47.5465 41.486 47.5565 41.536 47.5565 41.586C47.5665 41.796 47.5565 42.006 47.5165 42.206C47.4865 42.406 47.4365 42.616 47.3765 42.816C47.3265 42.986 47.2765 43.156 47.2365 43.336C47.1865 43.506 47.1465 43.686 47.0965 43.856C47.0165 44.156 46.9465 44.456 46.8765 44.756C46.8065 45.056 46.7465 45.366 46.7065 45.666C46.6865 45.816 46.6665 45.956 46.6465 46.106C46.6265 46.256 46.6165 46.396 46.6165 46.556C46.6165 46.606 46.6165 46.646 46.6165 46.686C46.6165 46.726 46.6165 46.766 46.6165 46.816C46.6165 46.846 46.6165 46.886 46.6165 46.916C46.6165 46.946 46.5965 46.976 46.5565 47.006C46.5465 47.076 46.5265 47.126 46.4765 47.156C46.4265 47.176 46.3665 47.206 46.3065 47.216C46.2465 47.226 46.1865 47.236 46.1265 47.246C46.0665 47.256 46.0065 47.266 45.9465 47.276C45.8565 47.286 45.7565 47.266 45.6665 47.226C45.5765 47.176 45.5065 47.106 45.4665 47.026C45.4565 47.006 45.4565 46.986 45.4565 46.966C45.4565 46.946 45.4565 46.926 45.4565 46.896C45.4565 46.876 45.4565 46.866 45.4565 46.846C45.4565 46.826 45.4565 46.816 45.4565 46.796C45.4565 46.326 45.5165 45.856 45.6165 45.386C45.6365 45.296 45.6565 45.206 45.6665 45.116C45.6865 45.026 45.7065 44.936 45.7265 44.846C45.7665 44.706 45.8065 44.556 45.8465 44.416C45.8965 44.276 45.9365 44.126 45.9765 43.986C46.0165 43.866 46.0465 43.746 46.0865 43.636C46.1265 43.516 46.1665 43.396 46.2165 43.286C46.2465 43.196 46.2865 43.106 46.3265 43.006C46.3665 42.916 46.4065 42.826 46.4365 42.726C46.5065 42.556 46.5665 42.386 46.6365 42.216C46.7065 42.046 46.7565 41.856 46.8065 41.686C46.8165 41.666 46.8165 41.636 46.8265 41.616C46.8265 41.586 46.8365 41.556 46.8365 41.526C46.6865 41.596 46.5565 41.676 46.4565 41.776C46.3965 41.836 46.3365 41.896 46.2865 41.966C46.2265 42.026 46.1765 42.096 46.1165 42.156C46.0565 42.226 45.9865 42.296 45.9265 42.366C45.8565 42.436 45.7965 42.506 45.7365 42.576C45.6665 42.656 45.6065 42.736 45.5465 42.806C45.4665 42.916 45.3765 43.026 45.2965 43.136C45.2165 43.246 45.1265 43.356 45.0465 43.466C45.0065 43.516 44.9665 43.576 44.9365 43.636C44.9065 43.696 44.8665 43.756 44.8365 43.816C44.7465 43.966 44.6565 44.116 44.5665 44.266C44.4765 44.416 44.3865 44.566 44.3065 44.716C44.2565 44.796 44.2165 44.876 44.1765 44.956C44.1465 45.036 44.1065 45.116 44.0565 45.196C43.9965 45.306 43.9465 45.426 43.9165 45.556C43.8865 45.676 43.8365 45.806 43.7865 45.926C43.7665 45.976 43.7465 46.036 43.7165 46.096C43.6865 46.146 43.6665 46.206 43.6465 46.266C43.6265 46.316 43.6065 46.366 43.5965 46.416C43.5865 46.466 43.5565 46.516 43.5265 46.566C43.4865 46.636 43.4365 46.716 43.3865 46.766C43.3565 46.796 43.3365 46.816 43.3165 46.826C43.2965 46.836 43.2565 46.856 43.2165 46.866C43.1865 46.876 43.1465 46.876 43.1165 46.866C43.0865 46.856 43.0465 46.856 43.0165 46.846C42.9765 46.836 42.9465 46.836 42.9165 46.826C42.8865 46.816 42.8665 46.796 42.8465 46.766C42.7665 46.646 42.7165 46.526 42.6965 46.406C42.6565 46.226 42.6465 46.046 42.6465 45.876C42.6465 45.706 42.6565 45.526 42.6765 45.346C42.6965 45.146 42.7165 44.936 42.7365 44.736C42.7565 44.526 42.7765 44.326 42.8065 44.126C42.8465 43.886 42.8865 43.646 42.9365 43.406C42.9865 43.166 43.0365 42.926 43.0865 42.686C43.1265 42.496 43.1765 42.316 43.2265 42.126C43.2765 41.946 43.3265 41.756 43.3765 41.566C43.4365 41.336 43.5165 41.086 43.5965 40.846C43.6165 40.776 43.6465 40.706 43.6865 40.646C43.7265 40.576 43.7765 40.526 43.8365 40.466C43.8965 40.416 43.9665 40.386 44.0265 40.396C44.0865 40.406 44.1465 40.416 44.1865 40.436C44.2365 40.456 44.2765 40.506 44.2965 40.566C44.3265 40.636 44.3465 40.696 44.3565 40.756C44.3665 40.816 44.3765 40.886 44.3665 40.956C44.3565 41.036 44.3465 41.126 44.3465 41.206C44.3465 41.286 44.3365 41.366 44.3365 41.456C44.3365 41.576 44.3265 41.696 44.3165 41.806C44.3065 41.916 44.2865 42.036 44.2665 42.156C44.2365 42.336 44.2065 42.506 44.1865 42.676C44.1665 42.846 44.1365 43.026 44.1065 43.196C44.0765 43.386 44.0465 43.576 44.0165 43.756C43.9865 43.946 43.9565 44.126 43.9265 44.316C43.9165 44.376 43.9165 44.436 43.9065 44.486C43.8965 44.546 43.8965 44.596 43.8865 44.656C43.8665 44.716 43.8765 44.716 43.8865 44.716Z" fill="white"/>
<path d="M52.1051 44.8876C51.9951 45.0476 51.8751 45.2076 51.7651 45.3676C51.6451 45.5276 51.5251 45.6776 51.4051 45.8376C51.2851 45.9876 51.1651 46.1276 51.0251 46.2576C50.8851 46.3876 50.7451 46.5076 50.5851 46.6276C50.3551 46.8076 50.1051 46.9376 49.8351 47.0076C49.5751 47.0776 49.2751 47.0576 48.9651 46.9676C48.6451 46.8776 48.3751 46.7276 48.1651 46.5176C47.9551 46.3076 47.8051 46.0576 47.7051 45.7476C47.6351 45.5376 47.5951 45.3076 47.5751 45.0976C47.5551 44.8776 47.5551 44.6576 47.5751 44.4376C47.5851 44.2676 47.6051 44.0876 47.6451 43.9276C47.6751 43.7576 47.7151 43.5976 47.7551 43.4276C47.7951 43.2576 47.8451 43.0876 47.9151 42.9176C47.9751 42.7576 48.0551 42.5876 48.1351 42.4276C48.2551 42.1976 48.3951 41.9676 48.5451 41.7576C48.6951 41.5476 48.8751 41.3476 49.0851 41.1776C49.2151 41.0776 49.3451 40.9776 49.4851 40.9076C49.6251 40.8276 49.7751 40.7676 49.9351 40.7176C50.0751 40.6776 50.2051 40.6476 50.3451 40.6376C50.4851 40.6176 50.6251 40.6176 50.7651 40.6376C50.9151 40.6576 51.0751 40.6876 51.2151 40.7376C51.3651 40.7876 51.4951 40.8776 51.6151 40.9976C51.6451 41.0276 51.6751 41.0576 51.7151 41.0876C51.7451 41.1176 51.7851 41.1476 51.8151 41.1676C51.9351 41.2776 52.0351 41.3976 52.1151 41.5276C52.1951 41.6576 52.2651 41.7976 52.3151 41.9476C52.3751 42.0976 52.4051 42.2476 52.3951 42.3976C52.3951 42.5476 52.3651 42.7076 52.3051 42.8576C52.1151 43.3576 51.7851 43.7576 51.3151 44.0576C51.1751 44.1476 51.0351 44.2276 50.8951 44.3176C50.7551 44.4076 50.6051 44.4676 50.4551 44.5376C50.2451 44.6276 50.0251 44.6876 49.8051 44.7276C49.5851 44.7676 49.3551 44.7676 49.1151 44.7276C49.1151 44.7276 49.0951 44.7276 49.0551 44.7276C49.0551 44.9176 49.0651 45.0876 49.1051 45.2576C49.1351 45.4276 49.2051 45.5876 49.2951 45.7476C49.3751 45.8776 49.4751 45.9776 49.5951 46.0576C49.7151 46.1376 49.8451 46.1876 49.9951 46.2276C50.0551 46.2376 50.1151 46.2376 50.1651 46.2176C50.2151 46.1976 50.2651 46.1776 50.3251 46.1476C50.4451 46.0776 50.5451 46.0076 50.6451 45.9276C50.7451 45.8476 50.8451 45.7476 50.9351 45.6576C51.0551 45.5276 51.1751 45.3976 51.2851 45.2576C51.3951 45.1176 51.4951 44.9776 51.5851 44.8276C51.6351 44.7576 51.6851 44.6976 51.7351 44.6576C51.7951 44.6176 51.8751 44.5876 51.9551 44.5976C52.0051 44.6076 52.0551 44.6276 52.0851 44.6576C52.1151 44.6776 52.1351 44.7176 52.1451 44.7576C52.1551 44.7876 52.1451 44.8376 52.1051 44.8876ZM49.0651 44.3576C49.1251 44.3576 49.1751 44.3676 49.2251 44.3676C49.2751 44.3676 49.3151 44.3676 49.3651 44.3676C49.5251 44.3576 49.6751 44.3376 49.8251 44.2976C49.9751 44.2576 50.1151 44.2076 50.2551 44.1376C50.3651 44.0876 50.4751 44.0276 50.5851 43.9676C50.6851 43.9076 50.7951 43.8476 50.8951 43.7876C51.1051 43.6576 51.2851 43.5076 51.4151 43.3276C51.5551 43.1476 51.6551 42.9376 51.7451 42.7176C51.7851 42.6176 51.8051 42.5176 51.7951 42.4176C51.7851 42.3176 51.7551 42.2276 51.6951 42.1276C51.5851 41.9476 51.4351 41.8176 51.2551 41.7376C51.0751 41.6576 50.8851 41.6476 50.6751 41.6976C50.4951 41.7476 50.3251 41.8276 50.1851 41.9276C50.0351 42.0376 49.9051 42.1576 49.7951 42.2976C49.6051 42.5376 49.4551 42.8076 49.3351 43.0976C49.2751 43.2476 49.2151 43.4076 49.1651 43.5676C49.1251 43.7276 49.0851 43.8976 49.0651 44.0576C49.0651 44.0976 49.0551 44.1476 49.0551 44.1976C49.0651 44.2576 49.0651 44.3076 49.0651 44.3576Z" fill="white"/>
<path d="M53.637 42.885C53.687 42.805 53.727 42.735 53.767 42.675C53.807 42.615 53.847 42.545 53.887 42.475C53.977 42.335 54.067 42.205 54.147 42.065C54.237 41.925 54.327 41.795 54.427 41.675C54.507 41.575 54.597 41.485 54.707 41.415C54.817 41.345 54.937 41.295 55.067 41.265C55.167 41.245 55.267 41.255 55.367 41.315C55.407 41.345 55.457 41.375 55.497 41.395C55.537 41.415 55.577 41.445 55.627 41.475C55.677 41.505 55.717 41.555 55.747 41.605C55.777 41.655 55.797 41.715 55.827 41.765C56.017 42.175 56.087 42.595 56.027 43.035C56.017 43.105 56.007 43.175 55.997 43.245C55.987 43.315 55.987 43.385 55.977 43.455C55.977 43.465 55.977 43.485 55.987 43.535C56.037 43.455 56.077 43.385 56.117 43.305C56.157 43.235 56.197 43.165 56.237 43.095C56.377 42.875 56.517 42.655 56.657 42.445C56.807 42.235 56.977 42.035 57.157 41.845C57.287 41.715 57.417 41.605 57.567 41.515C57.707 41.425 57.877 41.345 58.047 41.285C58.167 41.245 58.287 41.225 58.407 41.235C58.527 41.245 58.647 41.275 58.757 41.325C58.817 41.355 58.867 41.395 58.907 41.445C58.947 41.495 58.977 41.555 58.997 41.615C59.147 41.985 59.217 42.355 59.197 42.745C59.187 42.905 59.177 43.065 59.167 43.225C59.157 43.385 59.157 43.545 59.137 43.705C59.127 43.895 59.097 44.095 59.067 44.275C59.037 44.465 58.997 44.655 58.937 44.835C58.887 45.025 58.847 45.215 58.817 45.415C58.807 45.595 58.777 45.795 58.767 45.995C58.767 46.095 58.757 46.185 58.747 46.285C58.737 46.385 58.727 46.475 58.727 46.575C58.727 46.605 58.727 46.625 58.727 46.655C58.727 46.685 58.727 46.705 58.727 46.735C58.727 46.775 58.727 46.815 58.727 46.845C58.717 46.885 58.697 46.915 58.667 46.955C58.647 46.975 58.617 47.005 58.607 47.035C58.597 47.065 58.577 47.095 58.567 47.125C58.547 47.175 58.507 47.215 58.467 47.255C58.427 47.295 58.377 47.315 58.337 47.325C58.277 47.335 58.207 47.355 58.137 47.365C58.067 47.385 57.997 47.375 57.917 47.345C57.847 47.315 57.807 47.265 57.797 47.185C57.767 47.045 57.757 46.895 57.747 46.755C57.737 46.605 57.737 46.465 57.757 46.315C57.767 46.205 57.787 46.095 57.797 45.985C57.807 45.875 57.827 45.765 57.847 45.655C57.877 45.515 57.907 45.375 57.937 45.235C57.967 45.095 57.997 44.945 58.027 44.815C58.047 44.725 58.067 44.635 58.077 44.545C58.087 44.455 58.107 44.365 58.127 44.275C58.147 44.185 58.177 44.085 58.207 43.985C58.237 43.885 58.267 43.795 58.287 43.695C58.327 43.565 58.357 43.435 58.387 43.305C58.417 43.175 58.457 43.055 58.487 42.915C58.517 42.795 58.537 42.675 58.557 42.555C58.577 42.435 58.607 42.315 58.627 42.195C58.647 42.075 58.657 41.965 58.637 41.865C58.627 41.825 58.607 41.795 58.557 41.795C58.507 41.795 58.457 41.795 58.417 41.795C58.377 41.795 58.327 41.815 58.277 41.835C58.077 41.925 57.907 42.035 57.757 42.165C57.607 42.305 57.467 42.455 57.337 42.615C57.247 42.735 57.157 42.855 57.067 42.985C56.977 43.115 56.897 43.235 56.807 43.365C56.747 43.455 56.687 43.555 56.637 43.655C56.587 43.755 56.527 43.855 56.487 43.955C56.417 44.095 56.357 44.235 56.297 44.375C56.237 44.515 56.177 44.655 56.127 44.795C56.087 44.905 56.047 45.015 56.017 45.125C55.987 45.235 55.957 45.345 55.937 45.465C55.897 45.645 55.857 45.825 55.817 46.005C55.777 46.185 55.737 46.365 55.687 46.545C55.667 46.645 55.617 46.735 55.557 46.815C55.497 46.895 55.407 46.955 55.297 47.005C55.267 47.015 55.227 47.035 55.207 47.045C55.177 47.065 55.147 47.075 55.117 47.095C55.107 47.105 55.097 47.105 55.087 47.105C55.077 47.105 55.067 47.105 55.057 47.105C54.987 47.115 54.907 47.095 54.817 47.055C54.727 47.005 54.667 46.955 54.647 46.885C54.597 46.795 54.577 46.705 54.567 46.605C54.557 46.515 54.557 46.415 54.557 46.315C54.557 46.165 54.557 46.015 54.557 45.865C54.567 45.715 54.587 45.565 54.607 45.415C54.607 45.395 54.617 45.365 54.617 45.335C54.617 45.305 54.617 45.275 54.617 45.245C54.617 45.215 54.617 45.185 54.627 45.155C54.627 45.125 54.647 45.105 54.667 45.085C54.677 45.075 54.677 45.065 54.677 45.045C54.687 44.995 54.687 44.945 54.687 44.895C54.687 44.845 54.687 44.795 54.697 44.755C54.707 44.695 54.717 44.625 54.727 44.565C54.737 44.505 54.747 44.435 54.767 44.375C54.767 44.355 54.777 44.335 54.777 44.305C54.777 44.275 54.777 44.255 54.777 44.225C54.837 43.965 54.877 43.835 54.937 43.575C54.957 43.485 54.977 43.405 55.007 43.315C55.027 43.235 55.047 43.145 55.077 43.055C55.107 42.945 55.137 42.835 55.167 42.735C55.197 42.625 55.227 42.515 55.247 42.405C55.267 42.315 55.287 42.215 55.297 42.125C55.307 42.035 55.307 41.935 55.277 41.835C55.197 41.885 55.117 41.935 55.047 41.995C54.977 42.055 54.917 42.115 54.857 42.195C54.827 42.245 54.787 42.285 54.747 42.325C54.707 42.365 54.667 42.415 54.627 42.455C54.547 42.555 54.487 42.655 54.427 42.765C54.367 42.875 54.317 42.985 54.267 43.095C54.217 43.195 54.167 43.305 54.127 43.405C54.077 43.505 54.027 43.615 53.977 43.715C53.897 43.875 53.837 44.055 53.777 44.215C53.717 44.385 53.667 44.555 53.637 44.735C53.627 44.815 53.607 44.895 53.587 44.965C53.567 45.045 53.547 45.115 53.537 45.195C53.517 45.325 53.497 45.455 53.487 45.585C53.467 45.715 53.457 45.845 53.447 45.965C53.437 46.035 53.427 46.105 53.417 46.185C53.397 46.255 53.387 46.335 53.387 46.405C53.387 46.435 53.387 46.465 53.377 46.485C53.367 46.515 53.367 46.545 53.357 46.565C53.347 46.635 53.327 46.695 53.297 46.745C53.277 46.785 53.237 46.815 53.207 46.845C53.167 46.865 53.127 46.875 53.077 46.885C53.027 46.895 52.977 46.895 52.927 46.885C52.877 46.875 52.837 46.865 52.787 46.865C52.757 46.865 52.727 46.855 52.707 46.835C52.677 46.815 52.657 46.805 52.637 46.785C52.607 46.765 52.577 46.755 52.567 46.735C52.557 46.715 52.537 46.695 52.517 46.665C52.457 46.555 52.427 46.445 52.417 46.335C52.417 46.265 52.407 46.185 52.407 46.115C52.407 46.045 52.407 45.965 52.397 45.895C52.397 45.745 52.397 45.595 52.397 45.445C52.397 45.295 52.397 45.145 52.407 44.995C52.407 44.835 52.417 44.675 52.417 44.515C52.417 44.355 52.437 44.205 52.447 44.045C52.497 43.515 52.557 42.975 52.627 42.455C52.657 42.265 52.677 42.065 52.717 41.875C52.747 41.685 52.787 41.485 52.827 41.285C52.857 41.135 52.887 40.995 52.917 40.845C52.947 40.695 52.987 40.555 53.017 40.405C53.027 40.355 53.057 40.325 53.117 40.315C53.197 40.285 53.277 40.295 53.367 40.325C53.447 40.355 53.517 40.415 53.547 40.495C53.577 40.565 53.617 40.645 53.637 40.715C53.657 40.795 53.677 40.875 53.687 40.955C53.687 41.025 53.697 41.105 53.707 41.175C53.717 41.245 53.717 41.325 53.717 41.395C53.717 41.485 53.717 41.585 53.707 41.675C53.697 41.775 53.697 41.865 53.687 41.965C53.687 42.115 53.667 42.265 53.647 42.415C53.617 42.555 53.617 42.715 53.637 42.885Z" fill="white"/>
<path d="M63.8702 44.09C63.8402 44.28 63.8202 44.47 63.8002 44.63C63.7702 44.79 63.7302 44.94 63.6802 45.08C63.6302 45.2 63.5802 45.32 63.5302 45.45C63.4802 45.57 63.4102 45.69 63.3402 45.8C63.2702 45.91 63.1902 46.01 63.1102 46.11C63.0302 46.21 62.9502 46.32 62.8702 46.42C62.7902 46.52 62.6902 46.61 62.5802 46.68C62.4702 46.75 62.3602 46.82 62.2502 46.88C62.2402 46.89 62.2302 46.89 62.2202 46.89C62.2102 46.89 62.2002 46.89 62.2002 46.9C62.0402 47 61.8802 47.06 61.7102 47.07C61.5402 47.08 61.3602 47.08 61.1802 47.06C61.1002 47.05 61.0302 47.04 60.9502 47.01C60.8702 46.99 60.8002 46.96 60.7302 46.94C60.3602 46.82 60.0602 46.64 59.8402 46.4C59.6202 46.16 59.4602 45.86 59.3502 45.53C59.2502 45.23 59.2002 44.93 59.2002 44.63C59.2002 44.33 59.2302 44.03 59.3002 43.73C59.3502 43.51 59.4102 43.29 59.4902 43.07C59.5602 42.86 59.6602 42.65 59.7602 42.44C59.9102 42.14 60.1002 41.86 60.3102 41.6C60.5202 41.35 60.7702 41.12 61.0702 40.93C61.4602 40.68 61.8902 40.57 62.3602 40.6C62.5802 40.61 62.7802 40.67 62.9402 40.78C63.1102 40.89 63.2502 41.03 63.3702 41.21C63.5102 41.41 63.6102 41.63 63.6702 41.86C63.7302 42.09 63.7802 42.32 63.8102 42.55C63.8302 42.69 63.8402 42.84 63.8502 42.98C63.8602 43.12 63.8602 43.27 63.8702 43.41C63.8802 43.53 63.8902 43.66 63.8902 43.78C63.8902 43.91 63.8802 44.01 63.8702 44.09ZM60.6602 44.37C60.6402 44.52 60.6502 44.7 60.6802 44.91C60.7102 45.12 60.7802 45.33 60.8902 45.53C61.0102 45.75 61.1602 45.92 61.3602 46.04C61.5502 46.16 61.7902 46.23 62.0402 46.23C62.1002 46.23 62.1702 46.22 62.2302 46.21C62.2902 46.19 62.3502 46.18 62.4102 46.16C62.5302 46.12 62.6302 46.05 62.7002 45.96C62.7702 45.87 62.8502 45.78 62.9102 45.68C63.0202 45.52 63.1002 45.35 63.1502 45.17C63.2002 44.99 63.2502 44.81 63.2902 44.63C63.3202 44.47 63.3502 44.32 63.3602 44.16C63.3802 44 63.3702 43.84 63.3602 43.69C63.3502 43.58 63.3402 43.47 63.3302 43.35C63.3202 43.24 63.3102 43.13 63.3002 43.02C63.2802 42.86 63.2502 42.7 63.2202 42.55C63.1802 42.39 63.1302 42.24 63.0602 42.1C62.9902 41.97 62.9202 41.84 62.8302 41.73C62.7402 41.62 62.6202 41.52 62.4802 41.45C62.3602 41.39 62.2602 41.37 62.1702 41.38C62.0902 41.39 62.0002 41.45 61.9002 41.54C61.6402 41.8 61.4102 42.11 61.2302 42.44C61.0802 42.72 60.9602 43.02 60.8602 43.33C60.7902 43.63 60.7102 43.99 60.6602 44.37Z" fill="white"/>
<path d="M64.2551 44.1959C64.3551 44.2959 64.4351 44.4059 64.5151 44.5059C64.5951 44.6059 64.6351 44.7359 64.6551 44.8759C64.6651 44.9959 64.6851 45.1259 64.7051 45.2459C64.7251 45.3659 64.7751 45.4759 64.8451 45.5959C64.8851 45.6659 64.9351 45.7259 64.9851 45.7759C65.0351 45.8259 65.0851 45.8859 65.1451 45.9359C65.1951 45.9759 65.2551 46.0059 65.3151 46.0259C65.3751 46.0459 65.4451 46.0559 65.5051 46.0559C65.5551 46.0559 65.6051 46.0359 65.6451 46.0159C65.7051 45.9759 65.7551 45.9259 65.8051 45.8759C65.8551 45.8259 65.8951 45.7659 65.9251 45.6959C66.0051 45.5059 66.0551 45.3059 66.0851 45.1059C66.1151 44.9059 66.0951 44.7059 66.0551 44.4959C66.0251 44.3659 65.9951 44.2459 65.9451 44.1259C65.8951 44.0059 65.8351 43.8959 65.7651 43.7859C65.6951 43.6559 65.6151 43.5359 65.5351 43.4159C65.4551 43.2959 65.3851 43.1659 65.3251 43.0359C65.2451 42.8759 65.1751 42.7259 65.1151 42.5659C65.0551 42.4059 65.0051 42.2359 64.9851 42.0659C64.9651 41.9359 64.9651 41.8059 64.9851 41.6759C65.0051 41.5459 65.0451 41.4259 65.1051 41.3059C65.1651 41.1859 65.2351 41.0759 65.3251 40.9759C65.4151 40.8759 65.5251 40.7959 65.6451 40.7259C65.6851 40.7059 65.7151 40.6859 65.7551 40.6759C65.7951 40.6559 65.8251 40.6359 65.8651 40.6259C65.9651 40.5759 66.0751 40.5459 66.1951 40.5459C66.3151 40.5459 66.4251 40.5559 66.5351 40.5859C66.6451 40.6159 66.7451 40.6659 66.8451 40.7259C66.9351 40.7859 67.0251 40.8559 67.0851 40.9259C67.2251 41.0859 67.3551 41.2559 67.4651 41.4459C67.5051 41.5159 67.5451 41.5859 67.5651 41.6559C67.5951 41.7259 67.6251 41.8059 67.6451 41.8759C67.6651 41.9259 67.6751 41.9759 67.6951 42.0159C67.7051 42.0559 67.7251 42.1059 67.7451 42.1559C67.7651 42.2159 67.7551 42.2759 67.7051 42.3259C67.6951 42.3459 67.6751 42.3659 67.6551 42.3759C67.6351 42.3859 67.6151 42.3859 67.5851 42.3759C67.5351 42.3659 67.4951 42.3259 67.4951 42.2759C67.4951 42.2359 67.4851 42.1959 67.4851 42.1559C67.4851 42.1159 67.4751 42.0759 67.4651 42.0459C67.4151 41.9059 67.3551 41.7759 67.2851 41.6559C67.2051 41.5359 67.1051 41.4259 66.9851 41.3359C66.9351 41.2959 66.8751 41.2659 66.8151 41.2459C66.7551 41.2259 66.6851 41.1959 66.6351 41.1759C66.5951 41.1659 66.5551 41.1659 66.5151 41.1659C66.4751 41.1759 66.4351 41.1959 66.4051 41.2259C66.3151 41.3159 66.2351 41.4059 66.1751 41.5059C66.1151 41.6059 66.0751 41.7159 66.0551 41.8359C66.0451 41.8959 66.0451 41.9559 66.0651 42.0059C66.0751 42.0659 66.0951 42.1159 66.1151 42.1659C66.1851 42.3459 66.2651 42.5159 66.3551 42.6759C66.4451 42.8359 66.5351 43.0059 66.6351 43.1659C66.7151 43.2859 66.7851 43.4059 66.8551 43.5359C66.9251 43.6659 66.9851 43.7859 67.0451 43.9259C67.2051 44.2759 67.2851 44.6559 67.2751 45.0359C67.2651 45.2359 67.2451 45.4359 67.2151 45.6259C67.1751 45.8159 67.1151 46.0059 67.0451 46.1859C66.9651 46.3959 66.8451 46.5859 66.6951 46.7459C66.5451 46.8959 66.3551 47.0059 66.1051 47.0859C66.0051 47.1159 65.9051 47.1259 65.8051 47.1259C65.7051 47.1259 65.6051 47.1059 65.5051 47.0959C65.1851 47.0459 64.9151 46.9159 64.6751 46.7359C64.5851 46.6559 64.4951 46.5759 64.4251 46.4859C64.3451 46.3959 64.2751 46.3059 64.2151 46.2159C64.0551 45.9759 63.9551 45.7159 63.9051 45.4359C63.8851 45.3159 63.8851 45.2059 63.9051 45.0959C63.9251 44.9859 63.9651 44.8759 64.0051 44.7759C64.0451 44.6859 64.0851 44.5959 64.1351 44.5159C64.1651 44.3759 64.2151 44.2959 64.2551 44.1959Z" fill="white"/>
<path d="M68.8249 43.0701C68.8649 42.9901 68.8949 42.9101 68.9249 42.8401C68.9549 42.7701 68.9849 42.7001 69.0249 42.6301C69.0949 42.4901 69.1749 42.3401 69.2449 42.2001C69.3149 42.0601 69.3949 41.9101 69.4849 41.7801C69.5549 41.6701 69.6349 41.5801 69.7349 41.5001C69.8349 41.4201 69.9549 41.3601 70.0749 41.3201C70.1749 41.2901 70.2749 41.2901 70.3849 41.3401C70.4349 41.3601 70.4749 41.3901 70.5249 41.4101C70.5649 41.4301 70.6149 41.4501 70.6549 41.4801C70.7149 41.5101 70.7549 41.5501 70.7849 41.6001C70.8149 41.6501 70.8449 41.7001 70.8849 41.7501C71.1149 42.1401 71.2249 42.5501 71.2049 42.9901C71.2049 43.0601 71.2049 43.1301 71.1949 43.2101C71.1949 43.2801 71.1949 43.3501 71.1949 43.4301C71.1949 43.4401 71.1949 43.4601 71.2149 43.5101C71.2549 43.4301 71.2849 43.3501 71.3249 43.2701C71.3549 43.1901 71.3849 43.1201 71.4249 43.0501C71.5349 42.8101 71.6549 42.5801 71.7749 42.3601C71.8949 42.1401 72.0449 41.9201 72.2149 41.7101C72.3249 41.5701 72.4549 41.4501 72.5849 41.3401C72.7249 41.2301 72.8749 41.1401 73.0349 41.0601C73.1449 41.0001 73.2649 40.9801 73.3849 40.9701C73.5049 40.9701 73.6249 40.9801 73.7449 41.0201C73.8049 41.0401 73.8649 41.0801 73.9049 41.1201C73.9449 41.1701 73.9849 41.2201 74.0149 41.2801C74.2049 41.6301 74.3149 42.0001 74.3249 42.3801C74.3349 42.5401 74.3349 42.7001 74.3449 42.8601C74.3549 43.0201 74.3649 43.1801 74.3649 43.3401C74.3649 43.5301 74.3649 43.7301 74.3549 43.9201C74.3449 44.1101 74.3149 44.3001 74.2849 44.4901C74.2549 44.6801 74.2349 44.8801 74.2249 45.0701C74.2149 45.2601 74.2149 45.4701 74.2149 45.6601C74.2149 45.7601 74.2249 45.8601 74.2249 45.9501C74.2249 46.0501 74.2249 46.1501 74.2349 46.2401C74.2349 46.2701 74.2349 46.2901 74.2449 46.3201C74.2449 46.3501 74.2549 46.3701 74.2549 46.4001C74.2649 46.4401 74.2649 46.4801 74.2649 46.5101C74.2649 46.5501 74.2449 46.5901 74.2149 46.6201C74.1949 46.6401 74.1749 46.6701 74.1649 46.7001C74.1549 46.7301 74.1449 46.7601 74.1349 46.7901C74.1149 46.8401 74.0849 46.8901 74.0549 46.9301C74.0149 46.9701 73.9749 47.0001 73.9349 47.0101C73.8749 47.0301 73.8049 47.0501 73.7349 47.0701C73.6649 47.0901 73.5949 47.0901 73.5249 47.0701C73.4549 47.0501 73.4049 47.0001 73.3849 46.9201C73.3449 46.7801 73.3149 46.6401 73.2949 46.4901C73.2749 46.3501 73.2549 46.2001 73.2649 46.0501C73.2649 45.9401 73.2749 45.8301 73.2749 45.7201C73.2749 45.6101 73.2849 45.5001 73.2949 45.3901C73.3049 45.2501 73.3249 45.1001 73.3449 44.9601C73.3649 44.8201 73.3749 44.6701 73.3949 44.5301C73.4049 44.4401 73.4149 44.3501 73.4149 44.2601C73.4149 44.1701 73.4249 44.0801 73.4349 43.9901C73.4449 43.8901 73.4649 43.7901 73.4849 43.6901C73.5049 43.5901 73.5249 43.4901 73.5349 43.3901C73.5549 43.2601 73.5749 43.1201 73.5949 42.9901C73.6149 42.8601 73.6349 42.7301 73.6549 42.5901C73.6649 42.4701 73.6749 42.3501 73.6849 42.2201C73.6949 42.1001 73.7049 41.9701 73.7149 41.8501C73.7249 41.7301 73.7249 41.6201 73.6949 41.5201C73.6849 41.4801 73.6549 41.4601 73.6149 41.4601C73.5649 41.4601 73.5249 41.4701 73.4749 41.4801C73.4349 41.4901 73.3849 41.5101 73.3449 41.5301C73.1549 41.6301 72.9949 41.7601 72.8649 41.9101C72.7349 42.0601 72.6049 42.2201 72.4949 42.4001C72.4149 42.5301 72.3349 42.6601 72.2649 42.7901C72.1949 42.9201 72.1249 43.0601 72.0449 43.2001C71.9949 43.3001 71.9449 43.4001 71.9049 43.5001C71.8649 43.6001 71.8249 43.7101 71.7849 43.8101C71.7349 43.9601 71.6849 44.1001 71.6349 44.2501C71.5849 44.3901 71.5449 44.5401 71.5049 44.6901C71.4749 44.8001 71.4449 44.9201 71.4349 45.0301C71.4149 45.1401 71.4049 45.2601 71.3849 45.3701C71.3649 45.5501 71.3349 45.7401 71.3149 45.9201C71.2949 46.1001 71.2649 46.2901 71.2449 46.4701C71.2349 46.5701 71.1949 46.6701 71.1449 46.7501C71.0949 46.8401 71.0149 46.9101 70.9049 46.9601C70.8749 46.9801 70.8449 46.9901 70.8149 47.0101C70.7849 47.0301 70.7549 47.0501 70.7349 47.0701C70.7249 47.0801 70.7149 47.0801 70.7049 47.0901C70.6949 47.0901 70.6849 47.0901 70.6749 47.1001C70.6049 47.1201 70.5249 47.1101 70.4349 47.0701C70.3449 47.0301 70.2749 46.9801 70.2449 46.9201C70.1949 46.8301 70.1549 46.7401 70.1349 46.6501C70.1149 46.5601 70.1049 46.4601 70.0949 46.3701C70.0749 46.2201 70.0649 46.0701 70.0549 45.9201C70.0449 45.7701 70.0549 45.6201 70.0549 45.4701C70.0549 45.4501 70.0549 45.4201 70.0549 45.3901C70.0549 45.3601 70.0549 45.3301 70.0449 45.3001C70.0449 45.2701 70.0449 45.2401 70.0449 45.2101C70.0449 45.1801 70.0549 45.1601 70.0849 45.1301C70.0849 45.1201 70.0949 45.1101 70.0949 45.0901C70.0949 45.0401 70.0849 44.9901 70.0849 44.9401C70.0849 44.8901 70.0749 44.8401 70.0849 44.8001C70.0849 44.7401 70.0949 44.6701 70.1049 44.6101C70.1149 44.5501 70.1149 44.4701 70.1149 44.4101C70.1149 44.3901 70.1249 44.3701 70.1149 44.3401C70.1149 44.3101 70.1149 44.2901 70.1149 44.2601C70.1549 43.9901 70.1749 43.8601 70.2049 43.6001C70.2149 43.5101 70.2349 43.4201 70.2449 43.3401C70.2549 43.2501 70.2749 43.1701 70.2849 43.0801C70.3049 42.9701 70.3249 42.8601 70.3349 42.7501C70.3549 42.6401 70.3749 42.5301 70.3849 42.4201C70.3949 42.3201 70.4049 42.2301 70.4049 42.1401C70.4049 42.0501 70.3949 41.9501 70.3549 41.8501C70.2749 41.9101 70.2049 41.9701 70.1449 42.0301C70.0849 42.0901 70.0249 42.1601 69.9749 42.2501C69.9449 42.3001 69.9149 42.3501 69.8749 42.3901C69.8349 42.4401 69.8049 42.4901 69.7649 42.5401C69.6949 42.6501 69.6449 42.7601 69.5949 42.8701C69.5449 42.9801 69.5049 43.1001 69.4649 43.2201C69.4249 43.3301 69.3849 43.4301 69.3549 43.5401C69.3249 43.6501 69.2849 43.7601 69.2449 43.8601C69.1849 44.0301 69.1349 44.2101 69.0949 44.3801C69.0549 44.5501 69.0249 44.7301 69.0149 44.9201C69.0149 45.0001 69.0049 45.0801 68.9849 45.1601C68.9749 45.2401 68.9649 45.3201 68.9549 45.4001C68.9449 45.5301 68.9449 45.6601 68.9449 45.7901C68.9449 45.9201 68.9449 46.0501 68.9449 46.1701C68.9449 46.2401 68.9449 46.3201 68.9349 46.3901C68.9249 46.4601 68.9249 46.5401 68.9249 46.6101C68.9249 46.6401 68.9249 46.6701 68.9249 46.6901C68.9249 46.7201 68.9149 46.7501 68.9149 46.7801C68.9149 46.8501 68.9049 46.9101 68.8749 46.9601C68.8549 47.0101 68.8249 47.0401 68.7949 47.0601C68.7549 47.0801 68.7149 47.1001 68.6649 47.1101C68.6149 47.1201 68.5649 47.1301 68.5149 47.1301C68.4649 47.1301 68.4149 47.1201 68.3749 47.1201C68.3449 47.1201 68.3149 47.1101 68.2849 47.1001C68.2549 47.0901 68.2349 47.0701 68.2049 47.0601C68.1749 47.0401 68.1449 47.0301 68.1249 47.0201C68.1149 47.0101 68.0949 46.9801 68.0749 46.9501C68.0049 46.8501 67.9649 46.7401 67.9449 46.6301C67.9349 46.5601 67.9149 46.4801 67.9149 46.4101C67.9049 46.3401 67.8949 46.2701 67.8849 46.2001C67.8649 46.0501 67.8549 45.9001 67.8449 45.7501C67.8349 45.6001 67.8149 45.4501 67.8049 45.3001C67.7949 45.1401 67.7749 44.9801 67.7649 44.8201C67.7549 44.6601 67.7549 44.5001 67.7549 44.3401C67.7549 43.8101 67.7549 43.2701 67.7749 42.7401C67.7849 42.5401 67.7849 42.3401 67.8049 42.1501C67.8149 41.9501 67.8349 41.7601 67.8549 41.5501C67.8649 41.4001 67.8849 41.2601 67.9049 41.1101C67.9249 40.9601 67.9449 40.8101 67.9549 40.6701C67.9549 40.6201 67.9849 40.5901 68.0349 40.5701C68.1149 40.5401 68.1949 40.5301 68.2849 40.5601C68.3749 40.5801 68.4349 40.6401 68.4849 40.7101C68.5249 40.7801 68.5649 40.8501 68.5949 40.9201C68.6249 40.9901 68.6549 41.0701 68.6649 41.1501C68.6749 41.2201 68.6849 41.2901 68.7049 41.3601C68.7249 41.4301 68.7349 41.5101 68.7349 41.5801C68.7449 41.6701 68.7549 41.7701 68.7549 41.8601C68.7549 41.9601 68.7649 42.0501 68.7649 42.1501C68.7749 42.3001 68.7749 42.4501 68.7649 42.6101C68.7749 42.7501 68.7849 42.9101 68.8249 43.0701Z" fill="white"/>
<path d="M77.1047 42.9155C77.0847 42.9655 77.0547 43.0055 77.0447 43.0555C77.0247 43.0955 77.0047 43.1455 76.9847 43.1955C76.9247 43.3855 76.8547 43.5755 76.8047 43.7655C76.7447 43.9555 76.6847 44.1455 76.6247 44.3355C76.5847 44.4555 76.5447 44.5755 76.5047 44.6955C76.4647 44.8155 76.4247 44.9355 76.3647 45.0455C76.3047 45.1555 76.2347 45.2555 76.1547 45.3355C76.0747 45.4155 75.9747 45.4855 75.8547 45.5255C75.8347 45.5355 75.8147 45.5455 75.7947 45.5655C75.7747 45.5855 75.7547 45.5955 75.7247 45.6055C75.6447 45.6455 75.5747 45.6755 75.4947 45.7055C75.4247 45.7255 75.3347 45.7355 75.2547 45.7155C75.1147 45.6855 74.9847 45.6255 74.8947 45.5155C74.8247 45.4255 74.7547 45.3355 74.7047 45.2355C74.6547 45.1355 74.6147 45.0355 74.5747 44.9255C74.5247 44.7555 74.4947 44.5955 74.4647 44.4255C74.4447 44.2555 74.4247 44.0855 74.4147 43.9155C74.4047 43.7655 74.3947 43.6055 74.3847 43.4555C74.3747 43.2955 74.3747 43.1455 74.3647 42.9955C74.3647 42.8355 74.3647 42.6755 74.3847 42.5155C74.4047 42.3555 74.4147 42.1955 74.4247 42.0355C74.4347 41.8455 74.4547 41.6555 74.4747 41.4755C74.4947 41.2955 74.5147 41.0955 74.5347 40.9155C74.5447 40.8455 74.5747 40.7755 74.6147 40.7055C74.6647 40.6355 74.7247 40.5955 74.8147 40.5855C74.8447 40.5755 74.8747 40.5655 74.9047 40.5655C74.9347 40.5555 74.9647 40.5455 74.9947 40.5455C75.1447 40.5355 75.2547 40.5955 75.3247 40.7255C75.3547 40.7855 75.3747 40.8355 75.4047 40.8955C75.4247 40.9555 75.4347 41.0155 75.4347 41.0855C75.4347 41.1655 75.4347 41.2455 75.4547 41.3255C75.4747 41.4055 75.4847 41.4855 75.4947 41.5655C75.5047 41.6255 75.5047 41.6855 75.5147 41.7555C75.5147 41.8155 75.5247 41.8855 75.5247 41.9355C75.5347 42.1155 75.5347 42.2855 75.5347 42.4655C75.5347 42.6455 75.5347 42.8155 75.5447 42.9955C75.5547 43.1055 75.5547 43.2155 75.5547 43.3155C75.5547 43.4155 75.5647 43.5255 75.5647 43.6355C75.5647 43.7155 75.5647 43.8055 75.5747 43.8955C75.5747 43.9855 75.5847 44.0755 75.5947 44.1655C75.6147 44.2855 75.6147 44.4155 75.6047 44.5355C75.5947 44.6555 75.6147 44.7855 75.6447 44.9055C75.6547 44.9655 75.6847 45.0255 75.7047 45.0755C75.7447 45.1355 75.7747 45.1355 75.8247 45.0755C75.8547 45.0355 75.8747 44.9955 75.9047 44.9455C75.9247 44.9055 75.9447 44.8555 75.9647 44.8155C76.0047 44.6755 76.0347 44.5455 76.0747 44.4155C76.1147 44.2855 76.1447 44.1455 76.1847 44.0155C76.2347 43.8455 76.2847 43.6755 76.3347 43.5055C76.3847 43.3355 76.4347 43.1655 76.4847 42.9955C76.5247 42.8855 76.5747 42.7755 76.6247 42.6655C76.6747 42.5555 76.7247 42.4555 76.7747 42.3355C76.7947 42.2855 76.8247 42.2255 76.8547 42.1755C76.8847 42.1255 76.9047 42.0755 76.9347 42.0155C77.0347 41.7955 77.1747 41.5855 77.3447 41.3855C77.3747 41.3555 77.4047 41.3155 77.4247 41.2755C77.4747 41.1555 77.5647 41.0955 77.6947 41.0955C77.7647 41.0955 77.8247 41.0955 77.8947 41.0955C77.9647 41.0955 78.0247 41.0955 78.0947 41.1055C78.1547 41.1055 78.1947 41.1255 78.2147 41.1455C78.2347 41.1655 78.2547 41.2055 78.2747 41.2555C78.2947 41.3155 78.3047 41.3755 78.2947 41.4255C78.2947 41.4755 78.2947 41.5355 78.2947 41.5955C78.2947 41.6855 78.2947 41.7855 78.3047 41.8755C78.3147 41.9655 78.3147 42.0655 78.3047 42.1655C78.2947 42.3555 78.2847 42.5455 78.2647 42.7355C78.2447 42.9255 78.2347 43.1155 78.2147 43.3055C78.2047 43.4355 78.1947 43.5555 78.1947 43.6855C78.1947 43.8155 78.1847 43.9455 78.1747 44.0655C78.1647 44.1455 78.1647 44.2355 78.1647 44.3155C78.1647 44.3955 78.1547 44.4855 78.1547 44.5655C78.1547 44.6455 78.1447 44.7255 78.1447 44.8055C78.1347 44.8855 78.1447 44.9655 78.1447 45.0455C78.1547 45.1855 78.1547 45.3255 78.1647 45.4655C78.1747 45.6055 78.1847 45.7555 78.1847 45.8955C78.1847 45.9355 78.1847 45.9855 78.1947 46.0255C78.1947 46.0655 78.2047 46.1155 78.2247 46.1555C78.2447 46.2255 78.2547 46.2855 78.2547 46.3555C78.2547 46.4155 78.2547 46.4855 78.2447 46.5555C78.2447 46.5755 78.2347 46.5955 78.2347 46.6255C78.2347 46.6455 78.2147 46.6655 78.1947 46.6955C78.1747 46.7155 78.1547 46.7455 78.1347 46.7755C78.1147 46.8055 78.0947 46.8355 78.0747 46.8655C78.0647 46.8755 78.0547 46.8855 78.0547 46.8955C78.0447 46.9055 78.0447 46.9155 78.0347 46.9255C77.9647 46.9855 77.8947 47.0355 77.8147 47.0755C77.7347 47.1155 77.6547 47.1355 77.5447 47.1255C77.4147 47.1155 77.3047 47.0655 77.2447 46.9655C77.2247 46.9355 77.2047 46.8955 77.1847 46.8555C77.1647 46.8155 77.1547 46.7755 77.1347 46.7355C77.0647 46.5255 77.0247 46.3155 76.9947 46.1155C76.9647 45.9055 76.9547 45.6955 76.9547 45.4755C76.9547 45.1655 76.9647 44.8455 76.9747 44.5455C76.9847 44.2355 77.0047 43.9255 77.0447 43.6155C77.0547 43.5155 77.0747 43.4255 77.0947 43.3355C77.1147 43.2455 77.1247 43.1555 77.1447 43.0555C77.1547 43.0355 77.1547 43.0055 77.1547 42.9855C77.1547 42.9555 77.1647 42.9355 77.1647 42.9155C77.1247 42.9155 77.1247 42.9155 77.1047 42.9155C77.1147 42.9155 77.1147 42.9155 77.1047 42.9155Z" fill="white"/>
<path d="M82.4739 41.9559C82.4239 41.9659 82.3839 41.9759 82.3539 41.9759C82.3239 41.9759 82.3039 41.9759 82.2839 41.9659C82.2639 41.9559 82.2539 41.9459 82.2339 41.9259C82.2239 41.9059 82.2039 41.8759 82.1839 41.8359C82.1739 41.8159 82.1639 41.8059 82.1539 41.7959C82.0439 41.7059 81.9339 41.6159 81.8239 41.5359C81.7139 41.4559 81.5839 41.3959 81.4439 41.3659C81.3939 41.3559 81.3539 41.3459 81.3039 41.3459C81.2539 41.3459 81.2039 41.3459 81.1639 41.3459C81.1439 41.3459 81.1039 41.3459 81.0539 41.3559C81.0039 41.3659 80.9639 41.3759 80.9139 41.3859C80.8639 41.3959 80.8239 41.4159 80.7839 41.4259C80.7439 41.4459 80.7239 41.4559 80.7039 41.4759C80.5239 41.7359 80.3539 42.0059 80.2039 42.2759C80.0539 42.5459 79.9539 42.8459 79.9039 43.1659C79.8539 43.4559 79.8139 43.7459 79.7839 44.0259C79.7539 44.3059 79.7739 44.6059 79.8039 44.8959C79.8239 45.0459 79.8439 45.1959 79.8639 45.3359C79.8839 45.4759 79.9539 45.6059 80.0639 45.7259C80.1139 45.7759 80.1539 45.8259 80.2039 45.8659C80.2439 45.9059 80.2939 45.9559 80.3539 45.9959C80.3739 46.0159 80.4139 46.0259 80.4739 46.0259C80.5339 46.0359 80.5939 46.0359 80.6639 46.0359C80.7339 46.0359 80.7939 46.0259 80.8539 46.0159C80.9139 46.0059 80.9539 45.9959 80.9739 45.9859C81.0639 45.9359 81.1439 45.8659 81.2139 45.7959C81.2839 45.7259 81.3439 45.6459 81.4039 45.5559C81.4439 45.4959 81.4739 45.4259 81.5039 45.3659C81.5339 45.2959 81.5639 45.2259 81.6039 45.1659C81.6439 45.0959 81.6739 45.0159 81.7039 44.9459C81.7339 44.8759 81.7839 44.8159 81.8539 44.7559C81.9039 44.7159 81.9539 44.7059 82.0039 44.7159C82.0539 44.7259 82.0939 44.7659 82.1139 44.8159C82.1339 44.8659 82.1439 44.9159 82.1539 44.9659C82.1639 45.0159 82.1539 45.0759 82.1339 45.1259C82.0839 45.2759 82.0439 45.4259 81.9839 45.5659C81.9339 45.7159 81.8739 45.8559 81.7939 45.9859C81.7139 46.1359 81.6139 46.2759 81.5039 46.4059C81.3939 46.5359 81.2639 46.6559 81.1239 46.7559C80.7839 47.0059 80.4339 47.1159 80.0839 47.1059C79.7339 47.0959 79.3939 46.9459 79.0739 46.6559C78.8439 46.4559 78.6739 46.2259 78.5639 45.9659C78.4539 45.7159 78.3739 45.4359 78.3439 45.1459C78.3039 44.8259 78.3039 44.5059 78.3339 44.1959C78.3639 43.8859 78.4239 43.5659 78.4939 43.2559C78.5539 43.0259 78.6139 42.8059 78.6839 42.5859C78.7539 42.3659 78.8439 42.1459 78.9539 41.9459C79.1439 41.5859 79.3739 41.2959 79.6539 41.0559C79.9339 40.8159 80.2839 40.6559 80.6939 40.5859C80.7839 40.5659 80.8739 40.5659 80.9639 40.5659C81.0639 40.5659 81.1539 40.5759 81.2439 40.5859C81.4039 40.6059 81.5539 40.6359 81.7039 40.6859C81.8539 40.7359 81.9939 40.8059 82.1239 40.9059C82.1939 40.9659 82.2539 41.0259 82.3239 41.0859C82.3939 41.1459 82.4539 41.2159 82.4839 41.2859C82.5439 41.3959 82.5639 41.5059 82.5739 41.6259C82.6039 41.7359 82.5639 41.8459 82.4739 41.9559Z" fill="white"/>
<path d="M84.1535 46.4517C84.1635 46.3717 84.1635 46.2817 84.1735 46.2017C84.1835 46.1217 84.1935 46.0317 84.1935 45.9517C84.2035 45.7917 84.2235 45.6217 84.2335 45.4517C84.2435 45.2817 84.2535 45.1217 84.2835 44.9517C84.3035 44.7817 84.3335 44.6017 84.3635 44.4317C84.3935 44.2617 84.4235 44.0817 84.4635 43.9117C84.5035 43.7217 84.5535 43.5417 84.6135 43.3617C84.6735 43.1817 84.7535 43.0117 84.8435 42.8417C84.9035 42.7317 84.9635 42.6317 85.0335 42.5217C85.0935 42.4217 85.1835 42.3317 85.2735 42.2417C85.3035 42.2117 85.3435 42.1817 85.3735 42.1517C85.4135 42.1217 85.4435 42.1017 85.4835 42.0717C85.5335 42.0417 85.5835 42.0217 85.6335 42.0217C85.6835 42.0217 85.7435 42.0217 85.7935 42.0317C85.8935 42.0517 85.9835 42.0717 86.0635 42.1117C86.1535 42.1517 86.2335 42.2017 86.3135 42.2517C86.3535 42.2717 86.3735 42.2817 86.3735 42.2917C86.4235 42.3717 86.4735 42.4417 86.5235 42.5217C86.5735 42.5917 86.6135 42.6717 86.6435 42.7617C86.6835 42.8717 86.7135 42.9817 86.7435 43.0917C86.7635 43.2017 86.7935 43.3117 86.8235 43.4217C86.8335 43.4817 86.8535 43.5517 86.8535 43.6217C86.8635 43.6917 86.8735 43.7517 86.8935 43.8117C86.9335 43.9517 86.9535 44.0917 86.9435 44.2317C86.9335 44.3717 86.9435 44.5117 86.9735 44.6517C86.9835 44.6717 86.9835 44.7017 86.9835 44.7317C86.9835 44.7617 86.9735 44.7917 86.9835 44.8217C86.9935 44.9217 87.0035 45.0217 87.0035 45.1217C87.0135 45.2217 87.0235 45.3217 87.0335 45.4217C87.0535 45.5817 87.0735 45.7417 87.1035 45.9117C87.1335 46.0817 87.1535 46.2417 87.1835 46.4017C87.2035 46.5617 87.2235 46.7217 87.2435 46.8817C87.2635 47.0417 87.2835 47.2017 87.3135 47.3617C87.3235 47.4217 87.3435 47.4817 87.3635 47.5317C87.3935 47.5817 87.4135 47.6417 87.4335 47.7017C87.4535 47.7417 87.4635 47.8017 87.4635 47.8517C87.4635 47.9017 87.4635 47.9517 87.4535 48.0017C87.4435 48.0517 87.4335 48.1017 87.4135 48.1517C87.3835 48.2617 87.3035 48.3017 87.1935 48.2817C86.8435 48.2117 86.5935 48.0417 86.4335 47.7617C86.2835 47.5117 86.1735 47.2617 86.0835 46.9917C86.0035 46.7317 85.9335 46.4517 85.9035 46.1817C85.8535 45.8417 85.8135 45.5017 85.7935 45.1617C85.7635 44.8217 85.7635 44.4717 85.7635 44.1317C85.7735 43.9317 85.7635 43.7317 85.7435 43.5417C85.7235 43.3417 85.7035 43.1517 85.6835 42.9517C85.6835 42.9317 85.6835 42.9217 85.6735 42.9017C85.6635 42.8917 85.6535 42.8617 85.6435 42.8317C85.6035 42.8917 85.5735 42.9517 85.5435 43.0017C85.5135 43.0517 85.4835 43.1017 85.4735 43.1517C85.3835 43.3417 85.3135 43.5317 85.2535 43.7217C85.1835 43.9117 85.1335 44.1117 85.1035 44.3117C85.0935 44.3817 85.0735 44.4517 85.0535 44.5317C85.0335 44.6017 85.0135 44.6817 85.0035 44.7517C84.9835 44.8317 84.9635 44.9217 84.9535 45.0117C84.9435 45.1017 84.9235 45.1917 84.9135 45.2717C84.8735 45.4917 84.8435 45.7117 84.8135 45.9217C84.7935 46.1217 84.7635 46.3217 84.7435 46.5217C84.7235 46.7217 84.7035 46.9217 84.6835 47.1217C84.6735 47.2317 84.6535 47.3517 84.6335 47.4617C84.6135 47.5717 84.5835 47.6817 84.5435 47.7917C84.5035 47.8917 84.4535 47.9817 84.3835 48.0617C84.3135 48.1417 84.2335 48.2117 84.1535 48.2817C84.1035 48.3217 84.0535 48.3617 83.9935 48.4017C83.9335 48.4317 83.8735 48.4717 83.8135 48.5017C83.7335 48.5417 83.6635 48.5517 83.6035 48.5417C83.5435 48.5217 83.4935 48.4817 83.4335 48.4117C83.3635 48.3317 83.3135 48.2317 83.2635 48.1417C83.2135 48.0417 83.1835 47.9417 83.1635 47.8417C83.1335 47.7017 83.1135 47.5717 83.0935 47.4417C83.0735 47.3117 83.0535 47.1717 83.0335 47.0417C83.0235 46.9517 83.0135 46.8517 82.9935 46.7617C82.9735 46.6717 82.9635 46.5717 82.9435 46.4817C82.8935 46.1717 82.8535 45.8617 82.8135 45.5517C82.7735 45.2417 82.7535 44.9317 82.7435 44.6117C82.7235 44.1117 82.7035 43.6117 82.6835 43.1117C82.6635 42.6117 82.6435 42.1117 82.6335 41.6117C82.6235 41.2517 82.6135 40.8917 82.6035 40.5417C82.6035 40.1917 82.5935 39.8317 82.5835 39.4717C82.5835 39.3917 82.6035 39.3217 82.6535 39.2517C82.7035 39.1917 82.7735 39.1417 82.8635 39.1317C82.9835 39.1117 83.1035 39.1517 83.2035 39.2117C83.2835 39.2617 83.3435 39.3217 83.3835 39.3917C83.4235 39.4617 83.4535 39.5417 83.4735 39.6217C83.5135 39.7717 83.5435 39.9317 83.5535 40.0917C83.5635 40.2517 83.5835 40.4017 83.5935 40.5617C83.6035 40.7017 83.6135 40.8517 83.6235 40.9817C83.6335 41.1217 83.6535 41.2617 83.6635 41.4017C83.6735 41.4817 83.6735 41.5617 83.6735 41.6417C83.6735 41.7217 83.6835 41.8017 83.6835 41.8817C83.6935 41.9617 83.6935 42.0317 83.7035 42.1117C83.7035 42.1917 83.7135 42.2617 83.7235 42.3417C83.7335 42.4717 83.7535 42.6017 83.7635 42.7317C83.7735 42.8617 83.7935 42.9917 83.8135 43.1217C83.8435 43.3017 83.8535 43.4717 83.8535 43.6517C83.8535 43.8217 83.8535 44.0017 83.8435 44.1817C83.8435 44.2517 83.8435 44.3217 83.8535 44.3917C83.8635 44.4617 83.8835 44.5417 83.8835 44.6117C83.8935 44.6917 83.8935 44.7717 83.9035 44.8517C83.9135 44.9317 83.9235 45.0117 83.9335 45.1017C83.9435 45.2117 83.9535 45.3317 83.9635 45.4417C83.9735 45.5517 83.9835 45.6717 83.9935 45.7917C84.0035 45.9017 84.0135 46.0017 84.0235 46.1017C84.0335 46.2017 84.0435 46.3117 84.0535 46.4117C84.0635 46.4317 84.0635 46.4517 84.0635 46.4717C84.0735 46.4917 84.0735 46.5117 84.0835 46.5317C84.1335 46.4617 84.1435 46.4617 84.1535 46.4517Z" fill="white"/>
<path d="M92.0272 43.687C92.0272 43.877 92.0472 44.067 92.0472 44.227C92.0472 44.387 92.0372 44.537 92.0072 44.687C91.9772 44.817 91.9572 44.947 91.9172 45.077C91.8872 45.207 91.8472 45.337 91.7972 45.457C91.7472 45.577 91.6872 45.697 91.6272 45.807C91.5672 45.927 91.5072 46.037 91.4472 46.157C91.3872 46.267 91.3072 46.377 91.2172 46.467C91.1272 46.557 91.0272 46.647 90.9272 46.727C90.9172 46.737 90.9072 46.747 90.9072 46.747C90.8972 46.747 90.8972 46.757 90.8872 46.767C90.7472 46.897 90.5972 46.977 90.4272 47.027C90.2572 47.077 90.0872 47.097 89.9072 47.107C89.8272 47.107 89.7572 47.107 89.6772 47.097C89.5972 47.087 89.5272 47.077 89.4472 47.067C89.0572 47.017 88.7372 46.897 88.4772 46.697C88.2172 46.497 88.0072 46.237 87.8372 45.927C87.6872 45.657 87.5872 45.367 87.5272 45.077C87.4672 44.787 87.4572 44.477 87.4672 44.177C87.4772 43.947 87.4972 43.717 87.5372 43.497C87.5772 43.277 87.6272 43.057 87.6972 42.837C87.7972 42.517 87.9272 42.207 88.0872 41.917C88.2472 41.627 88.4572 41.367 88.7172 41.127C89.0572 40.807 89.4672 40.627 89.9272 40.577C90.1472 40.547 90.3472 40.577 90.5272 40.647C90.7072 40.717 90.8772 40.837 91.0272 40.987C91.1972 41.167 91.3372 41.357 91.4372 41.567C91.5372 41.777 91.6272 41.997 91.6972 42.217C91.7472 42.357 91.7772 42.487 91.8172 42.627C91.8472 42.767 91.8772 42.907 91.9072 43.047C91.9372 43.167 91.9672 43.287 91.9872 43.407C92.0172 43.507 92.0272 43.607 92.0272 43.687ZM88.9272 44.527C88.9372 44.677 88.9772 44.857 89.0472 45.047C89.1172 45.247 89.2172 45.437 89.3672 45.627C89.5172 45.817 89.7072 45.957 89.9172 46.047C90.1272 46.127 90.3672 46.157 90.6272 46.117C90.6872 46.107 90.7472 46.087 90.8072 46.057C90.8672 46.037 90.9172 46.007 90.9772 45.977C91.0872 45.917 91.1772 45.827 91.2272 45.727C91.2872 45.627 91.3372 45.517 91.3872 45.407C91.4672 45.227 91.5172 45.047 91.5372 44.867C91.5572 44.677 91.5672 44.497 91.5772 44.307C91.5772 44.147 91.5772 43.987 91.5672 43.827C91.5572 43.667 91.5272 43.517 91.4772 43.367C91.4472 43.257 91.4172 43.147 91.3972 43.047C91.3772 42.937 91.3372 42.827 91.3072 42.727C91.2572 42.577 91.2072 42.417 91.1472 42.277C91.0872 42.127 91.0072 41.987 90.9072 41.857C90.8172 41.737 90.7172 41.627 90.6172 41.537C90.5072 41.447 90.3772 41.367 90.2272 41.317C90.0972 41.277 89.9872 41.277 89.9072 41.307C89.8272 41.337 89.7472 41.407 89.6672 41.517C89.4572 41.827 89.2872 42.157 89.1772 42.527C89.0772 42.827 89.0172 43.147 88.9772 43.467C88.9172 43.777 88.8972 44.147 88.9272 44.527Z" fill="white"/>
<path d="M96.5469 43.5533C96.5669 43.7433 96.5869 43.9333 96.6069 44.0933C96.6169 44.2533 96.6169 44.4033 96.5969 44.5633C96.5769 44.6933 96.5569 44.8233 96.5369 44.9533C96.5169 45.0833 96.4869 45.2133 96.4369 45.3433C96.3969 45.4633 96.3369 45.5833 96.2969 45.7033C96.2469 45.8233 96.1969 45.9433 96.1469 46.0633C96.0969 46.1833 96.0169 46.2933 95.9369 46.3833C95.8469 46.4833 95.7569 46.5733 95.6669 46.6633C95.6569 46.6733 95.6469 46.6833 95.6469 46.6833C95.6369 46.6833 95.6369 46.6933 95.6269 46.7033C95.4969 46.8433 95.3569 46.9333 95.1869 46.9933C95.0169 47.0533 94.8469 47.0833 94.6669 47.1133C94.5869 47.1233 94.5169 47.1233 94.4369 47.1233C94.3569 47.1233 94.2869 47.1133 94.2069 47.1133C93.8169 47.0933 93.4869 46.9833 93.2169 46.8033C92.9469 46.6233 92.7169 46.3733 92.5269 46.0733C92.3569 45.8133 92.2369 45.5333 92.1669 45.2433C92.0869 44.9533 92.0469 44.6533 92.0469 44.3433C92.0469 44.1133 92.0469 43.8833 92.0769 43.6633C92.0969 43.4433 92.1369 43.2133 92.1869 42.9933C92.2569 42.6633 92.3669 42.3433 92.5169 42.0433C92.6569 41.7433 92.8469 41.4633 93.0869 41.2133C93.4069 40.8733 93.7969 40.6633 94.2669 40.5733C94.4869 40.5333 94.6869 40.5433 94.8769 40.6033C95.0669 40.6633 95.2369 40.7733 95.3969 40.9133C95.5769 41.0733 95.7269 41.2633 95.8469 41.4733C95.9669 41.6733 96.0669 41.8833 96.1569 42.1033C96.2069 42.2333 96.2569 42.3733 96.2969 42.5033C96.3369 42.6433 96.3769 42.7833 96.4169 42.9133C96.4569 43.0333 96.4969 43.1533 96.5269 43.2633C96.5269 43.3733 96.5369 43.4733 96.5469 43.5533ZM93.4969 44.6033C93.5169 44.7533 93.5669 44.9233 93.6469 45.1233C93.7269 45.3133 93.8469 45.5033 94.0069 45.6733C94.1769 45.8533 94.3669 45.9833 94.5769 46.0533C94.7869 46.1233 95.0369 46.1333 95.2869 46.0733C95.3469 46.0633 95.4069 46.0333 95.4569 46.0033C95.5169 45.9733 95.5669 45.9433 95.6169 45.9133C95.7269 45.8433 95.8069 45.7533 95.8569 45.6533C95.9069 45.5433 95.9569 45.4433 95.9969 45.3233C96.0669 45.1333 96.0969 44.9533 96.1069 44.7633C96.1169 44.5733 96.1169 44.3933 96.1069 44.2033C96.0969 44.0433 96.0869 43.8833 96.0669 43.7233C96.0469 43.5733 95.9969 43.4133 95.9469 43.2633C95.9069 43.1533 95.8769 43.0533 95.8469 42.9433C95.8169 42.8333 95.7769 42.7333 95.7369 42.6233C95.6769 42.4733 95.6169 42.3233 95.5469 42.1833C95.4769 42.0433 95.3869 41.9033 95.2769 41.7833C95.1769 41.6733 95.0769 41.5633 94.9669 41.4833C94.8469 41.3933 94.7169 41.3333 94.5669 41.2933C94.4369 41.2633 94.3269 41.2633 94.2469 41.3033C94.1669 41.3333 94.0969 41.4133 94.0269 41.5333C93.8369 41.8533 93.6869 42.2033 93.5969 42.5733C93.5169 42.8833 93.4769 43.2033 93.4569 43.5333C93.4469 43.8533 93.4469 44.2233 93.4969 44.6033Z" fill="white"/>
<path d="M100.334 41.2475C100.384 41.4175 100.434 41.5775 100.484 41.7475C100.524 41.9175 100.554 42.0875 100.584 42.2575C100.594 42.2975 100.594 42.3275 100.594 42.3675C100.594 42.4075 100.594 42.4475 100.594 42.4775C100.604 42.6275 100.604 42.6975 100.614 42.8375C100.564 42.8675 100.534 42.8775 100.504 42.8775C100.474 42.8775 100.444 42.8575 100.404 42.8175C100.254 42.6875 100.164 42.5375 100.114 42.3775C100.074 42.2575 100.044 42.1375 100.014 42.0175C99.9838 41.8975 99.9538 41.7675 99.9138 41.6575C99.8838 41.5675 99.8538 41.4875 99.8138 41.3975C99.7738 41.3175 99.7438 41.2275 99.7038 41.1475C99.6938 41.1175 99.6738 41.0975 99.6538 41.0675C99.6338 41.0375 99.6138 41.0175 99.5938 40.9875C99.5538 41.0275 99.5238 41.0675 99.4838 41.0975C99.4438 41.1275 99.4138 41.1675 99.3838 41.2075C99.2538 41.3775 99.1338 41.5475 99.0238 41.7275C98.9138 41.9075 98.8138 42.0875 98.7338 42.2875C98.6538 42.4675 98.5938 42.6475 98.5438 42.8375C98.4938 43.0275 98.4638 43.2175 98.4438 43.4175C98.4338 43.4375 98.4338 43.4675 98.4438 43.4875C98.4438 43.5175 98.4538 43.5375 98.4538 43.5675C98.4838 43.6775 98.5138 43.7775 98.5438 43.8875C98.5738 43.9975 98.6138 44.0975 98.6538 44.1975C98.7038 44.3275 98.7538 44.4575 98.7838 44.5975C98.8238 44.7375 98.8638 44.8675 98.9038 45.0075C98.9138 45.0475 98.9338 45.0875 98.9438 45.1275C98.9538 45.1675 98.9738 45.1975 98.9838 45.2375C99.0138 45.3175 99.0238 45.4075 99.0538 45.4975C99.0738 45.5875 99.1038 45.6675 99.1238 45.7475C99.1438 45.8275 99.1738 45.9175 99.2038 45.9975C99.2338 46.0775 99.2538 46.1675 99.2838 46.2475C99.2938 46.2875 99.3138 46.3175 99.3238 46.3575C99.3338 46.3975 99.3538 46.4275 99.3638 46.4675C99.3738 46.4975 99.3838 46.5275 99.3838 46.5575C99.3838 46.5875 99.3838 46.6175 99.3838 46.6475C99.3838 46.6975 99.3938 46.7575 99.3838 46.8075C99.3838 46.8575 99.3638 46.9075 99.3338 46.9575C99.3238 46.9775 99.3138 46.9875 99.3038 46.9975C99.2738 47.0375 99.2338 47.0575 99.1738 47.0675C99.1338 47.0975 99.0738 47.1275 99.0038 47.1475C98.9338 47.1775 98.8538 47.1975 98.7738 47.2075C98.6938 47.2175 98.6238 47.2175 98.5538 47.2075C98.4838 47.1975 98.4338 47.1575 98.4038 47.1075C98.3238 46.9475 98.2338 46.7375 98.1338 46.4775C98.0438 46.2275 97.9438 45.9375 97.8438 45.6275C97.7438 45.3175 97.6438 44.9975 97.5438 44.6575C97.4438 44.3175 97.3438 43.9875 97.2538 43.6575C97.1638 43.3275 97.0838 43.0075 97.0038 42.7075C96.9238 42.4075 96.8538 42.1375 96.8038 41.9075C96.7538 41.6775 96.7038 41.4875 96.6638 41.3475C96.6338 41.2075 96.6138 41.1375 96.6138 41.1275C96.6138 41.1175 96.6338 41.0975 96.6638 41.0775C96.6938 41.0575 96.7338 41.0375 96.7738 41.0175C96.8138 40.9975 96.8638 40.9775 96.9038 40.9575C96.9538 40.9375 96.9838 40.9275 97.0138 40.9175C97.0138 40.9175 97.0238 40.9075 97.0338 40.9075C97.0338 40.9075 97.0438 40.9075 97.0438 40.8975C97.0438 40.8975 97.0438 40.8975 97.0438 40.9075C97.0638 40.8975 97.0938 40.8875 97.1138 40.8875C97.1338 40.8875 97.1638 40.8775 97.1838 40.8775C97.2338 40.8675 97.2638 40.8775 97.2938 40.9075C97.3138 40.9375 97.3438 40.9675 97.3738 40.9975C97.4838 41.1175 97.5738 41.2475 97.6538 41.3975C97.7338 41.5475 97.8038 41.6875 97.8738 41.8475C97.9238 41.9475 97.9638 42.0575 97.9938 42.1575C98.0338 42.2675 98.0638 42.3675 98.1038 42.4775C98.1038 42.4875 98.1038 42.4875 98.1138 42.4975C98.1138 42.5075 98.1238 42.5175 98.1338 42.5375C98.1438 42.4975 98.1538 42.4675 98.1638 42.4475C98.1738 42.4175 98.1838 42.3975 98.1838 42.3675C98.2338 42.1675 98.3138 41.9575 98.4238 41.7575C98.5138 41.5975 98.6038 41.4375 98.7038 41.2875C98.8038 41.1275 98.9138 40.9875 99.0338 40.8475C99.0638 40.8175 99.0838 40.7875 99.1138 40.7575C99.1438 40.7275 99.1738 40.6975 99.2038 40.6575C99.2738 40.5875 99.3538 40.5375 99.4338 40.5075C99.5238 40.4775 99.6138 40.4575 99.7038 40.4575C99.7438 40.4575 99.7738 40.4675 99.8038 40.4875C99.8338 40.5075 99.8638 40.5275 99.8838 40.5575C99.9938 40.6575 100.084 40.7675 100.144 40.8875C100.204 41.0075 100.284 41.1175 100.334 41.2475Z" fill="white"/>
<path d="M105.324 47.0849C105.204 47.1249 105.094 47.1649 104.984 47.1949C104.874 47.2349 104.764 47.2549 104.644 47.2849C104.394 47.3249 104.144 47.3549 103.894 47.3549C103.644 47.3549 103.394 47.3349 103.134 47.2949C102.924 47.2649 102.704 47.2249 102.504 47.1649C102.294 47.1149 102.094 47.0449 101.904 46.9649C101.734 46.8949 101.574 46.8149 101.424 46.7249C101.274 46.6349 101.144 46.5049 101.034 46.3649C100.894 46.1849 100.784 45.9749 100.714 45.7249C100.644 45.4849 100.614 45.2349 100.614 44.9949C100.614 44.7449 100.654 44.5149 100.714 44.3049C100.784 44.0949 100.874 43.9249 101.004 43.7949C101.044 43.7449 101.094 43.7049 101.134 43.6549C101.174 43.6149 101.224 43.5649 101.284 43.5249C101.424 43.4149 101.564 43.3349 101.714 43.2949C101.864 43.2449 102.034 43.2249 102.194 43.2049C102.404 43.1849 102.604 43.1949 102.804 43.2349C103.004 43.2749 103.194 43.3149 103.394 43.3649C103.564 43.4049 103.714 43.4549 103.874 43.5249C104.024 43.5949 104.184 43.6649 104.324 43.7349C104.354 43.7549 104.374 43.7749 104.404 43.8049C104.434 43.8349 104.464 43.8649 104.504 43.8749C104.494 43.8449 104.484 43.7849 104.474 43.6949C104.454 43.6049 104.444 43.5149 104.424 43.4249C104.404 43.3349 104.384 43.2349 104.374 43.1549C104.364 43.0749 104.354 43.0149 104.344 42.9949C104.314 42.7649 104.284 42.5449 104.264 42.3449C104.244 42.1549 104.224 41.9349 104.194 41.6949C104.174 41.5149 104.154 41.3349 104.144 41.1549C104.124 40.9749 104.114 40.7949 104.094 40.6149C104.084 40.5149 104.074 40.4049 104.064 40.3049C104.054 40.2049 104.044 40.0949 104.034 39.9949C104.024 39.9549 104.024 39.9149 104.014 39.8649C104.004 39.8249 103.994 39.7849 103.984 39.7449C103.964 39.6749 103.964 39.5949 103.984 39.5349C104.004 39.4649 104.034 39.4049 104.084 39.3549C104.134 39.3049 104.184 39.2649 104.254 39.2349C104.324 39.2049 104.394 39.1949 104.464 39.2049C104.534 39.2049 104.594 39.2349 104.634 39.2749C104.674 39.3149 104.714 39.3649 104.754 39.4149C104.844 39.5549 104.904 39.6949 104.924 39.8549C104.934 39.9849 104.954 40.1049 104.964 40.2349C104.974 40.3649 104.994 40.4949 105.014 40.6149C105.044 40.7949 105.064 40.9749 105.094 41.1549C105.124 41.3349 105.154 41.5149 105.184 41.6949C105.194 41.7749 105.214 41.8849 105.244 42.0249C105.274 42.1649 105.304 42.3149 105.334 42.4849C105.374 42.6549 105.404 42.8349 105.444 43.0149C105.484 43.1949 105.514 43.3749 105.554 43.5449C105.594 43.7149 105.624 43.8649 105.654 44.0049C105.684 44.1449 105.704 44.2549 105.724 44.3349C105.764 44.5049 105.794 44.6649 105.834 44.8349C105.874 45.0049 105.914 45.1649 105.964 45.3349C106.014 45.5349 106.074 45.7449 106.124 45.9449C106.184 46.1449 106.234 46.3449 106.294 46.5549C106.334 46.6749 106.364 46.7949 106.404 46.9249C106.444 47.0449 106.474 47.1749 106.504 47.2949C106.534 47.4049 106.554 47.5149 106.574 47.6349C106.594 47.7549 106.614 47.8649 106.634 47.9749C106.644 48.0349 106.644 48.0949 106.614 48.1549C106.594 48.2149 106.554 48.2749 106.504 48.3249C106.454 48.3749 106.394 48.4149 106.334 48.4449C106.274 48.4749 106.204 48.4749 106.134 48.4649C106.084 48.4549 106.024 48.4449 105.974 48.4449C105.914 48.4449 105.864 48.4249 105.814 48.4049C105.764 48.3749 105.724 48.3449 105.694 48.3049C105.664 48.2649 105.644 48.2149 105.624 48.1649C105.584 48.0049 105.534 47.8349 105.494 47.6749C105.454 47.5149 105.394 47.3549 105.334 47.1849C105.324 47.1649 105.324 47.1449 105.314 47.1249C105.334 47.1249 105.334 47.1049 105.324 47.0849ZM102.024 46.0249C102.194 46.1149 102.364 46.2049 102.554 46.2749C102.744 46.3449 102.934 46.3949 103.124 46.4349C103.334 46.4749 103.544 46.5049 103.764 46.5249C103.974 46.5449 104.194 46.5549 104.414 46.5549C104.534 46.5549 104.654 46.5549 104.764 46.5449C104.884 46.5349 105.004 46.5249 105.134 46.5249C105.124 46.4349 105.104 46.3349 105.084 46.2249C105.064 46.1149 105.044 46.0049 105.014 45.9049C104.984 45.7949 104.954 45.6949 104.914 45.5949C104.874 45.4949 104.824 45.4149 104.764 45.3349C104.614 45.1649 104.474 45.0349 104.354 44.9349C104.234 44.8349 104.114 44.7549 104.004 44.6949C103.894 44.6349 103.794 44.5949 103.694 44.5649C103.594 44.5349 103.504 44.5049 103.404 44.4849C103.204 44.4349 102.994 44.4049 102.794 44.3949C102.594 44.3849 102.384 44.3949 102.174 44.4249C101.944 44.4649 101.764 44.5749 101.664 44.7549C101.594 44.8949 101.564 45.0649 101.554 45.2149C101.554 45.2749 101.564 45.3449 101.574 45.4149C101.584 45.4849 101.614 45.5549 101.644 45.6249C101.674 45.6949 101.724 45.7649 101.784 45.8349C101.854 45.9049 101.934 45.9649 102.024 46.0249Z" fill="white"/>
<path d="M111.76 46.8325C111.72 46.8525 111.66 46.8525 111.61 46.8525C111.57 46.8525 111.52 46.8525 111.47 46.8325C111.42 46.8225 111.37 46.7925 111.32 46.7625C111.14 46.6125 111 46.4525 110.88 46.2725C110.76 46.0925 110.65 45.9025 110.55 45.7025C110.49 45.5825 110.43 45.4625 110.38 45.3425C110.33 45.2225 110.28 45.0925 110.23 44.9625C110.16 44.7725 110.09 44.5825 110.02 44.3925C109.95 44.2125 109.88 44.0225 109.81 43.8225C109.79 43.7725 109.78 43.7225 109.76 43.6625C109.75 43.6125 109.73 43.5525 109.7 43.4925C109.67 43.5425 109.65 43.5925 109.63 43.6425C109.61 43.6925 109.6 43.7325 109.59 43.7825C109.56 44.0025 109.52 44.2125 109.46 44.4225C109.4 44.6325 109.34 44.8525 109.29 45.0625C109.26 45.1525 109.24 45.2425 109.22 45.3325C109.2 45.4225 109.18 45.5125 109.15 45.6025C109.13 45.6625 109.1 45.7325 109.08 45.7925C109.05 45.8525 109.03 45.9125 109 45.9725C108.93 46.1025 108.85 46.2325 108.77 46.3525C108.69 46.4725 108.58 46.5825 108.46 46.6725C108.27 46.8325 108.04 46.9225 107.79 46.9625C107.67 46.9825 107.57 46.9725 107.47 46.9325C107.37 46.8925 107.28 46.8325 107.19 46.7625C107.1 46.6925 107.03 46.6125 106.97 46.5225C106.92 46.4325 106.87 46.3325 106.83 46.2325C106.76 46.0425 106.71 45.8425 106.68 45.6425C106.66 45.4425 106.64 45.2325 106.64 45.0325C106.64 44.8825 106.65 44.7325 106.66 44.5825C106.67 44.4325 106.7 44.2825 106.74 44.1325C106.84 43.7825 107 43.4525 107.21 43.1525C107.34 42.9625 107.48 42.7925 107.63 42.6325C107.78 42.4625 107.94 42.3125 108.13 42.1725C108.31 42.0325 108.5 41.9025 108.7 41.7925C108.89 41.6825 109.09 41.5825 109.3 41.5025C109.31 41.5025 109.32 41.4925 109.33 41.4925C109.34 41.4825 109.35 41.4825 109.35 41.4825C109.36 41.3725 109.37 41.2625 109.38 41.1625C109.39 41.0625 109.4 40.9625 109.41 40.8625C109.41 40.8125 109.43 40.7725 109.47 40.7525C109.51 40.7225 109.56 40.7025 109.62 40.7025C109.73 40.6925 109.82 40.7025 109.89 40.7725C109.96 40.8325 110.01 40.9025 110.04 40.9725C110.08 41.0625 110.11 41.1525 110.13 41.2525C110.15 41.3525 110.16 41.4525 110.18 41.5525C110.22 41.7925 110.28 42.0425 110.32 42.2825C110.37 42.5225 110.44 42.7625 110.52 43.0025C110.62 43.3025 110.73 43.5925 110.85 43.8725C110.97 44.1525 111.11 44.4325 111.25 44.7125C111.33 44.8825 111.42 45.0425 111.51 45.2125C111.6 45.3725 111.69 45.5425 111.78 45.7025C111.83 45.7925 111.88 45.8825 111.94 45.9725C112 46.0625 112.05 46.1425 112.11 46.2325C112.12 46.2525 112.13 46.2725 112.15 46.3125C112.17 46.3625 112.18 46.4125 112.16 46.4525C112.15 46.4925 112.12 46.5425 112.09 46.5925C112.06 46.6325 112.03 46.6725 111.99 46.7025C111.95 46.7325 111.92 46.7625 111.88 46.7825C111.85 46.7825 111.8 46.8125 111.76 46.8325ZM108.24 46.0625C108.25 46.0625 108.26 46.0625 108.27 46.0525C108.29 46.0425 108.31 46.0225 108.32 46.0125C108.53 45.8225 108.68 45.5925 108.76 45.3225C108.78 45.2425 108.8 45.1625 108.82 45.0825C108.84 45.0025 108.86 44.9225 108.88 44.8525C108.92 44.7025 108.97 44.5525 109.03 44.4125C109.09 44.2725 109.12 44.1225 109.14 43.9625C109.15 43.8425 109.18 43.7225 109.21 43.6025C109.24 43.4825 109.27 43.3625 109.29 43.2425C109.32 43.0925 109.34 42.9325 109.37 42.7825C109.4 42.6325 109.41 42.4725 109.42 42.3225C109.42 42.2725 109.42 42.2225 109.42 42.1825C109.42 42.1325 109.4 42.0825 109.38 42.0325C109.33 42.0525 109.29 42.0725 109.26 42.1025C109.22 42.1225 109.19 42.1525 109.15 42.1825C109.01 42.2925 108.88 42.4025 108.75 42.5225C108.62 42.6425 108.5 42.7625 108.38 42.8925C108.29 43.0025 108.2 43.1125 108.13 43.2225C108.05 43.3325 107.99 43.4525 107.96 43.5925C107.95 43.6525 107.93 43.7125 107.92 43.7725C107.9 43.8325 107.89 43.8925 107.88 43.9425C107.87 44.0325 107.85 44.1325 107.84 44.2325C107.83 44.3325 107.82 44.4225 107.82 44.5225C107.82 44.6025 107.82 44.6925 107.83 44.7725C107.84 44.8525 107.85 44.9425 107.86 45.0225C107.88 45.1625 107.9 45.3025 107.93 45.4325C107.96 45.5725 108.01 45.7025 108.07 45.8325C108.09 45.8725 108.11 45.9225 108.14 45.9625C108.16 45.9925 108.2 46.0325 108.24 46.0625Z" fill="white"/>
<path d="M115.89 41.2012C115.96 41.3612 116.03 41.5211 116.09 41.6811C116.15 41.8411 116.2 42.0112 116.24 42.1811C116.25 42.2211 116.26 42.2512 116.26 42.2912C116.27 42.3312 116.27 42.3612 116.27 42.4012C116.29 42.5412 116.3 42.6211 116.33 42.7611C116.29 42.7911 116.25 42.8112 116.22 42.8112C116.19 42.8112 116.15 42.7911 116.11 42.7611C115.95 42.6511 115.84 42.5111 115.78 42.3511C115.74 42.2411 115.69 42.1211 115.65 42.0011C115.61 41.8811 115.57 41.7612 115.52 41.6512C115.48 41.5712 115.44 41.4812 115.39 41.4012C115.34 41.3212 115.3 41.2411 115.25 41.1611C115.23 41.1311 115.21 41.1111 115.19 41.0911C115.17 41.0711 115.14 41.0411 115.12 41.0111C115.09 41.0511 115.05 41.0912 115.02 41.1312C114.99 41.1712 114.96 41.2111 114.93 41.2511C114.82 41.4311 114.72 41.6111 114.63 41.8011C114.54 41.9911 114.46 42.1812 114.39 42.3812C114.33 42.5712 114.28 42.7612 114.25 42.9512C114.22 43.1412 114.21 43.3411 114.21 43.5311C114.21 43.5511 114.21 43.5811 114.22 43.6011C114.23 43.6311 114.23 43.6511 114.24 43.6811C114.28 43.7811 114.32 43.8912 114.36 43.9912C114.4 44.0912 114.45 44.1912 114.5 44.2912C114.56 44.4112 114.62 44.5411 114.67 44.6711C114.72 44.8011 114.77 44.9312 114.83 45.0612C114.85 45.1012 114.87 45.1411 114.88 45.1711C114.9 45.2011 114.92 45.2411 114.93 45.2712C114.96 45.3412 114.99 45.4412 115.03 45.5212C115.07 45.6012 115.09 45.6911 115.13 45.7611C115.16 45.8411 115.2 45.9211 115.24 46.0011C115.28 46.0811 115.31 46.1712 115.34 46.2412C115.36 46.2712 115.38 46.3111 115.4 46.3411C115.42 46.3712 115.44 46.4111 115.45 46.4411C115.47 46.4611 115.48 46.4911 115.48 46.5212C115.48 46.5512 115.49 46.5812 115.49 46.6112C115.5 46.6612 115.51 46.7211 115.51 46.7712C115.51 46.8212 115.5 46.8712 115.48 46.9311C115.47 46.9511 115.46 46.9611 115.45 46.9811C115.42 47.0211 115.38 47.0412 115.32 47.0612C115.28 47.0912 115.23 47.1311 115.16 47.1611C115.09 47.2011 115.02 47.2212 114.94 47.2412C114.86 47.2612 114.79 47.2711 114.72 47.2611C114.65 47.2511 114.6 47.2211 114.56 47.1711C114.46 47.0211 114.35 46.8211 114.23 46.5711C114.11 46.3311 113.98 46.0611 113.85 45.7611C113.72 45.4611 113.59 45.1512 113.45 44.8312C113.32 44.5012 113.19 44.1812 113.06 43.8612C112.93 43.5412 112.82 43.2311 112.71 42.9411C112.6 42.6511 112.51 42.3911 112.43 42.1711C112.35 41.9511 112.28 41.7612 112.24 41.6312C112.19 41.4912 112.17 41.4211 112.17 41.4111C112.17 41.4011 112.19 41.3811 112.22 41.3511C112.25 41.3311 112.29 41.3011 112.33 41.2811C112.37 41.2611 112.41 41.2311 112.46 41.2111C112.5 41.1911 112.54 41.1712 112.56 41.1512C112.56 41.1512 112.57 41.1411 112.58 41.1411C112.59 41.1411 112.59 41.1412 112.59 41.1312C112.59 41.1312 112.59 41.1311 112.59 41.1411C112.61 41.1211 112.64 41.1112 112.66 41.1112C112.68 41.1012 112.7 41.1011 112.73 41.0911C112.78 41.0811 112.81 41.0812 112.84 41.1112C112.86 41.1312 112.89 41.1611 112.93 41.1911C113.05 41.3011 113.15 41.4212 113.25 41.5612C113.34 41.6912 113.43 41.8311 113.52 41.9811C113.58 42.0811 113.63 42.1811 113.67 42.2811C113.72 42.3811 113.77 42.4812 113.81 42.5812C113.81 42.5912 113.82 42.6011 113.82 42.6011C113.82 42.6011 113.83 42.6211 113.84 42.6411C113.85 42.6011 113.86 42.5712 113.86 42.5412C113.86 42.5112 113.87 42.4911 113.87 42.4611C113.9 42.2511 113.96 42.0412 114.05 41.8312C114.12 41.6612 114.2 41.5012 114.28 41.3312C114.36 41.1612 114.45 41.0112 114.57 40.8612C114.59 40.8312 114.62 40.8011 114.64 40.7611C114.66 40.7311 114.69 40.7011 114.72 40.6611C114.78 40.5811 114.85 40.5212 114.94 40.4912C115.02 40.4512 115.11 40.4211 115.21 40.4111C115.25 40.4011 115.28 40.4111 115.32 40.4311C115.35 40.4511 115.38 40.4712 115.41 40.4912C115.53 40.5712 115.63 40.6812 115.7 40.7912C115.76 40.9512 115.83 41.0712 115.89 41.2012Z" fill="white"/>
<path d="M131.091 51.4375C130.551 51.4375 129.621 51.1575 127.881 50.4675C125.401 49.4875 124.011 48.3975 123.541 47.9975L118.731 50.1875C118.561 50.2675 118.361 50.1875 118.281 50.0175C118.201 49.8475 118.281 49.6475 118.451 49.5675L123.681 47.1975L123.851 47.3575C123.861 47.3675 125.221 48.6875 128.131 49.8375C130.071 50.6075 131.121 50.8975 131.241 50.6975C131.251 50.6675 131.211 50.4175 130.201 50.0075C127.651 48.9675 127.511 48.6775 127.591 48.3375C127.611 48.2375 127.681 48.0975 127.851 47.9875C128.311 47.7075 129.201 47.8475 129.881 48.0075C130.571 48.1775 131.221 48.3975 131.731 48.5775C132.081 48.6975 132.471 48.8375 132.591 48.8375C132.601 48.8375 132.651 48.7975 132.671 48.7375C132.691 48.6475 132.641 48.5275 132.511 48.4175C132.291 48.2275 131.381 47.9475 130.641 47.7175C129.691 47.4275 128.791 47.1475 128.421 46.8375C128.141 46.6075 128.151 46.3875 128.201 46.2475C128.351 45.8775 128.861 45.8875 130.061 46.0075C130.211 46.0275 130.331 46.0375 130.421 46.0375L130.591 46.0475C131.221 46.0875 132.521 46.1575 132.981 46.2175C133.251 46.2575 133.381 46.2275 133.441 46.2075C133.481 46.1875 133.531 46.1675 133.561 46.0075C133.581 45.8875 133.551 45.7875 133.491 45.7075C133.391 45.5775 133.191 45.4975 132.931 45.4675C132.701 45.4475 132.221 45.4175 131.681 45.3975C130.241 45.3275 129.611 45.2875 129.381 45.1975C129.041 45.0775 128.741 44.7775 128.791 44.4475C128.821 44.2875 128.941 44.0075 129.501 43.9975C130.111 43.9775 132.051 43.5075 132.471 43.2775C132.721 43.1375 132.911 42.9675 132.941 42.8275C132.951 42.7975 132.951 42.7575 132.911 42.6975C132.821 42.5575 132.711 42.3975 131.841 42.7875C130.971 43.1775 128.211 43.4475 126.551 42.7975C125.541 42.4075 124.491 41.4275 125.221 39.0275C125.471 38.1875 125.671 37.1375 125.151 36.9175C125.101 36.8975 125.041 36.8775 124.931 36.9375C124.641 37.0875 124.241 37.6775 124.041 38.6275C123.891 39.3275 123.591 40.0975 123.321 40.7775C123.111 41.3075 122.921 41.8075 122.851 42.1475C122.661 43.0375 122.281 43.9975 120.811 44.9475C119.361 45.8875 117.851 46.1175 116.701 46.2075C116.521 46.2175 116.351 46.0875 116.331 45.8975C116.321 45.7075 116.451 45.5475 116.641 45.5375C117.781 45.4475 119.121 45.2375 120.441 44.3875C121.771 43.5275 122.041 42.7175 122.181 42.0175C122.271 41.6175 122.461 41.1175 122.691 40.5475C122.951 39.8875 123.241 39.1475 123.381 38.4975C123.551 37.6775 123.971 36.6875 124.621 36.3475C124.881 36.2075 125.161 36.1975 125.421 36.3175C126.601 36.8375 126.051 38.6475 125.871 39.2475C125.171 41.5475 126.401 42.0275 126.801 42.1875C128.251 42.7575 130.831 42.5275 131.561 42.1875C132.241 41.8775 133.001 41.6175 133.471 42.3375C133.611 42.5475 133.651 42.7775 133.591 43.0075C133.481 43.4575 133.041 43.7475 132.781 43.8875C132.361 44.1175 130.901 44.4974 129.991 44.6375C130.451 44.6775 131.191 44.7175 131.691 44.7375C132.241 44.7675 132.731 44.7875 132.971 44.8175C133.421 44.8675 133.781 45.0375 133.991 45.3175C134.171 45.5475 134.241 45.8175 134.201 46.1275C134.141 46.5775 133.881 46.7675 133.681 46.8575C133.471 46.9475 133.211 46.9675 132.861 46.9175C132.421 46.8575 131.091 46.7875 130.521 46.7475L130.391 46.7175C130.301 46.7175 130.161 46.6975 130.001 46.6875C129.891 46.6775 129.731 46.6575 129.561 46.6475C129.951 46.7975 130.431 46.9375 130.841 47.0675C131.951 47.4075 132.651 47.6375 132.951 47.9075C133.311 48.2175 133.441 48.6275 133.291 49.0075C133.161 49.3175 132.891 49.5275 132.561 49.5175C132.361 49.5075 132.071 49.4075 131.521 49.2175C131.021 49.0475 130.391 48.8275 129.721 48.6675C129.111 48.5175 128.741 48.4975 128.511 48.5075C128.801 48.6675 129.361 48.9475 130.451 49.3875C131.321 49.7474 131.771 50.0775 131.891 50.4675C131.961 50.6775 131.931 50.8875 131.801 51.0675C131.661 51.2975 131.461 51.4375 131.091 51.4375Z" fill="white"/>
<path d="M98.493 6.86041C98.583 6.84215 98.663 6.82633 98.743 6.80929C98.823 6.79346 98.903 6.77642 98.993 6.76181C99.103 6.74356 99.213 6.7253 99.333 6.70947C99.453 6.69243 99.583 6.67782 99.733 6.66322C100.023 6.63644 100.353 6.62426 100.703 6.62305C100.813 6.62305 100.923 6.62548 101.023 6.63157C101.123 6.63765 101.213 6.64496 101.293 6.6547C101.313 6.65713 101.333 6.66078 101.343 6.66565C101.353 6.67052 101.363 6.67417 101.373 6.67904C101.393 6.69365 101.403 6.70825 101.403 6.72286C101.393 6.73747 101.383 6.75208 101.373 6.76668C101.353 6.78372 101.323 6.79955 101.283 6.81537C101.243 6.82998 101.193 6.8458 101.143 6.86163C101.083 6.87867 101.013 6.89571 100.933 6.91032C100.853 6.92493 100.763 6.94075 100.663 6.95414C100.523 6.97483 100.373 6.99309 100.213 7.01135C100.053 7.02961 99.863 7.043 99.643 7.05396C99.533 7.05882 99.423 7.06491 99.303 7.06978C99.193 7.07465 99.073 7.08073 98.943 7.08682C98.953 7.09534 98.963 7.10508 98.973 7.1136C98.983 7.12212 99.003 7.13308 99.013 7.14281C99.053 7.16473 99.083 7.18664 99.123 7.20733C99.163 7.22924 99.203 7.25115 99.223 7.27306C99.233 7.28889 99.263 7.30349 99.303 7.31932C99.343 7.33392 99.383 7.34975 99.423 7.36557C99.443 7.37288 99.453 7.37896 99.473 7.38383C99.483 7.3887 99.503 7.39235 99.513 7.396C99.523 7.39966 99.543 7.40331 99.553 7.40818C99.563 7.41305 99.583 7.41913 99.603 7.42643C99.643 7.44469 99.683 7.46417 99.723 7.48243C99.763 7.50069 99.803 7.51895 99.853 7.53842C99.913 7.5652 99.963 7.5932 100.013 7.61998C100.063 7.64676 100.093 7.67475 100.103 7.70153C100.113 7.71127 100.113 7.71979 100.113 7.72953C100.113 7.73805 100.123 7.74779 100.123 7.75753C100.123 7.76483 100.123 7.77335 100.123 7.78066C100.123 7.78918 100.123 7.79648 100.113 7.80378C100.113 7.80744 100.093 7.8123 100.063 7.81474C100.033 7.81839 100.003 7.82083 99.963 7.82204C99.923 7.82448 99.883 7.82448 99.833 7.82448C99.783 7.82448 99.743 7.82204 99.713 7.81961C99.633 7.81352 99.553 7.80622 99.483 7.79891C99.413 7.79161 99.353 7.78187 99.303 7.77335C99.253 7.76361 99.203 7.75266 99.153 7.7417C99.103 7.73075 99.053 7.72101 99.023 7.70884C98.943 7.68449 98.863 7.65893 98.793 7.63459C98.723 7.61024 98.653 7.58468 98.583 7.56033C98.543 7.54573 98.503 7.53112 98.463 7.51773C98.423 7.50434 98.393 7.48973 98.363 7.47513C98.343 7.46417 98.323 7.45321 98.303 7.44591C98.283 7.43739 98.263 7.43009 98.243 7.42278C98.223 7.41548 98.213 7.40818 98.193 7.39966C98.183 7.39113 98.163 7.3814 98.133 7.37044C98.093 7.35097 98.063 7.33149 98.023 7.31201C97.993 7.29254 97.953 7.27306 97.913 7.25237C97.873 7.23046 97.833 7.20855 97.793 7.18785C97.753 7.16716 97.723 7.14525 97.683 7.12456C97.653 7.11117 97.623 7.09778 97.593 7.08439C97.563 7.071 97.533 7.05761 97.513 7.04422C97.473 7.02474 97.433 7.00526 97.393 6.98457C97.353 6.9651 97.313 6.9444 97.273 6.92493C97.233 6.90058 97.193 6.87502 97.153 6.85067C97.113 6.82633 97.103 6.79955 97.083 6.7752C97.083 6.77155 97.073 6.76668 97.063 6.76425C97.053 6.7606 97.053 6.75694 97.053 6.75329C97.043 6.73869 97.043 6.7253 97.063 6.71191C97.083 6.69852 97.113 6.68513 97.153 6.67174C97.193 6.65956 97.253 6.65226 97.353 6.64861C97.453 6.64617 97.553 6.64739 97.673 6.65104C97.753 6.6547 97.833 6.65956 97.893 6.66687C97.953 6.67417 98.003 6.68269 98.043 6.69243C98.123 6.71556 98.203 6.7399 98.273 6.76303C98.343 6.78616 98.403 6.8105 98.433 6.83607C98.443 6.83972 98.453 6.84459 98.463 6.84824C98.473 6.85067 98.483 6.85433 98.493 6.86041ZM98.993 6.96144C99.013 6.96388 99.033 6.9651 99.043 6.9651C99.133 6.95779 99.223 6.95049 99.323 6.9444C99.423 6.93832 99.503 6.9298 99.593 6.92127C99.903 6.89084 100.173 6.85554 100.393 6.81659C100.503 6.79711 100.573 6.77764 100.613 6.75694C100.643 6.73625 100.653 6.71434 100.633 6.69121C100.443 6.69608 100.293 6.70582 100.173 6.72043C100.103 6.72895 100.043 6.73747 99.983 6.74599C99.923 6.75451 99.863 6.76303 99.793 6.77155C99.603 6.7959 99.453 6.82268 99.333 6.85067C99.213 6.87867 99.113 6.9091 99.033 6.93953C99.023 6.94318 99.023 6.94684 99.023 6.95049C99.003 6.95414 98.993 6.95779 98.993 6.96144Z" fill="white"/>
</svg>
