<svg width="133" height="50" viewBox="0 0 133 50" fill="none" xmlns="http://www.w3.org/2000/svg">
<path d="M15.34 10.0499C15.36 10.5199 15.31 10.9799 15.24 11.4199L15.22 11.6199C15.19 11.8399 15.14 12.0599 15.1 12.2999L15.08 12.3999L15.06 12.4499C15.01 12.7199 14.91 13.2799 14.26 13.6699C13.74 14.0299 13.02 13.9699 12.5 13.5499C12.48 13.5299 12.47 13.5199 12.47 13.4999C11.93 13.0399 11.89 12.5199 11.88 12.2299C11.86 12.1099 11.86 12.0299 11.86 11.9399C11.86 11.8199 11.84 11.6899 11.82 11.5499V11.5199L11.7 9.68988C11.65 8.92988 11.6 8.21988 11.5 7.51988C11.36 6.58988 11.18 5.88988 10.87 5.33988C10.82 5.21988 10.79 5.13988 10.75 5.04988C10.5 4.47988 10.45 4.35988 9.95996 4.31988C9.31996 4.38988 8.70996 4.84988 8.02996 5.77988C7.46996 6.60988 6.97996 7.60988 6.58996 8.70988C5.84996 10.6599 5.31996 12.8199 4.92996 15.5499C4.78996 16.6699 4.68996 17.8199 4.63996 19.0499C4.61996 19.6799 4.60996 20.1799 4.65996 20.6799C4.67996 21.1499 4.74996 21.6299 4.84996 22.2399C5.25996 24.1899 6.57996 26.1499 7.55996 26.2699C8.35996 26.2699 8.97996 26.1299 9.31996 25.8799C9.77996 25.5099 10.23 24.9799 10.64 24.3199C10.98 23.7299 11.25 23.0699 11.45 22.3399L11.71 21.2099L11.84 20.4099C11.88 19.8999 12.2 19.5599 12.82 19.3799L12.92 19.3499C13.29 19.2499 13.68 19.2499 14.05 19.3499C14.95 19.6399 15.05 20.2499 15.03 20.5699L15.05 20.8699C15.05 21.1799 15.03 21.4499 15.02 21.6799C15.02 21.7099 15.02 21.7299 15 21.7499C14.93 22.2599 14.83 22.7699 14.66 23.2699C14.34 24.2699 13.85 25.1999 13.24 26.0499C12.55 26.9799 11.75 27.7099 10.84 28.1999C10.69 28.2799 10.57 28.3399 10.45 28.3899C10.35 28.4399 10.25 28.4899 10.14 28.5399C10.11 28.5599 10.09 28.5699 10.06 28.5699C9.91996 28.6199 9.76996 28.6699 9.63996 28.7099C9.53996 28.7399 9.44996 28.7799 9.34996 28.8099C9.31996 28.8099 9.27996 28.8299 9.24996 28.8299C8.73996 28.9299 8.07996 29.0299 7.61996 29.0499C7.46996 29.0499 7.32996 29.0699 7.17996 29.0699C5.65996 29.0699 4.12996 28.4599 2.99996 27.3899C1.87996 26.3799 1.01996 24.9699 0.529956 23.3299C0.309956 22.6999 0.159957 21.9899 0.0599565 21.0899C-0.0100435 20.3999 -0.0100435 19.6699 0.0299565 18.8899C0.0799565 17.4499 0.219957 16.1099 0.449957 14.8399C0.939957 12.0599 1.77996 9.44988 2.99996 7.09988C3.79996 5.60988 4.58996 4.49988 5.50996 3.59988C6.16996 2.96988 6.80996 2.51988 7.48996 2.20988C8.43996 1.74988 11.64 1.02988 13.57 3.64988C14.21 4.52988 14.67 5.54988 14.99 6.82988C15.27 8.01988 15.39 9.06988 15.34 10.0499Z" fill="white"/>
<path d="M63.0299 14.62C62.9799 16.86 62.8799 19.06 62.7799 21.35L62.4599 27.54C62.4599 27.92 62.3199 28.42 61.6299 28.78L61.6099 28.8C61.1199 29.07 60.5399 29.09 60.0399 28.89C59.3499 28.62 59.1599 28.11 59.0999 27.74L58.9699 26.44L58.8299 24.74C58.7599 24.05 58.7199 23.39 58.6699 22.7C58.6499 22.25 58.6199 21.82 58.5999 21.37C58.4599 18.92 58.3799 16.71 58.3499 14.62C58.3299 13.29 58.3099 12.08 58.2999 10.92L55.6999 19.36C55.6799 19.58 55.5899 19.79 55.4499 19.96C55.0399 20.46 54.1899 20.56 53.7499 20.46C53.3499 20.39 53.0599 20.14 52.9199 19.79L52.8299 19.59C52.8299 19.57 52.8299 19.56 52.8099 19.54L52.6499 19.07L51.5699 16.27C51.4399 15.95 51.2999 15.57 51.1599 15.19V15.3L51.0299 22.64L50.9599 25.73L50.7999 28.44C50.8199 29.03 50.4599 29.45 49.7499 29.67C49.5299 29.74 49.3199 29.78 49.0799 29.78C48.8599 29.78 48.6499 29.74 48.4299 29.69C47.5299 29.44 47.3299 28.88 47.3299 28.45L47.2999 28.1L47.1699 25.75L47.0799 22.67L46.9699 16.52C46.9199 14.46 46.8599 12.39 46.8799 10.35C46.8799 9.33998 46.8799 8.26998 46.9199 7.24998C46.9399 6.73998 46.9899 6.21998 47.0599 5.63998C47.1299 4.82998 47.7299 4.17998 48.5699 3.97998C49.4599 3.75998 50.3599 4.08998 50.7699 4.76998C50.7899 4.78998 50.7899 4.80998 50.8099 4.81998L50.9199 5.01998C51.0099 5.19998 51.1399 5.39998 51.2299 5.61998C51.4699 6.08998 51.6599 6.55998 51.8399 7.00998C51.9099 7.16998 51.9799 7.34998 52.0599 7.51998C52.6399 8.94998 53.0899 10.15 53.4899 11.4C53.7799 12.27 54.0499 13.15 54.2799 13.98C54.6099 12.73 54.9699 11.49 55.3299 10.28L55.5299 9.60998C55.9799 8.05998 56.5199 6.51998 57.0599 4.96998C57.3699 4.17998 57.6699 3.41998 57.9799 2.65998C58.1999 2.18998 58.3999 1.78998 58.6099 1.42998L58.6499 1.36998C58.7399 1.19998 58.8399 0.999978 58.9899 0.799978L59.0599 0.709978C59.1299 0.619977 59.2199 0.509978 59.3099 0.399978C59.3499 0.359978 59.3799 0.329978 59.4399 0.309978C59.7999 0.0399775 60.4499 -0.160022 61.0999 0.169978C62.0899 0.639978 62.6299 1.98998 62.7999 4.45998C62.8199 4.94998 62.8499 5.42998 62.8899 5.89998C62.9399 6.52998 62.9999 7.19998 63.0399 7.84998C63.1199 10.22 63.0699 12.58 63.0299 14.62Z" fill="white"/>
<path d="M76.4498 9.60996V9.74996C76.4298 9.81996 76.4298 9.88996 76.4298 9.94996C76.4298 10.03 76.4298 10.1 76.4098 10.19C76.4098 10.39 76.3898 10.58 76.3798 10.78C76.3598 10.9 76.3598 11.02 76.3498 11.13V11.18C76.0598 13.94 75.0798 16.51 73.5198 18.64C72.7298 19.76 71.7598 20.74 70.6598 21.52C70.0898 21.94 69.4598 22.28 68.7998 22.54C68.7298 22.57 68.6598 22.61 68.5798 22.62C68.5398 23.31 68.5098 24.01 68.4898 24.69V25.18C68.4698 25.5 68.4698 25.82 68.4898 26.14C68.4898 26.39 68.5098 26.63 68.5198 26.82V26.89V26.94C68.5398 27.04 68.5498 27.12 68.5498 27.23C68.5498 27.64 68.3598 27.87 68.2298 28.06L68.0398 28.31C67.7998 28.63 67.3998 28.84 66.9698 28.84C66.8298 28.84 66.6798 28.82 66.5298 28.76C65.6798 28.51 65.5098 27.78 65.4498 27.51C65.4298 27.48 65.4298 27.46 65.4298 27.43C65.3298 27.07 65.2798 26.79 65.2298 26.52C65.1498 26.11 65.0998 25.69 65.0298 25.28L64.9798 24.89C64.8798 24.04 64.8098 23.23 64.7398 22.45L64.6698 21.71C64.5998 20.63 64.5498 19.59 64.5198 18.53L64.4898 15.38C64.4698 13.4 64.4898 11.35 64.5598 9.11996L64.5798 8.99996C64.6298 7.99996 64.6998 6.96996 64.7798 5.94996C64.8298 5.40996 64.8998 4.87996 64.9698 4.35996L65.0198 3.93996C64.8898 3.74996 64.8198 3.51996 64.7698 3.34996L64.7498 3.32996C64.7498 3.30996 64.7498 3.29996 64.7298 3.27996C64.6498 2.95996 64.6298 2.63996 64.6498 2.29996C64.6798 1.93996 64.7498 1.49996 65.1198 1.22996C65.2698 1.08996 65.4798 1.02996 65.6798 1.02996L65.8698 1.00996H65.9198L66.4098 0.979961C66.6498 0.959961 66.8798 0.959961 67.1198 0.959961C67.2198 0.979961 67.3198 0.979961 67.4098 0.979961C68.2698 1.00996 68.9298 1.09996 69.5398 1.22996C71.1298 1.57996 72.4898 2.20996 73.5498 3.06996C74.7198 4.06996 75.6198 5.43996 76.0598 6.94996C76.2998 7.70996 76.3598 8.46996 76.4198 9.12996L76.4498 9.60996ZM68.7498 19.51C68.8198 19.44 68.8998 19.38 68.9898 19.32C69.7698 18.66 70.4598 17.85 71.0198 16.95C72.1198 15.21 72.7598 13.13 72.8498 10.92C72.8698 9.91996 72.8298 8.84996 72.5798 7.95996C72.3298 7.10996 71.8498 6.38996 71.2298 5.87996C70.6898 5.41996 70.0298 5.06996 69.2698 4.82996V6.12996C69.2898 7.03996 69.2698 8.06996 69.2398 9.23996L68.7498 19.51Z" fill="white"/>
<path d="M90.9798 21.96C90.9798 21.98 90.9798 21.98 90.9598 22C90.7298 22.98 90.1698 23.18 89.7698 23.19L90.1898 26.35C90.2898 26.71 90.2498 27.33 89.2698 27.76C89.2298 27.78 89.1898 27.8 89.1398 27.82C88.8098 27.95 88.4698 28.03 88.1198 28.05C87.7598 28.07 87.3098 28.05 86.9698 27.72C86.8198 27.57 86.6998 27.35 86.6598 27.12L86.3098 25.79L85.9398 24.21C85.8398 23.84 85.7698 23.48 85.6898 23.11L82.2098 22.97C81.9798 23.84 81.7298 24.68 81.4798 25.53L81.3798 25.84L80.4398 28.69C80.3398 29.17 79.9398 29.69 78.7298 29.69H78.5998C78.2398 29.69 77.8698 29.61 77.4798 29.46C76.2998 28.92 76.1698 28.27 76.2998 27.77L76.6698 24.82C76.7898 24.09 76.8798 23.39 76.9998 22.7L76.6698 22.66C76.4198 22.66 75.6898 22.58 75.5098 21.56C75.4298 21.12 75.4498 20.67 75.5498 20.27C75.7598 19.31 76.4898 19.25 76.7598 19.27H77.6298C77.8998 17.86 78.2498 16.17 78.6498 14.46C79.1298 12.19 79.7298 9.90003 80.3098 7.68003L81.1998 4.31003C81.2598 4.02003 81.3198 3.73003 81.3698 3.42003C81.4098 3.15003 81.4698 2.88003 81.5198 2.63003C81.6198 2.21003 81.7298 1.88003 81.8898 1.59003L81.9298 1.51003C81.9898 1.38003 82.0698 1.22003 82.1798 1.07003C82.2198 1.01003 82.2398 0.970034 82.2798 0.930034C82.3598 0.870034 82.4898 0.720034 82.7398 0.620034C82.8398 0.580034 82.9498 0.540034 83.1098 0.520034C84.5698 0.250034 85.7698 1.14003 85.8998 1.23003C86.0698 1.35003 86.2098 1.48003 86.2898 1.64003C86.3698 1.76003 86.4798 1.95003 86.5198 2.22003C86.5198 2.30003 86.5198 2.39003 86.5398 2.47003V2.62003C86.5398 2.68003 86.5598 2.72003 86.5598 2.76003C86.5598 2.91003 86.5398 3.05003 86.5198 3.18003C86.6198 3.55003 86.7098 3.89003 86.8098 4.26003L86.8698 4.47003C87.0998 5.55003 87.2898 6.61003 87.5098 7.65003C87.8898 9.77003 88.1998 11.9 88.5098 13.96L89.2798 19.43L89.6698 19.45H89.6898C90.0998 19.41 90.7898 19.53 91.0198 20.68C91.0898 21.21 91.0298 21.65 90.9798 21.96ZM83.1398 19.27H83.2698C83.2698 19.27 83.2898 19.27 83.2898 19.29L84.9498 19.33L84.9098 19.14C84.6598 17.74 84.4098 16.31 84.1798 14.87C84.1198 15.16 84.0498 15.45 83.9898 15.76C83.7198 16.92 83.4298 18.11 83.1398 19.27Z" fill="white"/>
<path d="M99.1798 21.9702C99.1998 22.0002 99.1998 22.0202 99.2098 22.0402C99.7398 22.8902 100.23 23.7002 100.77 24.3202C101.19 24.8102 101.48 25.0002 101.67 25.0502C101.72 25.0702 101.84 25.1202 102.04 25.1002C102.17 25.1002 102.38 25.0302 102.6 24.9502L102.75 24.9002C102.82 24.8802 102.88 24.8702 102.95 24.8702C103.58 24.7502 104.17 25.1202 104.35 25.7302C104.37 25.7502 104.37 25.7602 104.37 25.7802C104.45 26.1402 104.39 26.5102 104.18 26.8102C104.16 26.8302 104.16 26.8602 104.15 26.8802C103.78 27.3402 103.35 27.6802 102.86 27.9302C102.28 28.2202 101.61 28.3402 100.96 28.2502C99.6098 28.0802 98.6598 27.2302 98.0998 26.5602C97.5198 25.8302 97.0998 25.0702 96.7998 24.2402C96.6798 23.9202 96.5798 23.6002 96.4898 23.2902C96.4598 23.2902 96.4198 23.3102 96.4098 23.3102C96.4098 23.8202 96.4098 24.3402 96.4298 24.8302C96.4498 25.0002 96.4498 25.1502 96.4498 25.3002C96.4498 25.6502 96.4498 26.0102 96.4998 26.3102L96.5498 27.0702L96.6798 27.7502C96.6998 27.7802 96.6998 27.8202 96.6998 27.8502C96.8198 28.4902 96.3898 29.1202 95.7498 29.2702C95.6598 29.2902 95.5798 29.2902 95.4998 29.2902C94.9598 29.2902 94.4998 28.9702 94.3298 28.4802L94.0098 27.6802C94.0098 27.6502 93.9898 27.6102 93.9898 27.5802L93.7898 26.7802C93.6898 26.4302 93.6398 26.0702 93.5898 25.7502C93.5598 25.5502 93.5198 25.3402 93.4698 25.1402V25.1002C93.3298 24.1402 93.1998 23.0902 93.0798 21.8702C92.8798 19.8402 92.7598 17.8302 92.6598 15.4402C92.5698 13.4302 92.5198 11.3302 92.5098 9.0202C92.5098 8.0402 92.5298 6.9902 92.5898 5.7902L92.6698 4.1602C92.6698 4.1402 92.6698 4.1102 92.6898 4.0902C92.7098 3.9702 92.7098 3.8702 92.7098 3.7702V3.7102C92.6898 3.6402 92.6798 3.5602 92.6598 3.4702V3.4002C92.5898 3.1602 92.5598 2.9402 92.5398 2.7402L92.5198 2.7102C92.4698 2.2002 92.4198 1.7402 92.8298 1.4102C92.9498 1.3102 93.0998 1.2402 93.2698 1.2202L93.6098 1.1502L94.1398 1.0602C94.4898 0.990195 94.8498 0.960195 95.1898 0.940195C95.8698 0.870195 96.5798 0.870195 97.3098 0.940195C98.9698 1.1102 100.48 1.6702 101.66 2.5502C102.95 3.5102 103.91 4.9202 104.4 6.5502C104.81 7.9002 104.96 9.3102 104.87 10.8502C104.75 13.5902 103.85 16.2802 102.3 18.6202C101.5 19.8202 100.59 20.8602 99.5698 21.6802C99.4298 21.7902 99.3098 21.8902 99.1798 21.9702ZM96.4498 20.2502C96.7398 20.0102 97.0398 19.7302 97.3598 19.3702C97.9998 18.6402 98.5998 17.7602 99.1198 16.7502C100.1 14.8002 100.63 12.7202 100.64 10.7202C100.67 9.1302 100.4 6.9802 99.0498 5.8302C98.4798 5.3202 97.6798 4.9702 96.7298 4.7802H96.6798L96.6998 5.8602C96.7298 6.8102 96.7298 7.8602 96.7198 9.0402L96.5298 15.4002L96.4498 20.2502Z" fill="white"/>
<path d="M119.53 3.29989C119.51 3.31989 119.51 3.32989 119.5 3.34989C119.36 3.53989 119.18 3.66989 118.98 3.75989H118.96C118.59 3.94989 118.27 3.92989 118.06 3.92989H117.93H117.83C117.59 3.92989 117.34 3.94989 117.1 3.95989C116.61 4.00989 116.1 4.03989 115.58 4.10989L114.09 4.29989C114.11 4.61989 114.12 4.92989 114.12 5.24989C114.12 5.41989 114.14 5.58989 114.14 5.75989C114.17 6.75989 114.14 7.80989 114.07 8.98989C114.02 10.0399 113.95 11.0899 113.88 12.1399C113.83 13.1899 113.76 14.2399 113.71 15.2899C113.61 17.3699 113.52 19.5099 113.39 21.5899C113.32 22.7799 113.24 23.8299 113.14 24.7899L112.87 27.4799C112.89 28.0699 112.43 28.4799 111.55 28.6799C111.36 28.7299 111.18 28.7599 110.99 28.7599C110.79 28.7599 110.58 28.7299 110.4 28.6799C109.28 28.4299 109.11 27.8199 109.13 27.4299L108.98 24.7399C108.93 23.6599 108.93 22.5899 108.91 21.5599C108.89 19.4099 108.89 17.3299 108.91 15.1999C108.91 13.6399 108.89 12.0299 108.89 10.4899L108.87 8.87989C108.87 7.80989 108.9 6.72989 108.95 5.65989C108.97 5.46989 108.98 5.29989 109 5.12989C109 5.02989 109.02 4.92989 109.02 4.82989C108.88 4.84989 108.73 4.85989 108.6 4.87989C108.3 4.89989 108.02 4.90989 107.75 4.96989H107.67L107.21 5.01989C107.14 5.03989 107.07 5.04989 107.01 5.04989L106.71 5.11989C106.47 5.21989 106.1 5.26989 105.68 4.96989L105.49 4.84989C105.47 4.82989 105.46 4.81989 105.44 4.79989C105.07 4.52989 104.86 4.06989 104.9 3.60989C104.9 3.31989 105.02 2.94989 105.48 2.67989C105.6 2.60989 105.72 2.54989 105.87 2.48989L106.26 2.33989C106.28 2.31989 106.31 2.31989 106.35 2.30989C106.47 2.27989 106.6 2.23989 106.72 2.18989C106.85 2.13989 107.01 2.10989 107.14 2.04989C107.58 1.92989 108.17 1.75989 108.8 1.62989C109.87 1.38989 110.95 1.23989 112.1 1.13989C113.17 1.03989 114.27 1.00989 115.43 1.01989C115.99 1.01989 116.57 1.04989 117.11 1.08989C117.4 1.10989 117.7 1.13989 117.99 1.16989C118.08 1.16989 118.13 1.18989 118.18 1.18989C118.45 1.21989 118.84 1.26989 119.23 1.55989C119.79 1.96989 119.92 2.72989 119.53 3.29989Z" fill="white"/>
<path d="M132.17 26.6602L132.13 26.7002C131.41 27.3502 130.61 27.6202 129.85 27.8102C129.1 27.9902 128.38 28.0802 127.64 28.1002C127.42 28.1202 127.21 28.1202 127.01 28.1202C126.47 28.1202 125.97 28.0802 125.5 28.0102L125.27 27.9802C125 27.9402 124.71 27.9102 124.43 27.8402L123.87 27.6802C123.85 27.6802 123.83 27.6602 123.82 27.6602C123.6 27.5702 123.37 27.4802 123.05 27.2602C122.71 27.0602 122.48 26.7402 122.4 26.3602L122.38 26.2202C122.02 24.4302 121.75 22.5102 121.55 20.3202C121.35 18.5302 121.23 16.5902 121.15 14.4302C121.06 12.2802 121.01 10.4502 121.04 8.60019L121.17 4.03019C121.08 3.90019 120.99 3.78019 120.96 3.65019C120.94 3.63019 120.94 3.60019 120.92 3.58019C120.76 3.02019 120.97 2.43019 121.46 2.11019C122.12 1.66019 122.9 1.34019 123.9 1.14019C124.67 0.980186 125.46 0.890186 126.25 0.870186C127.92 0.830186 129.41 1.01019 130.79 1.43019C131.51 1.65019 131.9 2.38019 131.69 3.08019C131.53 3.60019 131.1 3.96019 130.54 4.01019H130.47C129.48 4.08019 128.5 4.08019 127.54 4.08019C127.13 4.08019 126.72 4.06019 126.3 4.08019C126.3 5.95019 126.27 10.9002 126.09 14.4002C126.04 15.4202 126.02 16.5402 126.02 17.6102C126 17.9502 126 18.2902 126 18.6302C126.27 18.6302 126.56 18.6502 126.83 18.6502C127.21 18.6702 127.57 18.7002 127.94 18.7202C128.1 18.7402 128.28 18.7402 128.46 18.7602C129 18.8002 129.54 18.8502 130.06 18.9002C130.1 18.9002 130.13 18.9202 130.17 18.9202C130.51 18.9702 130.83 19.1702 131.05 19.4602C131.26 19.7302 131.34 20.0702 131.28 20.4302C131.24 20.8202 130.99 21.1802 130.63 21.4002C130.07 21.7102 129.48 21.9402 128.73 22.1202C128.03 22.2602 127.4 22.3402 126.83 22.3502C126.47 22.3702 126.11 22.3702 125.73 22.3502C125.64 23.2702 125.57 24.0602 125.48 24.8102C125.59 24.8102 125.69 24.8302 125.8 24.8302C126.41 24.8702 126.98 24.8802 127.58 24.8802C128.28 24.8802 128.8 24.8402 129.29 24.7902C129.74 24.7502 130.26 24.7002 130.69 24.5402C130.71 24.5202 130.73 24.5202 130.74 24.5002C131.4 24.2302 132.18 24.5502 132.45 25.2202C132.67 25.7302 132.55 26.2802 132.17 26.6602Z" fill="white"/>
<path d="M26.8497 36.8399C26.8297 36.8299 26.8097 36.8199 26.7797 36.8099C26.7497 36.7999 26.7297 36.7899 26.7097 36.7899C26.3997 36.7099 26.2397 36.6599 25.9197 36.5799C25.8597 36.5599 25.7997 36.5499 25.7397 36.5399C25.6797 36.5299 25.6097 36.5099 25.5497 36.4899C25.5197 36.4799 25.4897 36.4699 25.4497 36.4499C25.4197 36.4299 25.3897 36.4199 25.3597 36.3999C25.3297 36.3799 25.3097 36.3599 25.2897 36.3399C25.2697 36.3199 25.2497 36.2999 25.2197 36.2699C25.2497 36.1999 25.3097 36.1699 25.3897 36.1799C25.4897 36.1899 25.5797 36.2099 25.6797 36.2299C25.7797 36.2499 25.8697 36.2599 25.9697 36.2799C26.1197 36.3099 26.2797 36.3399 26.4297 36.3699C26.5797 36.3999 26.7297 36.4399 26.8697 36.4899C26.8797 36.4899 26.8897 36.4899 26.9097 36.4999C26.9297 36.4999 26.9497 36.4999 26.9497 36.4999C26.9697 36.4499 26.9897 36.4099 27.0097 36.3599C27.0297 36.3099 27.0497 36.2699 27.0697 36.2199C27.1097 36.1299 27.1497 36.0399 27.1897 35.9599C27.2297 35.8799 27.2697 35.7899 27.3097 35.6999C27.3297 35.6499 27.3497 35.5999 27.3797 35.5499C27.3997 35.4999 27.4197 35.4499 27.4497 35.3999C27.4497 35.3799 27.4597 35.3699 27.4597 35.3499C27.4797 35.2099 27.5597 35.1399 27.6897 35.1499C27.7497 35.1499 27.8097 35.1499 27.8697 35.1699C27.9297 35.1799 27.9797 35.2199 28.0097 35.2799C28.0397 35.3199 28.0697 35.3699 28.0797 35.4199C28.0997 35.4699 28.0897 35.5199 28.0597 35.5799C28.0397 35.6199 28.0297 35.6699 28.0197 35.7299C28.0097 35.7799 27.9997 35.8299 27.9797 35.8799C27.9497 35.9799 27.9197 36.0799 27.8897 36.1699C27.8497 36.2599 27.8197 36.3499 27.7997 36.4599C27.7697 36.5599 27.7597 36.5999 27.7397 36.6999C27.7797 36.7099 27.8197 36.7199 27.8697 36.7299C27.9097 36.7399 27.9497 36.7599 27.9997 36.7699C28.1497 36.8199 28.3097 36.8599 28.4697 36.9099C28.6197 36.9599 28.7697 37.0199 28.9197 37.0999C28.9497 37.1199 28.9797 37.1299 29.0197 37.1599C29.0497 37.1799 29.0797 37.1999 29.1097 37.2299C29.1197 37.2399 29.1297 37.2499 29.1297 37.2599C29.1397 37.2699 29.1397 37.2799 29.1597 37.2899C29.1197 37.3199 29.0697 37.3299 29.0297 37.3299C28.9897 37.3299 28.9497 37.3199 28.9097 37.3099C28.8297 37.2899 28.7497 37.2699 28.6697 37.2499C28.5897 37.2299 28.5097 37.2099 28.4297 37.1999C28.3097 37.1799 28.1997 37.1599 28.0797 37.1399C27.9597 37.1199 27.8497 37.0999 27.7297 37.0699C27.7197 37.0699 27.7097 37.0699 27.6997 37.0699C27.6897 37.0699 27.6697 37.0699 27.6597 37.0699C27.6597 37.0899 27.6497 37.1299 27.6297 37.1799C27.6197 37.2399 27.5997 37.3099 27.5797 37.3799C27.5597 37.4599 27.5397 37.5399 27.5097 37.6299C27.4897 37.7199 27.4597 37.7999 27.4397 37.8799C27.4197 37.9599 27.3997 38.0199 27.3797 38.0799C27.3697 38.1399 27.3597 38.1799 27.3497 38.1999C27.2797 38.4899 27.2397 38.6299 27.1697 38.9199C27.1497 38.9999 27.1197 39.1199 27.0797 39.2799C27.0397 39.4399 26.9997 39.6199 26.9597 39.8199C26.9197 40.0199 26.8697 40.2299 26.8197 40.4499C26.7697 40.6699 26.7297 40.8799 26.6897 41.0799C26.6497 41.2799 26.6197 41.4599 26.5897 41.6299C26.5597 41.7899 26.5497 41.9199 26.5497 41.9999C26.5497 42.1299 26.5397 42.2599 26.5397 42.3899C26.5397 42.5199 26.5497 42.6499 26.5597 42.7799C26.5597 42.7999 26.5597 42.8199 26.5597 42.8499C26.5597 42.8699 26.5597 42.8999 26.5597 42.9199C26.5597 42.9499 26.5697 42.9799 26.5697 43.0099C26.5797 43.0399 26.5797 43.0699 26.5897 43.0899C26.6097 43.1499 26.6197 43.1999 26.6397 43.2499C26.6597 43.2999 26.6697 43.3499 26.6897 43.4099C26.7097 43.4599 26.6997 43.4899 26.6797 43.5199C26.6597 43.5499 26.6097 43.5599 26.5597 43.5599C26.4697 43.5599 26.3797 43.5299 26.2997 43.4999C26.2197 43.4699 26.1397 43.4199 26.0597 43.3799C25.9397 43.3099 25.8497 43.2199 25.7797 43.1199C25.7097 43.0199 25.6597 42.9099 25.6197 42.7799C25.5597 42.5899 25.5297 42.3899 25.5297 42.2099C25.5197 42.0199 25.5197 41.8299 25.5297 41.6299C25.5297 41.5799 25.5497 41.4899 25.5697 41.3599C25.5997 41.2299 25.6297 41.0899 25.6697 40.9199C25.7097 40.7499 25.7497 40.5799 25.7897 40.3899C25.8297 40.2099 25.8797 40.0299 25.9197 39.8599C25.9597 39.6899 25.9897 39.5499 26.0297 39.4299C26.0597 39.2999 26.0897 39.2199 26.0997 39.1699C26.1397 39.0399 26.1697 38.9099 26.2097 38.7899C26.2397 38.6599 26.2797 38.5399 26.3197 38.4199C26.3297 38.3799 26.3497 38.3199 26.3797 38.2399C26.4097 38.1599 26.4397 38.0699 26.4697 37.9699C26.4997 37.8699 26.5397 37.7699 26.5697 37.6599C26.6097 37.5499 26.6397 37.4499 26.6697 37.3499C26.6997 37.2499 26.7297 37.1599 26.7597 37.0799C26.7897 36.9999 26.8097 36.9399 26.8197 36.8999C26.8397 36.8699 26.8397 36.8599 26.8497 36.8399Z" fill="white"/>
<path d="M31.9501 42.0902C31.8501 42.2202 31.7501 42.3502 31.6401 42.4702C31.5401 42.6002 31.4301 42.7202 31.3201 42.8402C31.2201 42.9602 31.1001 43.0702 30.9801 43.1702C30.8601 43.2702 30.7301 43.3702 30.6001 43.4602C30.4001 43.6002 30.1801 43.7002 29.9601 43.7402C29.7301 43.7902 29.4901 43.7602 29.2301 43.6702C28.9601 43.5802 28.7401 43.4402 28.5801 43.2602C28.4201 43.0802 28.3001 42.8602 28.2301 42.6002C28.1801 42.4202 28.1501 42.2302 28.1501 42.0502C28.1401 41.8702 28.1601 41.6802 28.1801 41.5002C28.2001 41.3602 28.2201 41.2102 28.2601 41.0802C28.3001 40.9402 28.3401 40.8002 28.3801 40.6702C28.4201 40.5302 28.4701 40.3902 28.5301 40.2502C28.5901 40.1102 28.6601 39.9802 28.7401 39.8502C28.8501 39.6602 28.9701 39.4802 29.1101 39.3102C29.2401 39.1402 29.4001 38.9902 29.5901 38.8502C29.7001 38.7702 29.8201 38.7002 29.9401 38.6402C30.0601 38.5802 30.1901 38.5402 30.3301 38.5002C30.4501 38.4702 30.5601 38.4602 30.6801 38.4502C30.8001 38.4402 30.9101 38.4502 31.0301 38.4702C31.1601 38.4902 31.2801 38.5302 31.4001 38.5802C31.5201 38.6302 31.6301 38.7102 31.7201 38.8102C31.7401 38.8402 31.7701 38.8602 31.7901 38.8902C31.8201 38.9202 31.8401 38.9402 31.8701 38.9702C31.9701 39.0602 32.0401 39.1702 32.1001 39.2802C32.1601 39.3902 32.2101 39.5102 32.2501 39.6402C32.2901 39.7702 32.3101 39.8902 32.3001 40.0202C32.2901 40.1502 32.2601 40.2702 32.2001 40.4002C32.0201 40.8102 31.7301 41.1302 31.3201 41.3602C31.2001 41.4302 31.0801 41.4902 30.9601 41.5502C30.8401 41.6102 30.7101 41.6702 30.5801 41.7102C30.4001 41.7702 30.2101 41.8202 30.0301 41.8402C29.8401 41.8602 29.6501 41.8502 29.4501 41.8102C29.4501 41.8102 29.4301 41.8102 29.4001 41.8102C29.3901 41.9602 29.4001 42.1102 29.4101 42.2502C29.4301 42.3902 29.4801 42.5302 29.5501 42.6602C29.6101 42.7702 29.6901 42.8602 29.7901 42.9302C29.8801 43.0002 29.9901 43.0502 30.1101 43.0902C30.1601 43.1102 30.2101 43.1102 30.2501 43.0902C30.2901 43.0802 30.3401 43.0602 30.3801 43.0402C30.4801 42.9902 30.5701 42.9302 30.6601 42.8702C30.7501 42.8102 30.8301 42.7302 30.9101 42.6602C31.0201 42.5602 31.1201 42.4502 31.2201 42.3402C31.3201 42.2302 31.4101 42.1202 31.4901 42.0002C31.5301 41.9402 31.5801 41.9002 31.6301 41.8602C31.6801 41.8302 31.7501 41.8002 31.8101 41.8202C31.8501 41.8302 31.8901 41.8502 31.9201 41.8802C31.9401 41.9002 31.9601 41.9302 31.9601 41.9602C32.0001 42.0102 31.9901 42.0502 31.9501 42.0902ZM29.4401 41.5102C29.4901 41.5202 29.5301 41.5202 29.5701 41.5302C29.6101 41.5402 29.6501 41.5402 29.6901 41.5402C29.8201 41.5402 29.9501 41.5302 30.0801 41.5002C30.2101 41.4702 30.3301 41.4402 30.4501 41.3902C30.5501 41.3502 30.6401 41.3102 30.7301 41.2702C30.8201 41.2302 30.9101 41.1802 31.0001 41.1302C31.1801 41.0302 31.3301 40.9102 31.4601 40.7702C31.5801 40.6202 31.6801 40.4502 31.7601 40.2802C31.7901 40.2002 31.8201 40.1202 31.8201 40.0302C31.8201 39.9502 31.8001 39.8702 31.7501 39.7802C31.6601 39.6202 31.5501 39.5102 31.4001 39.4302C31.2501 39.3602 31.0901 39.3402 30.9101 39.3802C30.7601 39.4102 30.6201 39.4702 30.4901 39.5502C30.3601 39.6302 30.2501 39.7302 30.1501 39.8402C29.9801 40.0302 29.8501 40.2502 29.7401 40.4902C29.6801 40.6202 29.6301 40.7502 29.5801 40.8802C29.5401 41.0102 29.5001 41.1502 29.4701 41.2902C29.4601 41.3302 29.4601 41.3702 29.4601 41.4002C29.4401 41.4202 29.4401 41.4702 29.4401 41.5102Z" fill="white"/>
<path d="M33.3598 42.63C33.3998 42.57 33.4298 42.5 33.4698 42.43C33.5098 42.36 33.5398 42.3 33.5698 42.23C33.6198 42.12 33.6798 42.01 33.7398 41.91C33.7998 41.8 33.8698 41.7 33.9398 41.6C34.0198 41.49 34.0898 41.38 34.1798 41.27C34.2598 41.16 34.3398 41.05 34.4298 40.94C34.5098 40.84 34.5798 40.75 34.6698 40.66C34.7498 40.57 34.8298 40.48 34.9098 40.39C34.9798 40.32 35.0398 40.25 35.1098 40.18C35.1798 40.11 35.2498 40.04 35.3198 39.97C35.3698 39.93 35.4198 39.88 35.4698 39.85C35.5198 39.81 35.5798 39.77 35.6298 39.73C35.6598 39.71 35.6898 39.69 35.7198 39.67C35.7498 39.65 35.7798 39.63 35.8098 39.61C35.8698 39.56 35.9398 39.54 36.0098 39.56C36.0498 39.57 36.0798 39.58 36.1198 39.59C36.1498 39.6 36.1898 39.61 36.2198 39.62C36.2598 39.63 36.2898 39.65 36.3098 39.68C36.3298 39.71 36.3498 39.74 36.3598 39.77C36.3798 39.81 36.3998 39.85 36.4098 39.89C36.4198 39.93 36.4198 39.97 36.4298 40.02C36.4398 40.2 36.4298 40.37 36.3998 40.54C36.3698 40.71 36.3298 40.88 36.2898 41.05C36.2498 41.19 36.2098 41.34 36.1698 41.48C36.1298 41.62 36.0898 41.77 36.0498 41.91C35.9898 42.16 35.9198 42.41 35.8598 42.66C35.7998 42.91 35.7498 43.17 35.7198 43.42C35.6998 43.54 35.6898 43.67 35.6698 43.79C35.6498 43.91 35.6398 44.04 35.6398 44.16C35.6398 44.2 35.6398 44.24 35.6398 44.27C35.6398 44.3 35.6398 44.34 35.6398 44.38C35.6398 44.41 35.6398 44.44 35.6398 44.46C35.6398 44.49 35.6198 44.51 35.5898 44.54C35.5898 44.6 35.5598 44.64 35.5198 44.66C35.4798 44.68 35.4298 44.7 35.3798 44.71C35.3298 44.72 35.2798 44.73 35.2298 44.74C35.1798 44.75 35.1298 44.76 35.0798 44.77C34.9998 44.78 34.9198 44.76 34.8398 44.72C34.7598 44.68 34.7098 44.62 34.6698 44.56C34.6598 44.54 34.6598 44.53 34.6598 44.51C34.6598 44.49 34.6598 44.47 34.6598 44.45C34.6598 44.44 34.6598 44.42 34.6598 44.41C34.6598 44.4 34.6598 44.38 34.6598 44.37C34.6598 43.98 34.7098 43.58 34.7898 43.2C34.8098 43.13 34.8198 43.05 34.8298 42.97C34.8398 42.9 34.8598 42.82 34.8798 42.75C34.9098 42.63 34.9398 42.51 34.9798 42.39C35.0198 42.27 35.0498 42.15 35.0898 42.03C35.1198 41.93 35.1498 41.83 35.1898 41.74C35.2198 41.64 35.2598 41.54 35.2998 41.45C35.3298 41.38 35.3598 41.3 35.3898 41.22C35.4198 41.14 35.4498 41.07 35.4798 40.99C35.5398 40.85 35.5898 40.7 35.6498 40.56C35.7098 40.42 35.7498 40.26 35.7898 40.12C35.7998 40.1 35.7998 40.08 35.7998 40.06C35.7998 40.04 35.8098 40.01 35.8098 39.99C35.6798 40.04 35.5798 40.11 35.4898 40.2C35.4398 40.25 35.3898 40.3 35.3398 40.36C35.2898 40.41 35.2498 40.47 35.1998 40.52C35.1498 40.58 35.0898 40.64 35.0398 40.69C34.9898 40.75 34.9298 40.8 34.8798 40.86C34.8198 40.92 34.7698 40.99 34.7198 41.05C34.6498 41.14 34.5798 41.24 34.5098 41.33C34.4398 41.42 34.3698 41.52 34.2998 41.61C34.2698 41.65 34.2398 41.7 34.2098 41.75C34.1798 41.8 34.1498 41.85 34.1198 41.9C34.0398 42.03 33.9698 42.15 33.8998 42.28C33.8298 42.41 33.7498 42.53 33.6798 42.66C33.6398 42.72 33.6098 42.79 33.5798 42.86C33.5498 42.93 33.5198 42.99 33.4798 43.06C33.4298 43.15 33.3898 43.25 33.3598 43.36C33.3298 43.46 33.2898 43.57 33.2598 43.67C33.2398 43.72 33.2198 43.76 33.1998 43.81C33.1798 43.86 33.1598 43.9 33.1398 43.95C33.1198 43.99 33.1098 44.04 33.0998 44.08C33.0898 44.12 33.0698 44.16 33.0398 44.2C33.0098 44.26 32.9698 44.32 32.9198 44.37C32.8998 44.39 32.8798 44.41 32.8598 44.42C32.8398 44.43 32.8098 44.44 32.7798 44.45C32.7498 44.45 32.7198 44.45 32.6998 44.45C32.6698 44.44 32.6398 44.44 32.6098 44.43C32.5798 44.42 32.5498 44.42 32.5298 44.41C32.5098 44.4 32.4898 44.39 32.4698 44.36C32.3998 44.26 32.3598 44.16 32.3398 44.06C32.3098 43.91 32.2998 43.76 32.2998 43.61C32.2998 43.46 32.3098 43.32 32.3198 43.17C32.3398 43 32.3498 42.83 32.3698 42.66C32.3798 42.49 32.3998 42.32 32.4298 42.15C32.4598 41.95 32.4998 41.75 32.5398 41.55C32.5798 41.35 32.6198 41.15 32.6698 40.95C32.6998 40.79 32.7398 40.64 32.7798 40.49C32.8198 40.34 32.8598 40.18 32.9098 40.02C32.9598 39.83 33.0198 39.62 33.0898 39.42C33.1098 39.36 33.1398 39.31 33.1698 39.25C33.1998 39.19 33.2398 39.15 33.2898 39.1C33.3398 39.06 33.3998 39.04 33.4498 39.04C33.4998 39.04 33.5498 39.05 33.5898 39.07C33.6298 39.09 33.6598 39.13 33.6798 39.18C33.6998 39.24 33.7198 39.29 33.7298 39.34C33.7398 39.39 33.7398 39.45 33.7398 39.51C33.7298 39.58 33.7298 39.65 33.7198 39.72C33.7198 39.79 33.7098 39.86 33.7098 39.93C33.7098 40.03 33.6998 40.13 33.6898 40.22C33.6798 40.31 33.6598 40.41 33.6498 40.51C33.6298 40.66 33.5998 40.8 33.5798 40.95C33.5598 41.09 33.5398 41.24 33.5098 41.39C33.4798 41.55 33.4598 41.7 33.4298 41.86C33.3998 42.02 33.3798 42.17 33.3498 42.33C33.3398 42.38 33.3398 42.43 33.3298 42.48C33.3198 42.53 33.3198 42.58 33.3198 42.63C33.3398 42.63 33.3498 42.63 33.3598 42.63Z" fill="white"/>
<path d="M40.0801 43.66C39.9901 43.79 39.8901 43.93 39.8001 44.06C39.7001 44.19 39.6001 44.32 39.5001 44.45C39.4001 44.57 39.3001 44.69 39.1801 44.8C39.0601 44.91 38.9401 45.01 38.8201 45.11C38.6301 45.26 38.4201 45.37 38.2001 45.42C37.9801 45.47 37.7401 45.47 37.4701 45.39C37.2001 45.31 36.9801 45.19 36.8001 45.01C36.6301 44.84 36.5001 44.62 36.4101 44.37C36.3501 44.19 36.3201 44 36.3001 43.82C36.2801 43.64 36.2901 43.45 36.3001 43.27C36.3101 43.13 36.3301 42.98 36.3601 42.84C36.3901 42.7 36.4201 42.56 36.4501 42.42C36.4801 42.28 36.5301 42.13 36.5801 42C36.6301 41.86 36.7001 41.73 36.7601 41.59C36.8601 41.4 36.9701 41.21 37.1001 41.03C37.2301 40.85 37.3701 40.69 37.5501 40.55C37.6601 40.46 37.7701 40.39 37.8901 40.32C38.0101 40.26 38.1401 40.2 38.2701 40.16C38.3801 40.13 38.5001 40.1 38.6101 40.09C38.7301 40.08 38.8401 40.08 38.9601 40.09C39.0901 40.11 39.2201 40.14 39.3401 40.18C39.4601 40.22 39.5701 40.29 39.6701 40.39C39.7001 40.42 39.7201 40.44 39.7501 40.47C39.7801 40.49 39.8101 40.52 39.8301 40.54C39.9301 40.63 40.0101 40.73 40.0801 40.84C40.1501 40.95 40.2001 41.07 40.2501 41.19C40.3001 41.31 40.3201 41.44 40.3201 41.57C40.3201 41.7 40.2901 41.83 40.2401 41.95C40.0801 42.37 39.8101 42.71 39.4101 42.96C39.3001 43.03 39.1801 43.1 39.0601 43.17C38.9401 43.24 38.8201 43.3 38.7001 43.35C38.5201 43.42 38.3401 43.47 38.1501 43.51C37.9701 43.54 37.7701 43.54 37.5701 43.51C37.5701 43.51 37.5501 43.51 37.5201 43.51C37.5201 43.66 37.5301 43.81 37.5601 43.95C37.5901 44.09 37.6401 44.23 37.7201 44.36C37.7901 44.47 37.8701 44.55 37.9701 44.62C38.0701 44.68 38.1801 44.73 38.3001 44.76C38.3501 44.77 38.4001 44.77 38.4401 44.75C38.4801 44.73 38.5301 44.72 38.5701 44.69C38.6701 44.64 38.7601 44.57 38.8401 44.5C38.9201 44.43 39.0001 44.35 39.0801 44.27C39.1801 44.16 39.2801 44.05 39.3701 43.94C39.4601 43.83 39.5501 43.71 39.6201 43.58C39.6601 43.52 39.7001 43.48 39.7501 43.44C39.8001 43.4 39.8601 43.38 39.9301 43.39C39.9701 43.39 40.0101 43.42 40.0401 43.44C40.0601 43.46 40.0801 43.49 40.0901 43.52C40.1201 43.57 40.1101 43.61 40.0801 43.66ZM37.5401 43.21C37.5901 43.21 37.6301 43.22 37.6701 43.22C37.7101 43.22 37.7501 43.22 37.7901 43.22C37.9201 43.22 38.0501 43.2 38.1801 43.16C38.3101 43.12 38.4201 43.08 38.5401 43.03C38.6301 42.99 38.7201 42.94 38.8101 42.89C38.9001 42.84 38.9801 42.79 39.0701 42.74C39.2501 42.63 39.3901 42.51 39.5101 42.35C39.6301 42.2 39.7101 42.02 39.7801 41.84C39.8101 41.76 39.8301 41.67 39.8201 41.59C39.8101 41.51 39.7901 41.43 39.7401 41.35C39.6501 41.2 39.5301 41.09 39.3801 41.02C39.2301 40.95 39.0701 40.94 38.8901 40.99C38.7401 41.03 38.6001 41.1 38.4801 41.18C38.3601 41.27 38.2501 41.37 38.1601 41.49C38.0001 41.69 37.8801 41.92 37.7801 42.16C37.7301 42.29 37.6801 42.42 37.6401 42.55C37.6001 42.68 37.5701 42.82 37.5601 42.96C37.5601 43 37.5501 43.04 37.5501 43.07C37.5401 43.12 37.5401 43.17 37.5401 43.21Z" fill="white"/>
<path d="M41.61 42.6598C41.65 42.5898 41.69 42.5298 41.72 42.4798C41.75 42.4298 41.78 42.3698 41.82 42.3198C41.89 42.2098 41.97 42.0898 42.04 41.9798C42.11 41.8698 42.19 41.7598 42.27 41.6498C42.34 41.5698 42.41 41.4898 42.5 41.4298C42.59 41.3698 42.69 41.3298 42.8 41.3098C42.88 41.2898 42.97 41.2998 43.05 41.3498C43.09 41.3698 43.12 41.3998 43.16 41.4198C43.19 41.4398 43.23 41.4598 43.27 41.4898C43.31 41.5198 43.35 41.5598 43.37 41.5998C43.39 41.6398 43.41 41.6898 43.44 41.7298C43.6 42.0698 43.65 42.4298 43.6 42.7898C43.59 42.8498 43.58 42.9098 43.58 42.9698C43.57 43.0298 43.57 43.0898 43.56 43.1498C43.56 43.1598 43.56 43.1798 43.57 43.2198C43.61 43.1498 43.64 43.0898 43.68 43.0298C43.71 42.9698 43.75 42.9098 43.78 42.8498C43.89 42.6598 44.01 42.4798 44.13 42.2998C44.25 42.1198 44.39 41.9598 44.55 41.7998C44.66 41.6898 44.77 41.5998 44.89 41.5198C45.01 41.4398 45.15 41.3798 45.29 41.3298C45.39 41.2998 45.49 41.2798 45.59 41.2898C45.69 41.2998 45.79 41.3198 45.88 41.3598C45.93 41.3798 45.97 41.4198 46.01 41.4598C46.04 41.4998 46.07 41.5498 46.08 41.5998C46.21 41.9098 46.27 42.2198 46.25 42.5398C46.24 42.6698 46.23 42.8098 46.23 42.9398C46.22 43.0698 46.22 43.2098 46.21 43.3398C46.2 43.4998 46.18 43.6598 46.15 43.8198C46.12 43.9798 46.09 44.1398 46.05 44.2898C46.01 44.4398 45.97 44.6098 45.95 44.7698C45.93 44.9298 45.91 45.0998 45.9 45.2598C45.89 45.3398 45.89 45.4198 45.88 45.4998C45.87 45.5798 45.87 45.6598 45.86 45.7398C45.86 45.7598 45.86 45.7798 45.86 45.7998C45.86 45.8198 45.86 45.8398 45.86 45.8698C45.86 45.8998 45.86 45.9298 45.86 45.9598C45.85 45.9898 45.84 46.0198 45.81 46.0498C45.79 46.0698 45.77 46.0898 45.76 46.1198C45.75 46.1398 45.74 46.1698 45.72 46.1898C45.7 46.2298 45.67 46.2698 45.64 46.2998C45.6 46.3298 45.57 46.3498 45.53 46.3598C45.48 46.3698 45.42 46.3798 45.36 46.3998C45.3 46.4098 45.24 46.4098 45.18 46.3798C45.12 46.3598 45.09 46.3098 45.08 46.2398C45.06 46.1198 45.04 45.9998 45.04 45.8798C45.03 45.7598 45.03 45.6298 45.05 45.5098C45.06 45.4198 45.07 45.3298 45.08 45.2298C45.09 45.1398 45.11 45.0498 45.12 44.9498C45.14 44.8298 45.17 44.7098 45.19 44.5998C45.22 44.4798 45.24 44.3598 45.26 44.2498C45.28 44.1798 45.29 44.0998 45.3 44.0298C45.31 43.9598 45.32 43.8798 45.34 43.8098C45.36 43.7298 45.38 43.6498 45.41 43.5698C45.44 43.4898 45.46 43.4098 45.48 43.3298C45.51 43.2198 45.54 43.1098 45.57 43.0098C45.6 42.8998 45.63 42.7998 45.65 42.6898C45.67 42.5898 45.69 42.4898 45.71 42.3898C45.73 42.2898 45.75 42.1898 45.77 42.0898C45.79 41.9898 45.79 41.8998 45.78 41.8098C45.77 41.7698 45.75 41.7498 45.72 41.7498C45.68 41.7498 45.64 41.7498 45.6 41.7498C45.56 41.7498 45.53 41.7598 45.49 41.7798C45.33 41.8498 45.18 41.9398 45.06 42.0598C44.93 42.1698 44.82 42.2998 44.71 42.4298C44.63 42.5298 44.56 42.6298 44.49 42.7398C44.42 42.8398 44.35 42.9498 44.28 43.0598C44.23 43.1398 44.18 43.2198 44.13 43.2998C44.09 43.3798 44.04 43.4598 44 43.5498C43.94 43.6598 43.89 43.7798 43.84 43.8998C43.79 44.0198 43.74 44.1298 43.69 44.2498C43.65 44.3398 43.62 44.4298 43.6 44.5298C43.58 44.6198 43.55 44.7198 43.53 44.8098C43.49 44.9598 43.46 45.1098 43.43 45.2598C43.4 45.4098 43.36 45.5598 43.32 45.7098C43.3 45.7898 43.27 45.8698 43.21 45.9398C43.16 46.0098 43.09 46.0598 42.99 46.0998C42.96 46.1098 42.94 46.1198 42.91 46.1298C42.89 46.1398 42.86 46.1598 42.84 46.1698C42.83 46.1798 42.82 46.1798 42.82 46.1798C42.81 46.1798 42.8 46.1798 42.8 46.1798C42.74 46.1898 42.67 46.1698 42.6 46.1398C42.53 46.0998 42.48 46.0498 42.45 45.9998C42.41 45.9198 42.39 45.8498 42.38 45.7698C42.37 45.6898 42.37 45.6098 42.37 45.5298C42.37 45.4098 42.37 45.2798 42.37 45.1498C42.38 45.0298 42.39 44.8998 42.41 44.7698C42.41 44.7498 42.42 44.7298 42.42 44.6998C42.42 44.6798 42.42 44.6498 42.42 44.6298C42.42 44.6098 42.42 44.5798 42.43 44.5598C42.44 44.5398 42.45 44.5198 42.47 44.4998C42.47 44.4898 42.48 44.4798 42.48 44.4598C42.48 44.4198 42.48 44.3798 42.48 44.3298C42.48 44.2898 42.48 44.2498 42.49 44.2098C42.5 44.1598 42.51 44.1098 42.52 44.0498C42.53 43.9998 42.54 43.9398 42.55 43.8898C42.55 43.8698 42.56 43.8598 42.56 43.8298C42.56 43.8098 42.56 43.7898 42.56 43.7698C42.61 43.5498 42.64 43.4398 42.69 43.2298C42.71 43.1598 42.73 43.0898 42.74 43.0198C42.76 42.9498 42.78 42.8798 42.79 42.8098C42.81 42.7198 42.84 42.6298 42.86 42.5398C42.88 42.4498 42.91 42.3598 42.93 42.2698C42.95 42.1898 42.96 42.1098 42.97 42.0398C42.98 41.9598 42.98 41.8798 42.96 41.7898C42.89 41.8298 42.83 41.8698 42.77 41.9198C42.71 41.9698 42.66 42.0198 42.61 42.0898C42.58 42.1298 42.55 42.1698 42.52 42.1998C42.48 42.2398 42.45 42.2698 42.42 42.3098C42.35 42.3898 42.3 42.4798 42.25 42.5698C42.2 42.6598 42.16 42.7498 42.11 42.8498C42.07 42.9398 42.03 43.0198 41.99 43.1098C41.95 43.1898 41.91 43.2798 41.87 43.3698C41.81 43.5098 41.75 43.6498 41.7 43.7898C41.65 43.9298 41.61 44.0798 41.58 44.2298C41.57 44.2998 41.56 44.3598 41.54 44.4198C41.52 44.4798 41.51 44.5498 41.5 44.6098C41.48 44.7198 41.47 44.8298 41.45 44.9298C41.44 45.0398 41.43 45.1398 41.42 45.2498C41.41 45.3098 41.41 45.3698 41.39 45.4298C41.38 45.4898 41.37 45.5498 41.37 45.6098C41.37 45.6298 41.37 45.6598 41.36 45.6798C41.35 45.6998 41.35 45.7298 41.35 45.7498C41.34 45.8098 41.33 45.8598 41.3 45.8998C41.28 45.9398 41.25 45.9598 41.22 45.9798C41.19 45.9998 41.15 46.0098 41.11 46.0098C41.07 46.0198 41.03 46.0198 40.99 46.0098C40.95 45.9998 40.91 45.9998 40.87 45.9898C40.84 45.9898 40.82 45.9798 40.8 45.9698C40.78 45.9598 40.76 45.9398 40.74 45.9298C40.71 45.9098 40.69 45.8998 40.68 45.8898C40.67 45.8798 40.66 45.8598 40.64 45.8298C40.59 45.7398 40.57 45.6498 40.56 45.5498C40.56 45.4898 40.55 45.4298 40.55 45.3698C40.55 45.3098 40.55 45.2498 40.54 45.1898C40.54 45.0698 40.54 44.9398 40.54 44.8098C40.54 44.6798 40.54 44.5598 40.55 44.4298C40.55 44.2898 40.56 44.1598 40.56 44.0298C40.56 43.8998 40.57 43.7698 40.59 43.6298C40.63 43.1898 40.68 42.7398 40.74 42.2998C40.76 42.1398 40.78 41.9698 40.81 41.8098C40.84 41.6498 40.87 41.4898 40.9 41.3198C40.92 41.1998 40.95 41.0798 40.98 40.9598C41.01 40.8398 41.04 40.7098 41.06 40.5998C41.07 40.5598 41.09 40.5298 41.14 40.5198C41.21 40.4998 41.27 40.4998 41.35 40.5298C41.42 40.5598 41.47 40.5998 41.5 40.6698C41.53 40.7298 41.56 40.7898 41.58 40.8598C41.6 40.9198 41.62 40.9898 41.62 41.0598C41.62 41.1198 41.63 41.1798 41.64 41.2398C41.65 41.2998 41.65 41.3598 41.65 41.4198C41.65 41.4998 41.65 41.5798 41.64 41.6598C41.63 41.7398 41.63 41.8198 41.63 41.8998C41.63 42.0198 41.61 42.1498 41.6 42.2798C41.59 42.3798 41.59 42.5198 41.61 42.6598Z" fill="white"/>
<path d="M50.3001 44.4498C50.2701 44.6098 50.2601 44.7698 50.2401 44.8998C50.2201 45.0298 50.1901 45.1598 50.1401 45.2798C50.1001 45.3798 50.0601 45.4798 50.0101 45.5798C49.9701 45.6798 49.9101 45.7798 49.8501 45.8698C49.7901 45.9598 49.7201 46.0498 49.6601 46.1298C49.6001 46.2098 49.5301 46.2998 49.4601 46.3898C49.3901 46.4798 49.3101 46.5498 49.2201 46.6098C49.1301 46.6698 49.0401 46.7298 48.9401 46.7798C48.9301 46.7898 48.9301 46.7898 48.9201 46.7898C48.9101 46.7898 48.9101 46.7998 48.9001 46.7998C48.7701 46.8798 48.6301 46.9298 48.4901 46.9398C48.3401 46.9498 48.2001 46.9498 48.0501 46.9298C47.9901 46.9198 47.9201 46.9098 47.8601 46.8898C47.8001 46.8698 47.7401 46.8498 47.6701 46.8298C47.3601 46.7298 47.1101 46.5798 46.9301 46.3798C46.7501 46.1798 46.6101 45.9298 46.5201 45.6498C46.4401 45.3998 46.4001 45.1498 46.3901 44.8998C46.3901 44.6498 46.4201 44.3998 46.4701 44.1498C46.5101 43.9598 46.5701 43.7798 46.6301 43.5998C46.6901 43.4198 46.7701 43.2498 46.8601 43.0798C46.9901 42.8298 47.1401 42.5898 47.3201 42.3798C47.5001 42.1698 47.7101 41.9798 47.9501 41.8198C48.2701 41.6098 48.6401 41.5198 49.0301 41.5398C49.2101 41.5498 49.3801 41.5998 49.5201 41.6898C49.6601 41.7798 49.7801 41.8998 49.8801 42.0498C50.0001 42.2198 50.0801 42.3998 50.1301 42.5898C50.1801 42.7798 50.2201 42.9698 50.2501 43.1598C50.2701 43.2798 50.2801 43.3998 50.2801 43.5198C50.2901 43.6398 50.2901 43.7598 50.3001 43.8798C50.3101 43.9798 50.3101 44.0798 50.3201 44.1898C50.3201 44.2998 50.3101 44.3898 50.3001 44.4498ZM47.6201 44.6898C47.6101 44.8098 47.6101 44.9698 47.6401 45.1398C47.6601 45.3098 47.7201 45.4898 47.8201 45.6598C47.9201 45.8398 48.0501 45.9798 48.2101 46.0798C48.3701 46.1798 48.5701 46.2398 48.7801 46.2398C48.8301 46.2398 48.8801 46.2298 48.9301 46.2198C48.9801 46.2098 49.0301 46.1898 49.0801 46.1798C49.1801 46.1398 49.2601 46.0898 49.3301 46.0098C49.3901 45.9298 49.4501 45.8598 49.5101 45.7698C49.6001 45.6298 49.6701 45.4898 49.7101 45.3398C49.7501 45.1898 49.7901 45.0398 49.8201 44.8898C49.8501 44.7598 49.8701 44.6298 49.8801 44.4998C49.8901 44.3698 49.8901 44.2398 49.8801 44.1098C49.8701 44.0198 49.8601 43.9198 49.8601 43.8298C49.8501 43.7398 49.8501 43.6398 49.8301 43.5498C49.8101 43.4198 49.7901 43.2898 49.7601 43.1498C49.7301 43.0198 49.6801 42.8898 49.6301 42.7698C49.5801 42.6598 49.5101 42.5498 49.4401 42.4598C49.3701 42.3698 49.2701 42.2898 49.1501 42.2298C49.0501 42.1798 48.9601 42.1598 48.8901 42.1698C48.8201 42.1798 48.7401 42.2298 48.6701 42.3098C48.4501 42.5298 48.2601 42.7798 48.1101 43.0598C47.9901 43.2898 47.8801 43.5498 47.8001 43.8098C47.7301 44.0698 47.6601 44.3698 47.6201 44.6898Z" fill="white"/>
<path d="M50.72 44.9201C50.8 45.0101 50.87 45.0901 50.94 45.1801C51 45.2701 51.04 45.3701 51.05 45.4901C51.06 45.5901 51.07 45.7001 51.09 45.7901C51.11 45.8901 51.15 45.9901 51.2 46.0801C51.24 46.1401 51.27 46.1901 51.32 46.2301C51.36 46.2801 51.4 46.3201 51.45 46.3601C51.49 46.3901 51.54 46.4201 51.59 46.4301C51.64 46.4401 51.7 46.4501 51.75 46.4501C51.79 46.4501 51.83 46.4401 51.86 46.4201C51.91 46.3801 51.95 46.3501 51.99 46.3001C52.03 46.2601 52.06 46.2101 52.09 46.1501C52.16 45.9901 52.2 45.8301 52.22 45.6601C52.24 45.5001 52.23 45.3201 52.2 45.1501C52.18 45.0401 52.15 44.9401 52.1 44.8401C52.05 44.7401 52.01 44.6401 51.95 44.5501C51.89 44.4401 51.82 44.3401 51.76 44.2401C51.7 44.1401 51.64 44.0301 51.59 43.9301C51.53 43.8001 51.47 43.6701 51.41 43.5301C51.36 43.4001 51.32 43.2601 51.3 43.1101C51.28 43.0001 51.29 42.8901 51.3 42.7901C51.32 42.6801 51.35 42.5801 51.4 42.4801C51.45 42.3801 51.51 42.2901 51.58 42.2101C51.66 42.1301 51.74 42.0601 51.84 42.0101C51.87 41.9901 51.9 41.9801 51.93 41.9601C51.96 41.9501 51.99 41.9301 52.02 41.9201C52.11 41.8801 52.2 41.8601 52.3 41.8501C52.4 41.8501 52.49 41.8601 52.58 41.8801C52.67 41.9101 52.76 41.9501 52.84 41.9901C52.92 42.0401 52.99 42.1001 53.04 42.1601C53.16 42.2901 53.26 42.4301 53.36 42.5901C53.4 42.6501 53.42 42.7101 53.45 42.7701C53.47 42.8301 53.5 42.8901 53.52 42.9501C53.53 42.9901 53.55 43.0301 53.56 43.0701C53.57 43.1101 53.59 43.1501 53.6 43.1801C53.62 43.2301 53.61 43.2801 53.57 43.3201C53.56 43.3401 53.54 43.3501 53.53 43.3601C53.52 43.3701 53.49 43.3701 53.47 43.3601C53.43 43.3501 53.4 43.3201 53.39 43.2701C53.39 43.2401 53.38 43.2101 53.38 43.1701C53.38 43.1401 53.37 43.1101 53.36 43.0801C53.32 42.9601 53.27 42.8501 53.21 42.7501C53.14 42.6501 53.06 42.5601 52.96 42.4801C52.92 42.4501 52.87 42.4201 52.82 42.4001C52.77 42.3801 52.72 42.3601 52.67 42.3401C52.64 42.3301 52.6 42.3301 52.57 42.3301C52.54 42.3401 52.51 42.3501 52.48 42.3801C52.4 42.4501 52.34 42.5301 52.29 42.6101C52.24 42.6901 52.21 42.7901 52.19 42.8901C52.18 42.9401 52.18 42.9901 52.19 43.0301C52.2 43.0801 52.21 43.1201 52.23 43.1601C52.29 43.3101 52.36 43.4501 52.43 43.5901C52.5 43.7301 52.58 43.8601 52.66 44.0001C52.72 44.1001 52.79 44.2101 52.84 44.3101C52.9 44.4101 52.95 44.5201 53 44.6301C53.13 44.9301 53.2 45.2401 53.19 45.5601C53.18 45.7301 53.17 45.8901 53.14 46.0501C53.11 46.2101 53.06 46.3701 53 46.5201C52.93 46.7001 52.84 46.8601 52.71 46.9801C52.58 47.1101 52.42 47.2001 52.22 47.2601C52.13 47.2901 52.05 47.3001 51.97 47.2901C51.89 47.2901 51.8 47.2801 51.72 47.2601C51.46 47.2101 51.22 47.1101 51.02 46.9601C50.94 46.9001 50.87 46.8301 50.81 46.7501C50.75 46.6801 50.69 46.6001 50.63 46.5201C50.5 46.3201 50.41 46.1001 50.37 45.8701C50.35 45.7701 50.35 45.6801 50.37 45.5901C50.39 45.5001 50.42 45.4101 50.45 45.3201C50.48 45.2501 50.52 45.1701 50.56 45.1001C50.64 45.0801 50.68 45.0001 50.72 44.9201Z" fill="white"/>
<path d="M57.5299 44.3402C57.5599 44.2702 57.5899 44.2102 57.6199 44.1502C57.6399 44.0902 57.6699 44.0402 57.6999 43.9802C57.7599 43.8602 57.8199 43.7402 57.8799 43.6202C57.9399 43.5002 58.0099 43.3802 58.0799 43.2702C58.1399 43.1802 58.2099 43.1002 58.2899 43.0302C58.3699 42.9602 58.4699 42.9102 58.5699 42.8802C58.6499 42.8502 58.7399 42.8502 58.8299 42.8902C58.8699 42.9102 58.9099 42.9302 58.9399 42.9502C58.9799 42.9702 59.0099 42.9902 59.0499 43.0102C59.0999 43.0302 59.1299 43.0702 59.1599 43.1102C59.1899 43.1502 59.2099 43.1902 59.2399 43.2302C59.4299 43.5502 59.5199 43.9002 59.5099 44.2702C59.5099 44.3302 59.5099 44.3902 59.4999 44.4502C59.4999 44.5102 59.4999 44.5702 59.4999 44.6302C59.4999 44.6402 59.4999 44.6602 59.5099 44.6902C59.5399 44.6202 59.5699 44.5502 59.5999 44.4902C59.6299 44.4302 59.6499 44.3602 59.6799 44.3002C59.7699 44.1002 59.8699 43.9102 59.9799 43.7202C60.0799 43.5302 60.2099 43.3502 60.3499 43.1802C60.4499 43.0602 60.5499 42.9602 60.6599 42.8702C60.7699 42.7802 60.8999 42.7002 61.0399 42.6402C61.1399 42.5902 61.2299 42.5702 61.3299 42.5702C61.4299 42.5702 61.5299 42.5802 61.6299 42.6102C61.6799 42.6302 61.7299 42.6602 61.7599 42.6902C61.7899 42.7302 61.8199 42.7702 61.8499 42.8202C62.0099 43.1102 62.0999 43.4202 62.1099 43.7402C62.1099 43.8702 62.1199 44.0102 62.1299 44.1402C62.1399 44.2702 62.1499 44.4102 62.1499 44.5402C62.1499 44.7002 62.1499 44.8602 62.1399 45.0202C62.1299 45.1802 62.1099 45.3402 62.0799 45.5002C62.0499 45.6602 62.0399 45.8202 62.0299 45.9902C62.0199 46.1502 62.0199 46.3202 62.0199 46.4802C62.0199 46.5602 62.0299 46.6402 62.0299 46.7202C62.0299 46.8002 62.0299 46.8802 62.0399 46.9602C62.0399 46.9802 62.0399 47.0002 62.0399 47.0202C62.0399 47.0402 62.0499 47.0602 62.0499 47.0802C62.0599 47.1102 62.0599 47.1402 62.0599 47.1702C62.0599 47.2002 62.0399 47.2302 62.0199 47.2602C61.9999 47.2802 61.9899 47.3002 61.9799 47.3302C61.9699 47.3602 61.9599 47.3802 61.9499 47.4102C61.9299 47.4502 61.9099 47.4902 61.8799 47.5202C61.8499 47.5502 61.8099 47.5802 61.7799 47.5902C61.7299 47.6002 61.6699 47.6202 61.6199 47.6402C61.5599 47.6602 61.4999 47.6602 61.4399 47.6402C61.3799 47.6202 61.3399 47.5802 61.3199 47.5102C61.2899 47.3902 61.2599 47.2702 61.2399 47.1502C61.2199 47.0302 61.2099 46.9102 61.2099 46.7902C61.2099 46.7002 61.2199 46.6002 61.2199 46.5102C61.2199 46.4102 61.2299 46.3202 61.2399 46.2302C61.2499 46.1102 61.2599 45.9902 61.2799 45.8702C61.2899 45.7502 61.3099 45.6302 61.3199 45.5102C61.3299 45.4302 61.3399 45.3602 61.3399 45.2802C61.3399 45.2102 61.3499 45.1302 61.3599 45.0502C61.3699 44.9702 61.3799 44.8902 61.3999 44.8002C61.4199 44.7202 61.4299 44.6302 61.4499 44.5502C61.4699 44.4402 61.4899 44.3302 61.4999 44.2202C61.5199 44.1102 61.5399 44.0002 61.5499 43.8902C61.5599 43.7902 61.5699 43.6802 61.5799 43.5802C61.5899 43.4802 61.5999 43.3702 61.6099 43.2702C61.6199 43.1702 61.6099 43.0802 61.5899 42.9902C61.5699 43.0202 61.5499 43.0002 61.5099 43.0002C61.4699 43.0002 61.4299 43.0102 61.3899 43.0102C61.3499 43.0202 61.3199 43.0302 61.2799 43.0502C61.1199 43.1402 60.9899 43.2402 60.8799 43.3702C60.7699 43.5002 60.6599 43.6302 60.5699 43.7802C60.4999 43.8902 60.4399 44.0002 60.3799 44.1102C60.3199 44.2202 60.2599 44.3302 60.1999 44.4502C60.1599 44.5302 60.1199 44.6202 60.0799 44.7002C60.0399 44.7902 60.0099 44.8702 59.9799 44.9602C59.9299 45.0802 59.8899 45.2002 59.8499 45.3202C59.8099 45.4402 59.7799 45.5602 59.7399 45.6802C59.7099 45.7702 59.6899 45.8702 59.6799 45.9602C59.6699 46.0502 59.6499 46.1502 59.6399 46.2502C59.6199 46.4002 59.5999 46.5602 59.5899 46.7102C59.5699 46.8602 59.5499 47.0202 59.5299 47.1702C59.5199 47.2502 59.4899 47.3302 59.4499 47.4102C59.4099 47.4802 59.3399 47.5402 59.2499 47.5902C59.2199 47.6002 59.1999 47.6202 59.1799 47.6302C59.1599 47.6402 59.1299 47.6602 59.1099 47.6802C59.0999 47.6902 59.0899 47.6902 59.0899 47.6902C59.0799 47.6902 59.0699 47.6902 59.0699 47.7002C59.0099 47.7102 58.9399 47.7102 58.8699 47.6702C58.7899 47.6402 58.7399 47.6002 58.7099 47.5502C58.6699 47.4802 58.6399 47.4002 58.6199 47.3302C58.6099 47.2502 58.5999 47.1702 58.5899 47.0902C58.5799 46.9702 58.5599 46.8402 58.5499 46.7202C58.5399 46.6002 58.5499 46.4702 58.5499 46.3402C58.5499 46.3202 58.5499 46.3002 58.5499 46.2702C58.5499 46.2502 58.5499 46.2202 58.5499 46.2002C58.5499 46.1802 58.5499 46.1502 58.5499 46.1302C58.5499 46.1102 58.5599 46.0902 58.5799 46.0702C58.5799 46.0602 58.5899 46.0502 58.5899 46.0302C58.5899 45.9902 58.5799 45.9502 58.5799 45.9002C58.5799 45.8602 58.5699 45.8202 58.5799 45.7802C58.5799 45.7302 58.5899 45.6702 58.5899 45.6202C58.5999 45.5702 58.5999 45.5102 58.5999 45.4602C58.5999 45.4402 58.6099 45.4202 58.5999 45.4002C58.5999 45.3802 58.5999 45.3602 58.5999 45.3402C58.6299 45.1202 58.6499 45.0102 58.6799 44.7802C58.6899 44.7102 58.6999 44.6302 58.7099 44.5602C58.7199 44.4902 58.7299 44.4102 58.7399 44.3402C58.7499 44.2502 58.7699 44.1602 58.7899 44.0602C58.7999 43.9702 58.8199 43.8802 58.8299 43.7802C58.8399 43.7002 58.8499 43.6202 58.8499 43.5402C58.8499 43.4602 58.8399 43.3802 58.8099 43.3002C58.7399 43.3502 58.6899 43.4002 58.6299 43.4502C58.5799 43.5002 58.5299 43.5602 58.4899 43.6302C58.4699 43.6702 58.4399 43.7102 58.4099 43.7502C58.3799 43.7902 58.3499 43.8302 58.3199 43.8702C58.2599 43.9602 58.2199 44.0502 58.1799 44.1502C58.1399 44.2402 58.1099 44.3402 58.0699 44.4402C58.0399 44.5302 58.0099 44.6202 57.9799 44.7102C57.9499 44.8002 57.9199 44.8902 57.8899 44.9802C57.8399 45.1202 57.7999 45.2702 57.7599 45.4102C57.7199 45.5502 57.6999 45.7002 57.6899 45.8602C57.6899 45.9302 57.6799 45.9902 57.6699 46.0602C57.6599 46.1202 57.6499 46.1902 57.6499 46.2602C57.6399 46.3702 57.6399 46.4802 57.6399 46.5902C57.6399 46.7002 57.6399 46.8102 57.6399 46.9102C57.6399 46.9702 57.6399 47.0302 57.6299 47.0902C57.6199 47.1502 57.6199 47.2102 57.6299 47.2702C57.6299 47.2902 57.6299 47.3202 57.6299 47.3402C57.6299 47.3602 57.6199 47.3902 57.6199 47.4102C57.6199 47.4702 57.6099 47.5202 57.5899 47.5602C57.5699 47.6002 57.5499 47.6302 57.5199 47.6502C57.4899 47.6702 57.4499 47.6802 57.4099 47.6902C57.3699 47.7002 57.3299 47.7102 57.2899 47.7102C57.2499 47.7102 57.2099 47.7002 57.1699 47.7002C57.1399 47.7002 57.1199 47.6902 57.0999 47.6802C57.0799 47.6702 57.0599 47.6602 57.0299 47.6502C56.9999 47.6402 56.9799 47.6302 56.9699 47.6102C56.9599 47.6002 56.9399 47.5802 56.9299 47.5502C56.8699 47.4702 56.8399 47.3802 56.8199 47.2802C56.8099 47.2202 56.7999 47.1602 56.7899 47.1002C56.7799 47.0402 56.7699 46.9802 56.7699 46.9202C56.7599 46.8002 56.7499 46.6702 56.7399 46.5402C56.7299 46.4102 56.7199 46.2902 56.7099 46.1602C56.6999 46.0302 56.6899 45.8902 56.6799 45.7602C56.6699 45.6302 56.6699 45.5002 56.6699 45.3602C56.6699 44.9202 56.6699 44.4602 56.6799 44.0202C56.6799 43.8602 56.6899 43.6902 56.6999 43.5302C56.7099 43.3702 56.7199 43.2002 56.7399 43.0302C56.7499 42.9102 56.7599 42.7802 56.7799 42.6602C56.7899 42.5402 56.8099 42.4102 56.8199 42.2902C56.8199 42.2502 56.8499 42.2202 56.8899 42.2002C56.9499 42.1702 57.0199 42.1702 57.0999 42.1902C57.1699 42.2102 57.2299 42.2502 57.2599 42.3102C57.2999 42.3702 57.3299 42.4302 57.3499 42.4902C57.3799 42.5502 57.3999 42.6202 57.4099 42.6802C57.4199 42.7402 57.4299 42.8002 57.4399 42.8602C57.4499 42.9202 57.4599 42.9802 57.4699 43.0402C57.4799 43.1202 57.4899 43.2002 57.4899 43.2802C57.4899 43.3602 57.4999 43.4402 57.4999 43.5202C57.5099 43.6402 57.5099 43.7702 57.4999 43.9002C57.4899 44.0302 57.4899 44.2002 57.5299 44.3402Z" fill="white"/>
<path d="M64.7998 44.44C64.7798 44.48 64.7598 44.52 64.7498 44.56C64.7298 44.6 64.7198 44.64 64.6998 44.68C64.6498 44.84 64.5998 45 64.5498 45.16C64.4998 45.32 64.4498 45.48 64.3998 45.64C64.3698 45.74 64.3298 45.84 64.2998 45.94C64.2698 46.04 64.2298 46.14 64.1898 46.23C64.1398 46.32 64.0798 46.4 64.0098 46.47C63.9398 46.54 63.8598 46.59 63.7598 46.63C63.7398 46.64 63.7198 46.65 63.7098 46.66C63.6898 46.67 63.6698 46.69 63.6598 46.7C63.5998 46.73 63.5298 46.76 63.4698 46.78C63.4098 46.8 63.3398 46.8 63.2698 46.79C63.1498 46.77 63.0498 46.71 62.9698 46.62C62.9098 46.55 62.8598 46.47 62.8098 46.39C62.7698 46.31 62.7298 46.22 62.6998 46.13C62.6598 45.99 62.6298 45.85 62.6098 45.71C62.5898 45.57 62.5798 45.43 62.5698 45.28C62.5598 45.15 62.5498 45.02 62.5398 44.89C62.5298 44.76 62.5298 44.63 62.5298 44.5C62.5298 44.36 62.5298 44.23 62.5398 44.1C62.5498 43.97 62.5598 43.83 62.5698 43.7C62.5798 43.54 62.5898 43.38 62.6098 43.23C62.6298 43.08 62.6398 42.92 62.6598 42.76C62.6698 42.7 62.6898 42.64 62.7298 42.59C62.7698 42.53 62.8198 42.5 62.8998 42.49C62.9298 42.48 62.9498 42.48 62.9698 42.47C62.9998 42.46 63.0198 42.46 63.0498 42.45C63.1798 42.44 63.2698 42.49 63.3198 42.6C63.3498 42.65 63.3698 42.69 63.3798 42.74C63.3998 42.79 63.4098 42.84 63.3998 42.9C63.3998 42.96 63.3998 43.03 63.4198 43.1C63.4398 43.17 63.4398 43.23 63.4498 43.3C63.4598 43.35 63.4598 43.4 63.4598 43.45C63.4598 43.5 63.4698 43.56 63.4698 43.6C63.4798 43.75 63.4798 43.9 63.4798 44.04C63.4798 44.19 63.4898 44.34 63.4898 44.48C63.4998 44.57 63.4998 44.66 63.4998 44.75C63.4998 44.84 63.5098 44.93 63.5098 45.02C63.5098 45.09 63.5098 45.16 63.5098 45.24C63.5098 45.31 63.5198 45.39 63.5298 45.46C63.5398 45.56 63.5498 45.67 63.5398 45.77C63.5398 45.87 63.5498 45.98 63.5698 46.08C63.5798 46.13 63.5998 46.18 63.6198 46.22C63.6498 46.27 63.6798 46.27 63.7198 46.22C63.7398 46.19 63.7598 46.15 63.7898 46.12C63.8098 46.08 63.8298 46.05 63.8398 46.01C63.8698 45.9 63.8998 45.79 63.9298 45.68C63.9598 45.57 63.9898 45.46 64.0198 45.34C64.0598 45.2 64.0998 45.05 64.1398 44.91C64.1798 44.77 64.2198 44.62 64.2698 44.49C64.2998 44.4 64.3398 44.3 64.3898 44.21C64.4298 44.12 64.4798 44.03 64.5198 43.94C64.5398 43.9 64.5598 43.85 64.5898 43.81C64.6098 43.77 64.6298 43.72 64.6498 43.68C64.7298 43.49 64.8498 43.32 64.9898 43.15C65.0198 43.12 65.0398 43.09 65.0598 43.05C65.0998 42.95 65.1798 42.9 65.2898 42.9C65.3398 42.9 65.3998 42.9 65.4498 42.9C65.5098 42.9 65.5598 42.9 65.6098 42.91C65.6598 42.91 65.6898 42.92 65.7098 42.94C65.7298 42.96 65.7398 42.99 65.7598 43.04C65.7698 43.09 65.7798 43.14 65.7798 43.18C65.7798 43.23 65.7798 43.27 65.7798 43.32C65.7798 43.4 65.7798 43.48 65.7898 43.55C65.7998 43.63 65.7898 43.71 65.7898 43.79C65.7798 43.95 65.7698 44.11 65.7598 44.27C65.7498 44.43 65.7298 44.59 65.7198 44.75C65.7098 44.86 65.7098 44.96 65.6998 45.07C65.6998 45.18 65.6898 45.29 65.6798 45.39C65.6798 45.46 65.6698 45.53 65.6698 45.6C65.6698 45.67 65.6598 45.74 65.6598 45.81C65.6598 45.88 65.6498 45.94 65.6498 46.01C65.6498 46.08 65.6498 46.14 65.6498 46.21C65.6598 46.33 65.6598 46.45 65.6698 46.56C65.6798 46.68 65.6898 46.8 65.6898 46.92C65.6898 46.96 65.6898 47 65.6998 47.03C65.6998 47.07 65.7098 47.1 65.7198 47.14C65.7398 47.2 65.7498 47.25 65.7398 47.31C65.7398 47.36 65.7398 47.42 65.7298 47.47C65.7298 47.49 65.7198 47.51 65.7198 47.53C65.7198 47.55 65.7098 47.57 65.6898 47.59C65.6698 47.61 65.6498 47.63 65.6398 47.66C65.6198 47.69 65.6098 47.71 65.5898 47.74C65.5798 47.75 65.5798 47.76 65.5698 47.76C65.5698 47.77 65.5598 47.78 65.5498 47.78C65.4898 47.83 65.4298 47.87 65.3698 47.9C65.3098 47.93 65.2298 47.95 65.1498 47.94C65.0398 47.94 64.9498 47.89 64.8998 47.8C64.8798 47.77 64.8598 47.74 64.8498 47.71C64.8398 47.68 64.8198 47.65 64.8098 47.61C64.7498 47.44 64.7098 47.26 64.6898 47.09C64.6698 46.92 64.6498 46.74 64.6598 46.56C64.6598 46.3 64.6698 46.04 64.6698 45.78C64.6798 45.52 64.6998 45.26 64.7298 45.01C64.7398 44.93 64.7498 44.85 64.7698 44.77C64.7798 44.7 64.7998 44.62 64.8098 44.54C64.8098 44.52 64.8198 44.5 64.8198 44.48C64.8198 44.46 64.8198 44.44 64.8298 44.42C64.8098 44.45 64.8098 44.45 64.7998 44.44Z" fill="white"/>
<path d="M69.6497 43.6597C69.6097 43.6697 69.5797 43.6697 69.5497 43.6697C69.5197 43.6697 69.5097 43.6697 69.4897 43.6597C69.4797 43.6497 69.4597 43.6397 69.4497 43.6197C69.4397 43.5997 69.4197 43.5797 69.4097 43.5397C69.3997 43.5297 69.3997 43.5097 69.3897 43.4997C69.2997 43.4197 69.2097 43.3497 69.1097 43.2797C69.0197 43.2097 68.9097 43.1597 68.7897 43.1397C68.7497 43.1297 68.7097 43.1297 68.6697 43.1297C68.6297 43.1297 68.5897 43.1297 68.5497 43.1297C68.5297 43.1297 68.4997 43.1297 68.4597 43.1397C68.4197 43.1497 68.3797 43.1497 68.3397 43.1697C68.2997 43.1797 68.2597 43.1897 68.2297 43.2097C68.1997 43.2197 68.1797 43.2397 68.1597 43.2497C68.0097 43.4697 67.8697 43.6897 67.7397 43.9197C67.6197 44.1497 67.5297 44.3997 67.4897 44.6597C67.4497 44.8997 67.4097 45.1397 67.3897 45.3797C67.3697 45.6197 67.3797 45.8597 67.4097 46.0997C67.4297 46.2297 67.4397 46.3497 67.4597 46.4697C67.4797 46.5897 67.5297 46.6997 67.6297 46.7997C67.6697 46.8397 67.7097 46.8797 67.7397 46.9197C67.7697 46.9597 67.8197 46.9897 67.8597 47.0297C67.8797 47.0397 67.9097 47.0497 67.9597 47.0597C68.0097 47.0597 68.0597 47.0697 68.1197 47.0697C68.1797 47.0697 68.2297 47.0697 68.2797 47.0597C68.3297 47.0497 68.3597 47.0397 68.3797 47.0297C68.4597 46.9897 68.5297 46.9297 68.5797 46.8697C68.6397 46.8097 68.6897 46.7397 68.7397 46.6697C68.7697 46.6197 68.7997 46.5697 68.8297 46.5097C68.8597 46.4497 68.8797 46.3997 68.9097 46.3397C68.9397 46.2797 68.9697 46.2197 68.9997 46.1597C69.0297 46.0997 69.0697 46.0497 69.1197 45.9997C69.1597 45.9697 69.1997 45.9597 69.2497 45.9597C69.2897 45.9697 69.3197 45.9997 69.3397 46.0497C69.3497 46.0897 69.3697 46.1297 69.3697 46.1797C69.3697 46.2297 69.3697 46.2697 69.3497 46.3197C69.3097 46.4497 69.2697 46.5697 69.2297 46.6897C69.1897 46.8097 69.1397 46.9297 69.0797 47.0397C69.0097 47.1697 68.9297 47.2797 68.8397 47.3897C68.7497 47.4997 68.6397 47.5997 68.5297 47.6797C68.2397 47.8897 67.9497 47.9797 67.6597 47.9697C67.3697 47.9597 67.0797 47.8297 66.8197 47.5897C66.6297 47.4197 66.4897 47.2297 66.3897 47.0197C66.2997 46.8097 66.2297 46.5797 66.1997 46.3397C66.1697 46.0697 66.1697 45.8097 66.1897 45.5397C66.2197 45.2797 66.2597 45.0097 66.3297 44.7597C66.3797 44.5697 66.4297 44.3797 66.4897 44.1997C66.5497 44.0197 66.6297 43.8397 66.7197 43.6597C66.8797 43.3597 67.0697 43.1097 67.2997 42.9097C67.5297 42.7097 67.8197 42.5797 68.1697 42.5097C68.2397 42.4897 68.3197 42.4897 68.3997 42.4897C68.4797 42.4897 68.5597 42.4997 68.6297 42.5097C68.7597 42.5197 68.8897 42.5497 69.0097 42.5897C69.1297 42.6297 69.2497 42.6897 69.3597 42.7697C69.4197 42.8197 69.4697 42.8697 69.5297 42.9197C69.5897 42.9697 69.6297 43.0297 69.6697 43.0897C69.7197 43.1797 69.7397 43.2797 69.7397 43.3697C69.7397 43.4597 69.7197 43.5697 69.6497 43.6597Z" fill="white"/>
<path d="M71.3899 46.1698C71.3899 46.0998 71.3999 46.0298 71.4099 45.9598C71.4199 45.8898 71.4199 45.8198 71.4299 45.7498C71.4399 45.6098 71.4599 45.4698 71.4599 45.3298C71.4699 45.1898 71.4799 45.0498 71.4999 44.9098C71.5199 44.7698 71.5399 44.6198 71.5699 44.4798C71.5899 44.3398 71.6199 44.1898 71.6499 44.0398C71.6799 43.8798 71.7299 43.7298 71.7799 43.5798C71.8299 43.4298 71.8999 43.2798 71.9799 43.1398C72.0299 43.0498 72.0799 42.9598 72.1399 42.8798C72.1899 42.7998 72.2599 42.7198 72.3399 42.6498C72.3699 42.6198 72.3999 42.5998 72.4299 42.5798C72.4599 42.5498 72.4899 42.5298 72.5199 42.5098C72.5599 42.4798 72.5999 42.4698 72.6399 42.4698C72.6799 42.4698 72.7299 42.4698 72.7799 42.4798C72.8599 42.4898 72.9399 42.5198 73.0099 42.5498C73.0799 42.5898 73.1499 42.6198 73.2199 42.6698C73.2499 42.6798 73.2699 42.6898 73.2699 42.7098C73.3099 42.7798 73.3599 42.8398 73.3999 42.8998C73.4399 42.9598 73.4699 43.0298 73.4999 43.0998C73.5299 43.1898 73.5599 43.2798 73.5799 43.3698C73.5999 43.4598 73.6199 43.5498 73.6499 43.6498C73.6599 43.6998 73.6699 43.7598 73.6799 43.8098C73.6799 43.8698 73.6899 43.9198 73.7099 43.9698C73.7499 44.0898 73.7599 44.1998 73.7499 44.3198C73.7399 44.4398 73.7499 44.5598 73.7799 44.6698C73.7899 44.6898 73.7899 44.7098 73.7899 44.7398C73.7799 44.7598 73.7799 44.7898 73.7799 44.8098C73.7899 44.8898 73.7899 44.9698 73.7999 45.0598C73.8099 45.1398 73.8099 45.2298 73.8299 45.3098C73.8499 45.4398 73.8699 45.5798 73.8899 45.7198C73.9099 45.8598 73.9299 45.9898 73.9499 46.1298C73.9699 46.2598 73.9899 46.3998 73.9999 46.5298C74.0199 46.6698 74.0399 46.7998 74.0599 46.9298C74.0699 46.9798 74.0899 47.0298 74.1099 47.0698C74.1299 47.1198 74.1499 47.1598 74.1699 47.2098C74.1799 47.2498 74.1899 47.2898 74.1899 47.3398C74.1899 47.3798 74.1899 47.4198 74.1799 47.4698C74.1699 47.5098 74.1599 47.5498 74.1399 47.5898C74.1099 47.6798 74.0499 47.7198 73.9599 47.6998C73.6699 47.6398 73.4599 47.4998 73.3299 47.2698C73.2099 47.0598 73.1099 46.8498 73.0399 46.6298C72.9699 46.4098 72.9199 46.1798 72.8899 45.9498C72.8499 45.6698 72.8199 45.3798 72.7899 45.0898C72.7699 44.7998 72.7599 44.5198 72.7699 44.2298C72.7699 44.0598 72.7699 43.8998 72.7499 43.7298C72.7299 43.5698 72.7199 43.3998 72.7099 43.2398C72.7099 43.2298 72.7099 43.2098 72.6999 43.1998C72.6899 43.1898 72.6899 43.1698 72.6799 43.1398C72.6499 43.1898 72.6199 43.2398 72.5999 43.2798C72.5699 43.3198 72.5499 43.3598 72.5399 43.4098C72.4699 43.5698 72.4099 43.7298 72.3499 43.8898C72.2999 44.0498 72.2499 44.2198 72.2199 44.3898C72.2099 44.4498 72.1999 44.5098 72.1799 44.5698C72.1599 44.6298 72.1499 44.6898 72.1399 44.7498C72.1299 44.8198 72.1099 44.8998 72.0999 44.9698C72.0899 45.0398 72.0799 45.1198 72.0699 45.1898C72.0399 45.3698 72.0099 45.5598 71.9899 45.7298C71.9699 45.8998 71.9499 46.0598 71.9299 46.2298C71.9199 46.3998 71.8999 46.5598 71.8799 46.7298C71.8699 46.8298 71.8499 46.9198 71.8399 47.0098C71.8199 47.0998 71.7999 47.1998 71.7599 47.2898C71.7299 47.3798 71.6799 47.4498 71.6199 47.5098C71.5599 47.5798 71.4899 47.6398 71.4299 47.6998C71.3899 47.7398 71.3399 47.7698 71.2999 47.7998C71.2499 47.8298 71.1999 47.8598 71.1499 47.8798C71.0799 47.9098 71.0199 47.9198 70.9699 47.9098C70.9199 47.8998 70.8699 47.8598 70.8299 47.7998C70.7799 47.7298 70.7299 47.6498 70.6899 47.5698C70.6499 47.4898 70.6199 47.4098 70.5999 47.3198C70.5799 47.2098 70.5599 47.0998 70.5499 46.9898C70.5399 46.8798 70.5199 46.7698 70.4999 46.6598C70.4899 46.5798 70.4799 46.5098 70.4699 46.4298C70.4599 46.3498 70.4399 46.2798 70.4299 46.1998C70.3899 45.9398 70.3499 45.6798 70.3199 45.4198C70.2899 45.1598 70.2699 44.8998 70.2599 44.6298C70.2399 44.2098 70.2199 43.7898 70.2099 43.3698C70.1899 42.9498 70.1799 42.5298 70.1699 42.1098C70.1599 41.8098 70.1499 41.5098 70.1499 41.2098C70.1499 40.9098 70.1399 40.6098 70.1299 40.3098C70.1299 40.2398 70.1499 40.1798 70.1899 40.1298C70.2299 40.0798 70.2899 40.0398 70.3599 40.0298C70.4599 40.0198 70.5599 40.0398 70.6499 40.0998C70.7099 40.1398 70.7599 40.1898 70.7999 40.2498C70.8299 40.3098 70.8599 40.3698 70.8799 40.4398C70.9199 40.5698 70.9399 40.6998 70.9499 40.8298C70.9599 40.9598 70.9699 41.0898 70.9799 41.2198C70.9899 41.3398 70.9999 41.4598 71.0099 41.5698C71.0199 41.6898 71.0299 41.7998 71.0399 41.9198C70.9999 41.9698 70.9999 42.0398 70.9999 42.0998C70.9999 42.1598 71.0099 42.2298 71.0099 42.2998C71.0199 42.3598 71.0199 42.4298 71.0199 42.4898C71.0199 42.5498 71.0299 42.6198 71.0399 42.6798C71.0499 42.7898 71.0599 42.8998 71.0799 43.0098C71.0899 43.1198 71.0999 43.2298 71.1199 43.3398C71.1399 43.4898 71.1499 43.6298 71.1499 43.7798C71.1499 43.9198 71.1499 44.0698 71.1399 44.2198C71.1399 44.2798 71.1399 44.3398 71.1499 44.3998C71.1599 44.4598 71.1699 44.5198 71.1799 44.5798C71.1899 44.6398 71.1899 44.7098 71.1999 44.7798C71.2099 44.8498 71.2099 44.9198 71.2199 44.9898C71.2299 45.0798 71.2399 45.1798 71.2499 45.2798C71.2599 45.3798 71.2599 45.4698 71.2799 45.5698C71.2899 45.6598 71.2999 45.7498 71.3099 45.8298C71.3199 45.9098 71.3299 45.9998 71.3399 46.0898C71.3399 46.1098 71.3499 46.1198 71.3499 46.1398C71.3499 46.1598 71.3599 46.1698 71.3599 46.1898C71.3799 46.1698 71.3799 46.1698 71.3899 46.1698Z" fill="white"/>
<path d="M78.3101 44.7798C78.3101 44.9398 78.3301 45.0998 78.3301 45.2298C78.3301 45.3598 78.3201 45.4898 78.3001 45.6198C78.2801 45.7298 78.2601 45.8398 78.2301 45.9398C78.2001 46.0498 78.1701 46.1598 78.1301 46.2598C78.0901 46.3598 78.0401 46.4598 77.9901 46.5498C77.9401 46.6498 77.8901 46.7398 77.8401 46.8398C77.7901 46.9398 77.7201 47.0198 77.6501 47.0998C77.5701 47.1798 77.4901 47.2498 77.4101 47.3098C77.4001 47.3198 77.4001 47.3198 77.3901 47.3198C77.3801 47.3198 77.3801 47.3298 77.3701 47.3298C77.2601 47.4398 77.1301 47.5098 76.9901 47.5498C76.8501 47.5898 76.7001 47.6098 76.5501 47.6198C76.4901 47.6198 76.4201 47.6198 76.3601 47.6098C76.3001 47.5998 76.2301 47.5898 76.1701 47.5898C75.8501 47.5498 75.5801 47.4498 75.3601 47.2798C75.1401 47.1098 74.9701 46.8898 74.8301 46.6398C74.7101 46.4098 74.6201 46.1698 74.5701 45.9198C74.5201 45.6798 74.5101 45.4198 74.5201 45.1698C74.5301 44.9798 74.5501 44.7898 74.5801 44.5998C74.6101 44.4098 74.6601 44.2298 74.7101 44.0498C74.7901 43.7798 74.9001 43.5198 75.0301 43.2798C75.1701 43.0398 75.3401 42.8198 75.5601 42.6198C75.8401 42.3498 76.1801 42.1998 76.5701 42.1598C76.7501 42.1398 76.9201 42.1598 77.0701 42.2198C77.2201 42.2798 77.3601 42.3798 77.4901 42.5098C77.6301 42.6598 77.7501 42.8198 77.8301 42.9998C77.9101 43.1798 77.9901 43.3598 78.0501 43.5398C78.0901 43.6498 78.1201 43.7698 78.1401 43.8898C78.1701 44.0098 78.1901 44.1198 78.2201 44.2398C78.2401 44.3398 78.2701 44.4398 78.2901 44.5398C78.3101 44.6298 78.3101 44.7098 78.3101 44.7798ZM75.7201 45.4798C75.7301 45.5998 75.7601 45.7498 75.8201 45.9198C75.8801 46.0898 75.9601 46.2498 76.0801 46.3998C76.2101 46.5598 76.3601 46.6798 76.5401 46.7498C76.7201 46.8198 76.9201 46.8398 77.1301 46.8098C77.1801 46.7998 77.2301 46.7798 77.2801 46.7598C77.3301 46.7398 77.3701 46.7198 77.4201 46.6898C77.5101 46.6398 77.5801 46.5698 77.6301 46.4898C77.6801 46.3998 77.7201 46.3198 77.7701 46.2198C77.8301 46.0698 77.8701 45.9198 77.8901 45.7698C77.9101 45.6098 77.9201 45.4598 77.9201 45.2998C77.9201 45.1698 77.9201 45.0298 77.9101 44.8998C77.9001 44.7698 77.8701 44.6398 77.8401 44.5098C77.8101 44.4198 77.7901 44.3298 77.7701 44.2398C77.7501 44.1498 77.7201 44.0598 77.6901 43.9698C77.6501 43.8398 77.6101 43.7198 77.5601 43.5898C77.5101 43.4698 77.4401 43.3498 77.3601 43.2398C77.2901 43.1398 77.2101 43.0498 77.1101 42.9698C77.0201 42.8898 76.9101 42.8298 76.7901 42.7898C76.6801 42.7598 76.5901 42.7498 76.5301 42.7798C76.4601 42.7998 76.4001 42.8598 76.3301 42.9598C76.1501 43.2198 76.0101 43.4998 75.9201 43.7998C75.8401 44.0498 75.7801 44.3198 75.7501 44.5898C75.7201 44.8498 75.7001 45.1598 75.7201 45.4798Z" fill="white"/>
<path d="M82.2202 43.2599C82.2902 43.1399 82.3602 43.0199 82.4302 42.9099C82.5002 42.7999 82.5702 42.6899 82.6402 42.5799C82.7302 42.4499 82.8202 42.3299 82.9202 42.2199C83.0202 42.1099 83.1302 41.9999 83.2602 41.9099C83.5002 41.7299 83.7702 41.6399 84.0702 41.6299C84.1602 41.6299 84.2502 41.6399 84.3302 41.6899C84.4102 41.7299 84.4902 41.7799 84.5602 41.8399C84.5802 41.8599 84.6002 41.8799 84.6002 41.9099C84.6102 41.9399 84.6202 41.9699 84.6202 41.9999C84.6402 42.0999 84.6502 42.1999 84.6402 42.2999C84.6402 42.3999 84.6302 42.4999 84.6102 42.5999C84.5902 42.7199 84.5702 42.8299 84.5302 42.9299C84.4902 43.0299 84.4602 43.1399 84.4102 43.2499C84.3602 43.3699 84.3002 43.4799 84.2302 43.5899C84.1602 43.6899 84.0802 43.7999 84.0002 43.8899C83.8902 44.0299 83.7602 44.1599 83.6302 44.2799C83.4902 44.3999 83.3402 44.4999 83.1502 44.5699C83.0602 44.6099 82.9602 44.6499 82.8702 44.6799C82.7702 44.7199 82.6702 44.7599 82.5702 44.7899C82.5802 44.8499 82.5902 44.9099 82.6002 44.9699C82.6102 45.0299 82.6202 45.0999 82.6402 45.1699C82.6702 45.3199 82.7002 45.4699 82.7302 45.6199C82.7702 45.7699 82.8002 45.9199 82.8102 46.0699C82.8202 46.1699 82.8402 46.2799 82.8802 46.3799C82.9202 46.4799 82.9502 46.5899 82.9802 46.6899C82.9902 46.7399 83.0102 46.7799 83.0202 46.8199C83.0302 46.8499 83.0402 46.8799 83.0502 46.8999C83.0602 46.9299 83.0702 46.9499 83.0802 46.9799C83.0902 47.0099 83.1102 47.0499 83.1202 47.1099C83.1502 47.2399 83.1902 47.3699 83.2202 47.4899C83.2502 47.6099 83.2902 47.7399 83.3302 47.8699C83.3802 48.0599 83.4302 48.2399 83.4602 48.4299C83.5002 48.6199 83.5302 48.7999 83.5402 48.9899C83.5402 49.0499 83.5502 49.1199 83.5502 49.1799C83.5502 49.2399 83.5602 49.3099 83.5602 49.3699C83.5602 49.4199 83.5602 49.4799 83.5602 49.5299C83.5602 49.5899 83.5602 49.6399 83.5502 49.6899C83.5502 49.7199 83.5302 49.7399 83.5102 49.7699C83.4902 49.7899 83.4602 49.8099 83.4202 49.8199C83.3902 49.8299 83.3502 49.8399 83.3102 49.8299C83.2702 49.8299 83.2402 49.8199 83.2102 49.7999C83.1402 49.7599 83.0802 49.7099 83.0202 49.6599C82.9602 49.6099 82.9102 49.5499 82.8702 49.4799C82.8302 49.4099 82.7902 49.3399 82.7402 49.2699C82.7002 49.1999 82.6602 49.1199 82.6302 49.0499C82.5602 48.8799 82.4902 48.7099 82.4302 48.5399C82.3702 48.3699 82.3102 48.1999 82.2502 48.0299C82.2102 47.9299 82.1802 47.8299 82.1502 47.7399C82.1202 47.6399 82.0902 47.5499 82.0702 47.4499C82.0502 47.3699 82.0302 47.2999 82.0202 47.2499C82.0002 47.1899 81.9902 47.1399 81.9702 47.0899C81.9602 47.0399 81.9402 46.9899 81.9302 46.9299C81.9202 46.8699 81.9002 46.8099 81.8802 46.7299C81.8502 46.5899 81.8202 46.4599 81.7902 46.3299C81.7602 46.1899 81.7302 46.0599 81.7002 45.9199C81.6702 45.7699 81.6302 45.6199 81.6002 45.4799C81.5702 45.3399 81.5402 45.1899 81.5002 45.0399C81.4802 44.9499 81.4502 44.8599 81.4302 44.7699C81.4102 44.6799 81.3802 44.5899 81.3602 44.4999C81.3302 44.3699 81.2902 44.2299 81.2602 44.0899C81.2302 43.9499 81.1902 43.8199 81.1602 43.6799C81.1202 43.5099 81.0902 43.3399 81.0602 43.1699C81.0302 42.9999 81.0202 42.8199 81.0002 42.6499C81.0002 42.6199 80.9902 42.5999 80.9902 42.5699C80.9802 42.5499 80.9802 42.5199 80.9802 42.4999C80.9702 42.3999 80.9702 42.3099 80.9902 42.2199C81.0102 42.1299 81.0302 42.0399 81.0602 41.9499C81.0902 41.8699 81.1502 41.8099 81.2302 41.7899C81.3102 41.7699 81.4002 41.7799 81.4902 41.8099C81.5602 41.8299 81.6202 41.8699 81.6702 41.9099C81.7202 41.9599 81.7602 42.0199 81.7902 42.0799C81.8602 42.2399 81.9302 42.4099 81.9902 42.5699C82.0502 42.7299 82.0902 42.8999 82.1302 43.0699C82.1402 43.0999 82.1402 43.1299 82.1502 43.1499C82.2002 43.1899 82.2002 43.2199 82.2202 43.2599ZM82.6302 43.9499C82.6502 43.9599 82.6602 43.9699 82.6702 43.9799C82.7502 43.9299 82.8202 43.8799 82.9102 43.8299C82.9902 43.7799 83.0602 43.7299 83.1302 43.6799C83.3902 43.4699 83.6102 43.2299 83.7902 42.9599C83.8802 42.8299 83.9402 42.6899 83.9702 42.5499C84.0002 42.4099 84.0002 42.2599 83.9902 42.0999C83.8302 42.1399 83.7002 42.1999 83.6102 42.2999C83.5502 42.3599 83.5002 42.4099 83.4502 42.4699C83.4002 42.5299 83.3502 42.5899 83.2902 42.6499C83.1302 42.8199 83.0002 42.9999 82.9002 43.1899C82.8002 43.3799 82.7202 43.5899 82.6502 43.7999C82.6502 43.8299 82.6402 43.8499 82.6402 43.8699C82.6302 43.8999 82.6302 43.9299 82.6302 43.9499Z" fill="white"/>
<path d="M88.9802 43.6001C88.9902 43.7601 89.0202 43.9201 89.0302 44.0501C89.0402 44.1801 89.0402 44.3101 89.0202 44.4401C89.0102 44.5501 88.9902 44.6601 88.9702 44.7701C88.9502 44.8801 88.9302 44.9901 88.8902 45.1001C88.8502 45.2001 88.8102 45.3001 88.7702 45.4001C88.7302 45.5001 88.6802 45.6001 88.6402 45.7001C88.6002 45.8001 88.5402 45.8901 88.4602 45.9701C88.3902 46.0501 88.3102 46.1301 88.2302 46.2001C88.2202 46.2101 88.2202 46.2101 88.2102 46.2201C88.2002 46.2201 88.2002 46.2301 88.1902 46.2401C88.0802 46.3501 87.9602 46.4301 87.8202 46.4801C87.6802 46.5301 87.5402 46.5601 87.3902 46.5801C87.3302 46.5901 87.2602 46.5901 87.2002 46.5901C87.1402 46.5901 87.0702 46.5801 87.0102 46.5801C86.6902 46.5601 86.4102 46.4801 86.1802 46.3201C85.9502 46.1601 85.7602 45.9601 85.6102 45.7101C85.4702 45.4901 85.3702 45.2601 85.3002 45.0201C85.2402 44.7801 85.2002 44.5301 85.2002 44.2701C85.2002 44.0801 85.2002 43.8901 85.2202 43.7001C85.2402 43.5101 85.2702 43.3201 85.3102 43.1401C85.3702 42.8601 85.4602 42.6001 85.5802 42.3501C85.7002 42.1001 85.8602 41.8701 86.0602 41.6601C86.3202 41.3801 86.6502 41.2001 87.0402 41.1301C87.2202 41.1001 87.3902 41.1001 87.5502 41.1601C87.7102 41.2101 87.8502 41.3001 87.9902 41.4201C88.1402 41.5601 88.2702 41.7101 88.3602 41.8801C88.4602 42.0501 88.5402 42.2301 88.6202 42.4101C88.6602 42.5201 88.7102 42.6301 88.7402 42.7501C88.7702 42.8601 88.8102 42.9801 88.8402 43.0901C88.8702 43.1901 88.9002 43.2901 88.9302 43.3801C88.9602 43.4501 88.9702 43.5301 88.9802 43.6001ZM86.4302 44.4701C86.4502 44.5901 86.4902 44.7401 86.5602 44.9001C86.6302 45.0601 86.7202 45.2201 86.8602 45.3601C87.0002 45.5101 87.1602 45.6201 87.3402 45.6801C87.5202 45.7401 87.7202 45.7501 87.9402 45.7001C87.9902 45.6901 88.0402 45.6701 88.0902 45.6401C88.1302 45.6201 88.1802 45.5901 88.2302 45.5601C88.3202 45.5001 88.3902 45.4301 88.4302 45.3401C88.4702 45.2501 88.5102 45.1601 88.5502 45.0701C88.6002 44.9201 88.6402 44.7601 88.6402 44.6101C88.6502 44.4601 88.6502 44.3001 88.6402 44.1401C88.6302 44.0101 88.6202 43.8701 88.6102 43.7401C88.5902 43.6101 88.5602 43.4801 88.5102 43.3601C88.4802 43.2701 88.4502 43.1801 88.4202 43.0901C88.3902 43.0001 88.3602 42.9101 88.3302 42.8301C88.2802 42.7001 88.2302 42.5801 88.1702 42.4601C88.1102 42.3401 88.0302 42.2301 87.9502 42.1301C87.8702 42.0401 87.7802 41.9501 87.6902 41.8801C87.5902 41.8101 87.4802 41.7501 87.3502 41.7201C87.2402 41.6901 87.1502 41.7001 87.0902 41.7301C87.0202 41.7601 86.9602 41.8201 86.9102 41.9201C86.7502 42.1901 86.6302 42.4801 86.5502 42.7801C86.4902 43.0401 86.4502 43.3101 86.4302 43.5801C86.3902 43.8501 86.3902 44.1601 86.4302 44.4701Z" fill="white"/>
<path d="M91.9101 41.1402C91.9601 41.2802 92.0001 41.4202 92.0301 41.5602C92.0701 41.7002 92.0901 41.8402 92.1101 41.9902C92.1201 42.0202 92.1201 42.0502 92.1201 42.0902C92.1201 42.1302 92.1201 42.1502 92.1201 42.1802C92.1301 42.3002 92.1301 42.3602 92.1401 42.4802C92.1001 42.5002 92.0701 42.5202 92.0501 42.5202C92.0301 42.5202 92.0001 42.5002 91.9701 42.4702C91.8501 42.3702 91.7701 42.2402 91.7301 42.1002C91.7001 42.0002 91.6701 41.9002 91.6501 41.8002C91.6301 41.7002 91.6001 41.5902 91.5701 41.5002C91.5501 41.4302 91.5201 41.3602 91.4901 41.2902C91.4601 41.2202 91.4301 41.1502 91.4001 41.0802C91.3901 41.0602 91.3701 41.0402 91.3601 41.0202C91.3401 41.0002 91.3301 40.9802 91.3101 40.9502C91.2801 40.9802 91.2501 41.0102 91.2201 41.0402C91.1901 41.0702 91.1601 41.1002 91.1401 41.1302C91.0301 41.2702 90.9301 41.4102 90.8401 41.5602C90.7501 41.7102 90.6701 41.8602 90.6001 42.0202C90.5301 42.1702 90.4801 42.3202 90.4401 42.4802C90.4001 42.6402 90.3701 42.8002 90.3501 42.9602C90.3501 42.9802 90.3501 43.0002 90.3501 43.0202C90.3501 43.0402 90.3601 43.0602 90.3601 43.0802C90.3801 43.1702 90.4101 43.2602 90.4401 43.3402C90.4701 43.4302 90.4901 43.5202 90.5301 43.6002C90.5701 43.7102 90.6101 43.8202 90.6401 43.9302C90.6701 44.0402 90.7001 44.1602 90.7401 44.2702C90.7501 44.3002 90.7701 44.3402 90.7801 44.3702C90.7901 44.4002 90.8001 44.4302 90.8101 44.4602C90.8301 44.5302 90.8501 44.6002 90.8701 44.6802C90.8901 44.7502 90.9101 44.8202 90.9301 44.8902C90.9501 44.9602 90.9801 45.0302 91.0001 45.1002C91.0201 45.1702 91.0401 45.2402 91.0701 45.3102C91.0801 45.3402 91.1001 45.3702 91.1101 45.4002C91.1201 45.4302 91.1301 45.4602 91.1501 45.4902C91.1601 45.5102 91.1701 45.5402 91.1701 45.5602C91.1701 45.5902 91.1701 45.6102 91.1701 45.6402C91.1701 45.6802 91.1801 45.7302 91.1701 45.7802C91.1701 45.8202 91.1501 45.8702 91.1301 45.9102C91.1201 45.9202 91.1101 45.9302 91.1001 45.9502C91.0701 45.9802 91.0401 46.0002 90.9901 46.0102C90.9501 46.0302 90.9101 46.0602 90.8501 46.0802C90.7901 46.1002 90.7301 46.1202 90.6601 46.1302C90.5901 46.1402 90.5301 46.1402 90.4801 46.1302C90.4201 46.1202 90.3801 46.0902 90.3601 46.0402C90.2901 45.9002 90.2101 45.7302 90.1401 45.5202C90.0601 45.3102 89.9801 45.0702 89.8901 44.8102C89.8101 44.5502 89.7201 44.2802 89.6401 44.0002C89.5601 43.7202 89.4801 43.4402 89.4001 43.1602C89.3201 42.8802 89.2501 42.6202 89.1901 42.3702C89.1201 42.1202 89.0701 41.9002 89.0201 41.7002C88.9701 41.5102 88.9301 41.3502 88.9101 41.2302C88.8801 41.1102 88.8701 41.0502 88.8701 41.0402C88.8701 41.0302 88.8901 41.0102 88.9101 41.0002C88.9401 40.9802 88.9701 40.9602 89.0101 40.9502C89.0501 40.9302 89.0801 40.9202 89.1201 40.9002C89.1601 40.8902 89.1901 40.8702 89.2101 40.8602C89.2101 40.8602 89.2201 40.8502 89.2301 40.8502C89.2301 40.8502 89.2401 40.8502 89.2301 40.8402C89.2301 40.8402 89.2301 40.8402 89.2301 40.8502C89.2501 40.8402 89.2701 40.8302 89.2901 40.8302C89.3101 40.8302 89.3301 40.8202 89.3501 40.8202C89.3901 40.8102 89.4201 40.8202 89.4401 40.8502C89.4601 40.8702 89.4801 40.9002 89.5101 40.9302C89.6001 41.0302 89.6801 41.1402 89.7401 41.2602C89.8101 41.3802 89.8701 41.5102 89.9201 41.6302C89.9601 41.7202 89.9901 41.8002 90.0201 41.8902C90.0501 41.9802 90.0801 42.0702 90.1101 42.1502C90.1101 42.1602 90.1101 42.1602 90.1201 42.1702C90.1301 42.1802 90.1301 42.1902 90.1301 42.2002C90.1401 42.1702 90.1501 42.1402 90.1601 42.1202C90.1701 42.1002 90.1701 42.0802 90.1801 42.0602C90.2201 41.8902 90.2901 41.7202 90.3901 41.5502C90.4601 41.4202 90.5401 41.2902 90.6201 41.1502C90.7001 41.0202 90.7901 40.9002 90.9001 40.7802C90.9201 40.7502 90.9501 40.7302 90.9701 40.7102C90.9901 40.6902 91.0201 40.6602 91.0401 40.6302C91.1001 40.5702 91.1601 40.5302 91.2301 40.5102C91.3001 40.4802 91.3801 40.4702 91.4601 40.4702C91.4901 40.4702 91.5201 40.4702 91.5501 40.4902C91.5701 40.5102 91.6001 40.5302 91.6201 40.5502C91.7201 40.6302 91.7901 40.7202 91.8301 40.8302C91.8301 40.9202 91.8801 41.0302 91.9101 41.1402Z" fill="white"/>
<path d="M99.1302 43.2199C99.0302 43.2499 98.9302 43.2799 98.8402 43.3099C98.7502 43.3399 98.6502 43.3599 98.5602 43.3799C98.3502 43.4199 98.1402 43.4399 97.9302 43.4399C97.7202 43.4299 97.5102 43.4199 97.3002 43.3899C97.1202 43.3599 96.9402 43.3299 96.7702 43.2799C96.6002 43.2399 96.4302 43.1799 96.2602 43.1099C96.1202 43.0499 95.9902 42.9899 95.8602 42.9099C95.7302 42.8299 95.6302 42.7299 95.5402 42.6099C95.4202 42.4599 95.3302 42.2799 95.2802 42.0799C95.2202 41.8799 95.2002 41.6699 95.2002 41.4699C95.2002 41.2599 95.2302 41.0699 95.2802 40.8899C95.3302 40.7099 95.4102 40.5699 95.5202 40.4599C95.5602 40.4199 95.5902 40.3799 95.6302 40.3499C95.6702 40.3099 95.7102 40.2799 95.7502 40.2399C95.8602 40.1499 95.9802 40.0899 96.1102 40.0499C96.2402 40.0099 96.3702 39.9899 96.5102 39.9799C96.6802 39.9699 96.8602 39.9699 97.0202 39.9999C97.1802 40.0299 97.3502 40.0699 97.5102 40.1099C97.6502 40.1399 97.7802 40.1899 97.9102 40.2399C98.0402 40.2999 98.1602 40.3599 98.2902 40.4199C98.3102 40.4299 98.3302 40.4599 98.3602 40.4799C98.3802 40.5099 98.4102 40.5299 98.4502 40.5399C98.4402 40.5199 98.4402 40.4699 98.4202 40.3899C98.4102 40.3199 98.3902 40.2399 98.3802 40.1599C98.3702 40.0799 98.3502 40.0099 98.3402 39.9299C98.3302 39.8599 98.3202 39.8199 98.3102 39.7999C98.2802 39.5999 98.2602 39.4199 98.2402 39.2599C98.2202 39.0999 98.2002 38.9199 98.1802 38.7199C98.1602 38.5699 98.1502 38.4199 98.1402 38.2699C98.1302 38.1199 98.1102 37.9699 98.1002 37.8199C98.0902 37.7399 98.0902 37.6499 98.0802 37.5599C98.0702 37.4699 98.0602 37.3899 98.0502 37.2999C98.0502 37.2699 98.0402 37.2299 98.0402 37.1899C98.0302 37.1599 98.0302 37.1199 98.0202 37.0899C98.0002 37.0299 98.0002 36.9699 98.0202 36.9099C98.0402 36.8499 98.0702 36.7999 98.1102 36.7599C98.1502 36.7099 98.2002 36.6799 98.2502 36.6599C98.3102 36.6399 98.3702 36.6299 98.4302 36.6299C98.4902 36.6299 98.5402 36.6599 98.5802 36.6899C98.6202 36.7199 98.6502 36.7699 98.6802 36.8099C98.7602 36.9199 98.8002 37.0499 98.8202 37.1799C98.8302 37.2799 98.8402 37.3899 98.8602 37.4999C98.8702 37.6099 98.8902 37.7099 98.9002 37.8199C98.9202 37.9699 98.9402 38.1199 98.9702 38.2699C98.9902 38.4199 99.0202 38.5699 99.0402 38.7199C99.0502 38.7899 99.0702 38.8799 99.0902 38.9899C99.1102 39.1099 99.1402 39.2299 99.1702 39.3799C99.2002 39.5199 99.2302 39.6699 99.2602 39.8199C99.2902 39.9699 99.3202 40.1199 99.3502 40.2599C99.3802 40.3999 99.4102 40.5299 99.4302 40.6499C99.4502 40.7699 99.4702 40.8599 99.4902 40.9199C99.5202 41.0599 99.5502 41.1999 99.5802 41.3299C99.6102 41.4599 99.6502 41.6099 99.6802 41.7499C99.7202 41.9199 99.7702 42.0899 99.8202 42.2599C99.8702 42.4299 99.9102 42.5999 99.9602 42.7699C99.9902 42.8699 100.02 42.9699 100.05 43.0799C100.08 43.1799 100.11 43.2899 100.14 43.3899C100.16 43.4799 100.18 43.5799 100.2 43.6699C100.21 43.7699 100.23 43.8599 100.25 43.9599C100.26 44.0099 100.25 44.0599 100.23 44.1099C100.21 44.1599 100.18 44.2099 100.14 44.2499C100.1 44.2899 100.05 44.3299 100 44.3499C99.9502 44.3699 99.8902 44.3799 99.8402 44.3699C99.8002 44.3599 99.7502 44.3599 99.7002 44.3599C99.6502 44.3599 99.6102 44.3499 99.5702 44.3199C99.5302 44.2999 99.5002 44.2699 99.4702 44.2399C99.4402 44.2099 99.4302 44.1699 99.4102 44.1199C99.3802 43.9899 99.3402 43.8499 99.3002 43.7099C99.2602 43.5699 99.2202 43.4399 99.1602 43.2999C99.1502 43.2799 99.1502 43.2699 99.1402 43.2499C99.1402 43.2499 99.1302 43.2399 99.1302 43.2199ZM96.3802 42.3299C96.5202 42.4099 96.6702 42.4799 96.8202 42.5399C96.9802 42.5999 97.1402 42.6399 97.3002 42.6699C97.4802 42.6999 97.6502 42.7299 97.8302 42.7399C98.0102 42.7599 98.1802 42.7699 98.3702 42.7699C98.4702 42.7699 98.5702 42.7699 98.6602 42.7599C98.7602 42.7499 98.8602 42.7499 98.9702 42.7399C98.9602 42.6599 98.9402 42.5799 98.9302 42.4899C98.9102 42.3999 98.9002 42.3099 98.8702 42.2199C98.8502 42.1299 98.8202 42.0399 98.7902 41.9599C98.7602 41.8799 98.7102 41.8099 98.6602 41.7499C98.5302 41.6099 98.4202 41.4999 98.3102 41.4099C98.2102 41.3299 98.1102 41.2599 98.0202 41.2099C97.9302 41.1599 97.8402 41.1299 97.7602 41.0999C97.6802 41.0699 97.6002 41.0499 97.5202 41.0299C97.3502 40.9899 97.1802 40.9599 97.0102 40.9499C96.8402 40.9399 96.6702 40.9499 96.4902 40.9799C96.3002 41.0099 96.1402 41.1099 96.0702 41.2599C96.0102 41.3799 95.9802 41.5199 95.9802 41.6499C95.9802 41.6999 95.9802 41.7599 96.0002 41.8199C96.0102 41.8799 96.0302 41.9399 96.0602 41.9999C96.0902 42.0599 96.1302 42.1199 96.1802 42.1799C96.2302 42.2299 96.3002 42.2799 96.3802 42.3299Z" fill="white"/>
<path d="M104.75 43.2799C104.71 43.2899 104.67 43.2899 104.62 43.2899C104.59 43.2899 104.55 43.2899 104.5 43.2799C104.45 43.2699 104.41 43.2499 104.37 43.2199C104.22 43.0999 104.1 42.9599 104 42.8099C103.9 42.6599 103.81 42.4999 103.72 42.3399C103.67 42.2399 103.62 42.1399 103.58 42.0399C103.54 41.9399 103.5 41.8299 103.46 41.7299C103.4 41.5699 103.34 41.4099 103.28 41.2599C103.22 41.1099 103.17 40.9499 103.11 40.7899C103.1 40.7499 103.08 40.6999 103.07 40.6599C103.06 40.6199 103.04 40.5699 103.02 40.5199C103 40.5599 102.98 40.6099 102.96 40.6499C102.94 40.6899 102.93 40.7299 102.93 40.7699C102.9 40.9499 102.87 41.1299 102.82 41.3099C102.77 41.4899 102.72 41.6599 102.67 41.8399C102.65 41.9199 102.63 41.9899 102.61 42.0599C102.6 42.1299 102.58 42.2099 102.55 42.2799C102.53 42.3399 102.51 42.3899 102.49 42.4399C102.47 42.4899 102.44 42.5399 102.42 42.5899C102.36 42.6999 102.3 42.8099 102.23 42.9099C102.16 43.0099 102.07 43.0999 101.97 43.1799C101.81 43.3099 101.62 43.3899 101.41 43.4199C101.31 43.4299 101.22 43.4299 101.14 43.3899C101.06 43.3599 100.98 43.3099 100.91 43.2499C100.84 43.1899 100.78 43.1199 100.73 43.0499C100.69 42.9699 100.65 42.8899 100.62 42.7999C100.56 42.6399 100.52 42.4799 100.5 42.3099C100.48 42.1399 100.47 41.9699 100.47 41.7999C100.47 41.6699 100.48 41.5499 100.49 41.4199C100.5 41.2999 100.52 41.1699 100.56 41.0499C100.64 40.7599 100.77 40.4899 100.96 40.2299C101.07 40.0699 101.19 39.9299 101.31 39.7899C101.43 39.6499 101.57 39.5299 101.72 39.4099C101.87 39.2899 102.03 39.1899 102.19 39.0899C102.35 38.9999 102.52 38.9199 102.69 38.8399C102.7 38.8399 102.71 38.8299 102.72 38.8299C102.73 38.8299 102.73 38.8199 102.74 38.8199C102.75 38.7299 102.76 38.6399 102.76 38.5599C102.76 38.4799 102.77 38.3899 102.78 38.3099C102.78 38.2699 102.8 38.2399 102.83 38.2099C102.86 38.1899 102.9 38.1699 102.95 38.1699C103.04 38.1599 103.12 38.1699 103.18 38.2299C103.24 38.2799 103.28 38.3399 103.3 38.3899C103.33 38.4599 103.36 38.5399 103.38 38.6299C103.39 38.7099 103.41 38.7999 103.42 38.8799C103.45 39.0799 103.5 39.2899 103.54 39.4899C103.58 39.6899 103.64 39.8899 103.7 40.0899C103.78 40.3399 103.88 40.5799 103.98 40.8199C104.08 41.0599 104.19 41.2899 104.31 41.5199C104.38 41.6599 104.45 41.7999 104.53 41.9399C104.61 42.0799 104.68 42.2099 104.76 42.3399C104.8 42.4199 104.85 42.4899 104.89 42.5599C104.94 42.6299 104.99 42.7099 105.04 42.7799C105.05 42.7899 105.06 42.8199 105.07 42.8499C105.09 42.8899 105.09 42.9399 105.08 42.9699C105.07 42.9999 105.05 43.0399 105.02 43.0899C105 43.1199 104.97 43.1499 104.94 43.1799C104.91 43.1999 104.88 43.2299 104.85 43.2499C104.82 43.2299 104.78 43.2599 104.75 43.2799ZM101.81 42.6299C101.82 42.6299 101.83 42.6299 101.84 42.6199C101.86 42.6099 101.88 42.5999 101.88 42.5899C102.06 42.4299 102.18 42.2399 102.25 42.0099C102.27 41.9399 102.29 41.8799 102.3 41.8099C102.31 41.7499 102.33 41.6799 102.35 41.6099C102.39 41.4799 102.43 41.3599 102.47 41.2399C102.51 41.1199 102.54 40.9899 102.56 40.8599C102.57 40.7599 102.59 40.6599 102.62 40.5599C102.65 40.4599 102.67 40.3599 102.69 40.2599C102.71 40.1299 102.73 39.9999 102.76 39.8699C102.78 39.7399 102.8 39.6099 102.8 39.4799C102.8 39.4399 102.8 39.3999 102.8 39.3599C102.8 39.3199 102.79 39.2799 102.77 39.2399C102.73 39.2599 102.7 39.2699 102.67 39.2899C102.64 39.3099 102.61 39.3299 102.58 39.3599C102.47 39.4499 102.36 39.5499 102.25 39.6399C102.14 39.7399 102.04 39.8399 101.95 39.9499C101.87 40.0399 101.8 40.1299 101.74 40.2299C101.67 40.3199 101.63 40.4299 101.6 40.5399C101.59 40.5899 101.58 40.6399 101.56 40.6899C101.55 40.7399 101.54 40.7899 101.53 40.8399C101.52 40.9199 101.51 40.9999 101.5 41.0799C101.49 41.1599 101.49 41.2399 101.48 41.3199C101.48 41.3899 101.48 41.4599 101.49 41.5299C101.5 41.5999 101.51 41.6699 101.51 41.7399C101.52 41.8599 101.54 41.9699 101.57 42.0899C101.6 42.1999 101.64 42.3099 101.68 42.4199C101.7 42.4599 101.72 42.4899 101.74 42.5299C101.74 42.5799 101.77 42.6099 101.81 42.6299Z" fill="white"/>
<path d="M107.42 37.7401C107.48 37.8701 107.53 38.0101 107.58 38.1401C107.63 38.2701 107.67 38.4101 107.71 38.5601C107.72 38.5901 107.73 38.6201 107.73 38.6601C107.73 38.6901 107.74 38.7201 107.74 38.7501C107.76 38.8701 107.77 38.9301 107.79 39.0501C107.75 39.0801 107.72 39.0901 107.7 39.0901C107.67 39.0901 107.65 39.0801 107.61 39.0501C107.48 38.9601 107.39 38.8401 107.33 38.7101C107.29 38.6201 107.25 38.5201 107.22 38.4201C107.19 38.3201 107.15 38.2201 107.11 38.1201C107.08 38.0501 107.05 37.9801 107.01 37.9201C106.97 37.8501 106.93 37.7801 106.89 37.7201C106.88 37.7001 106.86 37.6801 106.84 37.6601C106.82 37.6401 106.8 37.6201 106.78 37.6001C106.75 37.6401 106.72 37.6701 106.7 37.7001C106.67 37.7301 106.65 37.7601 106.63 37.8001C106.54 37.9501 106.45 38.1001 106.38 38.2601C106.3 38.4201 106.24 38.5801 106.18 38.7501C106.13 38.9101 106.09 39.0701 106.07 39.2201C106.05 39.3801 106.03 39.5401 106.03 39.7101C106.03 39.7301 106.03 39.7501 106.03 39.7701C106.04 39.7901 106.04 39.8101 106.05 39.8301C106.08 39.9201 106.12 40.0001 106.15 40.0901C106.19 40.1701 106.22 40.2601 106.27 40.3401C106.32 40.4401 106.37 40.5501 106.41 40.6601C106.45 40.7701 106.5 40.8801 106.54 40.9901C106.56 41.0201 106.57 41.0501 106.58 41.0801C106.59 41.1101 106.61 41.1401 106.62 41.1701C106.65 41.2301 106.67 41.3101 106.7 41.3801C106.73 41.4501 106.75 41.5201 106.78 41.5801C106.81 41.6401 106.84 41.7101 106.87 41.7801C106.9 41.8501 106.93 41.9201 106.96 41.9801C106.97 42.0101 106.99 42.0401 107.01 42.0701C107.03 42.1001 107.04 42.1301 107.06 42.1601C107.07 42.1801 107.08 42.2101 107.08 42.2301C107.08 42.2601 107.08 42.2801 107.09 42.3101C107.1 42.3501 107.1 42.4001 107.1 42.4501C107.1 42.4901 107.09 42.5401 107.07 42.5801C107.06 42.5901 107.06 42.6001 107.05 42.6201C107.03 42.6501 106.99 42.6701 106.94 42.6901C106.91 42.7201 106.86 42.7501 106.8 42.7701C106.74 42.8001 106.68 42.8201 106.62 42.8401C106.56 42.8601 106.49 42.8601 106.44 42.8601C106.38 42.8601 106.34 42.8301 106.31 42.7901C106.23 42.6601 106.13 42.5001 106.03 42.2901C105.93 42.0901 105.82 41.8601 105.71 41.6101C105.6 41.3601 105.49 41.1001 105.38 40.8301C105.27 40.5601 105.16 40.2901 105.06 40.0201C104.96 39.7501 104.86 39.5001 104.77 39.2501C104.68 39.0101 104.6 38.7901 104.53 38.6001C104.46 38.4101 104.41 38.2601 104.37 38.1501C104.33 38.0401 104.31 37.9801 104.31 37.9701C104.31 37.9601 104.32 37.9401 104.35 37.9201C104.38 37.9001 104.41 37.8801 104.44 37.8601C104.47 37.8401 104.51 37.8201 104.55 37.8001C104.59 37.7801 104.62 37.7701 104.63 37.7501C104.63 37.7501 104.64 37.7401 104.65 37.7401C104.65 37.7401 104.65 37.7401 104.65 37.7301C104.67 37.7201 104.69 37.7101 104.71 37.7001C104.73 37.7001 104.75 37.6901 104.77 37.6901C104.81 37.6801 104.84 37.6901 104.86 37.7101C104.88 37.7301 104.9 37.7501 104.93 37.7801C105.03 37.8701 105.12 37.9701 105.2 38.0901C105.28 38.2001 105.35 38.3201 105.42 38.4401C105.47 38.5201 105.51 38.6101 105.55 38.6901C105.59 38.7701 105.63 38.8601 105.67 38.9401C105.67 38.9501 105.67 38.9501 105.68 38.9601C105.68 38.9601 105.69 38.9701 105.7 38.9901C105.71 38.9601 105.71 38.9301 105.72 38.9101C105.73 38.8901 105.73 38.8701 105.73 38.8501C105.76 38.6801 105.81 38.5001 105.88 38.3201C105.94 38.1801 106.01 38.0401 106.07 37.9001C106.14 37.7601 106.22 37.6301 106.31 37.5101C106.33 37.4801 106.35 37.4601 106.37 37.4301C106.39 37.4001 106.41 37.3801 106.44 37.3401C106.49 37.2701 106.55 37.2301 106.62 37.2001C106.69 37.1701 106.76 37.1401 106.84 37.1301C106.87 37.1201 106.9 37.1301 106.93 37.1401C106.96 37.1601 106.98 37.1701 107.01 37.1901C107.11 37.2601 107.19 37.3401 107.25 37.4401C107.31 37.5301 107.37 37.6301 107.42 37.7401Z" fill="white"/>
<path d="M10.8397 43.1901C10.5197 43.1901 10.3597 43.0801 10.2397 42.8801C10.1397 42.7201 10.1097 42.5501 10.1697 42.3801C10.2697 42.0501 10.6397 41.7801 11.3697 41.4801C12.2797 41.1101 12.7497 40.8801 12.9897 40.7401C12.7997 40.7301 12.4897 40.7501 11.9797 40.8801C11.4297 41.0201 10.8997 41.2001 10.4797 41.3401C10.0197 41.5001 9.77974 41.5801 9.60974 41.5901C9.34974 41.5901 9.09974 41.4301 8.99974 41.1701C8.86974 40.8601 8.97974 40.5101 9.27974 40.2501C9.52974 40.0301 10.1197 39.8401 11.0397 39.5501C11.3997 39.4401 11.7997 39.3101 12.1197 39.1901C11.9697 39.2001 11.8397 39.2201 11.7397 39.2301C11.6097 39.2401 11.4897 39.2601 11.4197 39.2601L11.2797 39.2701C10.8097 39.3001 9.68974 39.3601 9.32974 39.4101C9.03974 39.4501 8.81974 39.4301 8.64974 39.3601C8.47974 39.2901 8.26974 39.1201 8.21974 38.7501C8.18974 38.5001 8.23974 38.2601 8.38974 38.0801C8.56974 37.8501 8.85974 37.7101 9.23974 37.6701C9.43974 37.6501 9.84974 37.6301 10.3097 37.6001C10.7297 37.5801 11.3497 37.5501 11.7297 37.5201C10.9797 37.4001 9.74974 37.0901 9.39974 36.8901C9.18974 36.7801 8.81974 36.5301 8.72974 36.1601C8.67974 35.9701 8.71974 35.7701 8.82974 35.6001C9.22974 34.9901 9.85974 35.2201 10.4297 35.4701C11.0397 35.7501 13.1897 35.9401 14.4097 35.4701C14.7497 35.3401 15.7697 34.9401 15.1897 33.0201C15.0397 32.5201 14.5797 31.0001 15.5597 30.5701C15.7797 30.4701 15.9997 30.4801 16.2297 30.6001C16.7697 30.8801 17.1197 31.7101 17.2697 32.3901C17.3797 32.9301 17.6297 33.5501 17.8397 34.1001C18.0297 34.5801 18.1897 35.0001 18.2597 35.3301C18.3797 35.9101 18.6097 36.5901 19.7097 37.3101C20.8097 38.0201 21.9297 38.2001 22.8797 38.2701C23.0397 38.2801 23.1497 38.4201 23.1397 38.5801C23.1297 38.7301 22.9897 38.8501 22.8297 38.8401C21.8697 38.7601 20.6097 38.5701 19.3997 37.7901C18.1697 37.0001 17.8597 36.2001 17.6997 35.4601C17.6397 35.1701 17.4797 34.7601 17.2997 34.3201C17.0797 33.7501 16.8297 33.1101 16.6997 32.5201C16.5297 31.7301 16.1997 31.2401 15.9597 31.1101C15.8697 31.0701 15.8197 31.0801 15.7797 31.1001C15.3497 31.2901 15.5097 32.1601 15.7197 32.8601C16.3297 34.8601 15.4497 35.6801 14.6097 36.0001C13.2197 36.5401 10.9197 36.3201 10.1897 35.9901C9.45974 35.6601 9.36974 35.8001 9.29974 35.9101C9.26974 35.9401 9.26974 35.9701 9.27974 36.0001C9.30974 36.1101 9.45974 36.2601 9.66974 36.3801C10.0197 36.5701 11.6497 36.9601 12.1497 36.9801C12.6197 36.9901 12.7197 37.2201 12.7397 37.3601C12.7797 37.6401 12.5297 37.8901 12.2497 37.9901C12.0597 38.0601 11.5297 38.0901 10.3297 38.1501C9.88974 38.1701 9.47974 38.1901 9.28974 38.2101C9.06974 38.2301 8.90974 38.3101 8.81974 38.4101C8.76974 38.4801 8.74974 38.5601 8.75974 38.6601C8.77974 38.7801 8.78974 38.9001 9.23974 38.8401C9.62974 38.7901 10.7097 38.7301 11.2397 38.7001L11.3797 38.6901C11.4497 38.6901 11.5597 38.6801 11.6797 38.6601C12.6797 38.5601 13.0997 38.5501 13.2297 38.8601C13.2797 38.9701 13.2897 39.1501 13.0497 39.3501C12.7397 39.6001 11.9897 39.8301 11.1997 40.0801C10.5897 40.2701 9.81974 40.5101 9.63974 40.6701C9.52974 40.7601 9.48974 40.8601 9.50974 40.9401C9.51974 40.9901 9.56974 41.0201 9.57974 41.0201C9.66974 41.0201 9.99974 40.9001 10.2897 40.8001C10.7197 40.6501 11.2597 40.4701 11.8397 40.3201C12.3997 40.1801 13.1497 40.0701 13.5297 40.3001C13.6797 40.3901 13.7397 40.5101 13.7497 40.6001C13.8197 40.8901 13.6997 41.1301 11.5797 42.0001C10.7397 42.3401 10.6997 42.5501 10.6997 42.5501C10.8097 42.7401 11.6897 42.4901 13.3097 41.8501C15.7497 40.8801 16.8797 39.7901 16.8897 39.7801L17.0297 39.6401L21.3997 41.6201C21.5397 41.6801 21.6097 41.8501 21.5397 41.9901C21.4697 42.1301 21.3097 42.2001 21.1697 42.1301L17.1497 40.3101C16.7597 40.6501 15.5997 41.5501 13.5297 42.3701C12.0697 42.9501 11.2897 43.1901 10.8397 43.1901Z" fill="white"/>
<path d="M121.48 43.19C121.03 43.19 120.25 42.95 118.8 42.38C116.73 41.56 115.57 40.65 115.18 40.32L111.16 42.14C111.02 42.21 110.85 42.14 110.79 42C110.72 41.86 110.79 41.69 110.93 41.63L115.3 39.65L115.44 39.79C115.45 39.8 116.59 40.9 119.02 41.86C120.64 42.5 121.51 42.74 121.62 42.58C121.63 42.55 121.59 42.35 120.75 42.01C118.62 41.14 118.51 40.9 118.57 40.61C118.59 40.53 118.64 40.41 118.79 40.31C119.17 40.07 119.92 40.19 120.48 40.33C121.06 40.47 121.6 40.66 122.03 40.81C122.32 40.91 122.65 41.02 122.74 41.03C122.75 41.03 122.79 41 122.81 40.95C122.83 40.87 122.78 40.78 122.68 40.68C122.5 40.52 121.73 40.28 121.12 40.09C120.33 39.84 119.58 39.61 119.27 39.36C119.03 39.17 119.04 38.98 119.09 38.87C119.22 38.56 119.64 38.57 120.64 38.67C120.76 38.68 120.87 38.69 120.94 38.7L121.08 38.71C121.6 38.74 122.69 38.8 123.08 38.85C123.3 38.88 123.41 38.86 123.46 38.84C123.49 38.83 123.54 38.81 123.56 38.67C123.57 38.57 123.56 38.49 123.5 38.42C123.42 38.31 123.25 38.24 123.03 38.22C122.83 38.2 122.43 38.18 121.99 38.16C120.79 38.1 120.26 38.06 120.07 38C119.79 37.9 119.53 37.65 119.58 37.37C119.6 37.24 119.71 37.01 120.17 36.99C120.68 36.97 122.3 36.58 122.65 36.39C122.86 36.28 123.02 36.13 123.04 36.01C123.05 35.98 123.05 35.95 123.02 35.9C122.94 35.78 122.86 35.65 122.13 35.98C121.41 36.31 119.1 36.53 117.71 35.99C116.87 35.66 115.99 34.85 116.6 32.85C116.81 32.15 116.97 31.27 116.54 31.09C116.5 31.07 116.45 31.06 116.36 31.1C116.12 31.22 115.79 31.72 115.62 32.51C115.49 33.1 115.24 33.74 115.02 34.31C114.85 34.75 114.69 35.17 114.62 35.45C114.46 36.19 114.15 36.99 112.92 37.79C111.71 38.57 110.45 38.76 109.49 38.84C109.34 38.85 109.2 38.74 109.19 38.58C109.18 38.42 109.29 38.29 109.45 38.27C110.4 38.19 111.52 38.02 112.62 37.31C113.73 36.59 113.95 35.91 114.07 35.33C114.14 35 114.31 34.58 114.49 34.1C114.7 33.55 114.95 32.93 115.06 32.39C115.21 31.7 115.56 30.87 116.1 30.6C116.32 30.49 116.55 30.48 116.77 30.57C117.75 31 117.29 32.52 117.14 33.02C116.56 34.94 117.58 35.34 117.92 35.47C119.13 35.94 121.28 35.75 121.9 35.47C122.47 35.21 123.1 34.99 123.5 35.6C123.62 35.77 123.65 35.97 123.6 36.16C123.51 36.53 123.14 36.78 122.93 36.89C122.58 37.08 121.36 37.4 120.6 37.52C120.98 37.55 121.6 37.59 122.02 37.6C122.48 37.62 122.89 37.64 123.09 37.67C123.47 37.71 123.76 37.85 123.94 38.08C124.09 38.27 124.15 38.5 124.11 38.75C124.06 39.12 123.85 39.29 123.68 39.36C123.5 39.44 123.29 39.45 123 39.41C122.63 39.36 121.52 39.3 121.05 39.27L120.91 39.26C120.83 39.26 120.72 39.24 120.59 39.23C120.5 39.22 120.37 39.21 120.22 39.2C120.55 39.32 120.94 39.45 121.29 39.55C122.22 39.84 122.8 40.03 123.05 40.25C123.35 40.51 123.46 40.86 123.33 41.17C123.23 41.43 123 41.6 122.72 41.59C122.55 41.58 122.31 41.5 121.85 41.34C121.43 41.19 120.9 41.01 120.35 40.88C119.84 40.75 119.53 40.73 119.34 40.74C119.58 40.88 120.05 41.11 120.96 41.48C121.69 41.78 122.06 42.05 122.16 42.38C122.22 42.55 122.19 42.73 122.09 42.88C121.96 43.07 121.79 43.19 121.48 43.19Z" fill="white"/>
<path d="M31.7999 10.05C31.7999 10.05 27.6599 5.85997 23.4199 5.18997C19.1799 4.51997 16.9899 10.16 19.4499 14.75C21.9099 19.33 23.8099 21.85 26.7199 24.59C29.6299 27.33 30.9699 28.39 32.3099 27.94C33.6499 27.49 40.0799 22.51 43.0999 16.59C46.1199 10.67 45.1699 7.36997 43.0999 5.80997C41.0199 4.22997 37.6699 3.66997 31.7999 10.05Z" fill="white"/>
</svg>
